<?xml version="1.0" encoding="UTF-8" standalone="no"?>
<svg
   width="1627pt"
   height="1001pt"
   viewBox="0 0 1627 1001"
   version="1.1"
   id="svg318"
   sodipodi:docname="dominio-nodos-elementos.svg"
   inkscape:version="1.2.2 (b0a8486541, 2022-12-01)"
   inkscape:export-filename="dominio-nodos-elementos.png"
   inkscape:export-xdpi="51.01128"
   inkscape:export-ydpi="51.01128"
   xmlns:inkscape="http://www.inkscape.org/namespaces/inkscape"
   xmlns:sodipodi="http://sodipodi.sourceforge.net/DTD/sodipodi-0.dtd"
   xmlns="http://www.w3.org/2000/svg"
   xmlns:svg="http://www.w3.org/2000/svg"
   xmlns:ns2="http://www.iki.fi/pav/software/textext/">
  <sodipodi:namedview
     id="namedview320"
     pagecolor="#ffffff"
     bordercolor="#666666"
     borderopacity="1.0"
     inkscape:showpageshadow="2"
     inkscape:pageopacity="0.0"
     inkscape:pagecheckerboard="0"
     inkscape:deskcolor="#d1d1d1"
     inkscape:document-units="pt"
     showgrid="false"
     inkscape:zoom="0.6047941"
     inkscape:cx="937.50915"
     inkscape:cy="621.69919"
     inkscape:window-width="1920"
     inkscape:window-height="1051"
     inkscape:window-x="1920"
     inkscape:window-y="0"
     inkscape:window-maximized="1"
     inkscape:current-layer="svg318" />
  <title
     id="title2">dominio-nodos-elementos</title>
  <desc
     id="desc4">
Creator: GL2PS 1.4.3, (C) 1999-2020 C. Geuzaine
For: Gmsh
CreationDate: Wed Jun 28 11:57:28 2023
</desc>
  <defs
     id="defs6">
    <g
       id="id-abffc9fd-87a3-44d9-8e8e-58a9a458d33b">
      <symbol
         overflow="visible"
         id="id-8c288c84-625f-4f24-826a-16ee88cf1ac3">
        <path
           style="stroke:none;stroke-width:0"
           d=""
           id="id-3b75a4ec-3158-481e-ba26-a98b450a6b04" />
      </symbol>
      <symbol
         overflow="visible"
         id="id-3cf8e244-db54-402b-82a8-5d7eb5a03f09">
        <path
           style="stroke:none;stroke-width:0"
           d="m 5.515625,-6.78125 h -5.1875 v 0.3125 H 0.5625 c 0.765625,0 0.796875,0.109375 0.796875,0.46875 v 5.21875 c 0,0.359375 -0.03125,0.46875 -0.796875,0.46875 H 0.328125 V 0 c 0.34375,-0.03125 1.125,-0.03125 1.515625,-0.03125 0.40625,0 1.3125,0 1.671875,0.03125 V -0.3125 H 3.1875 C 2.25,-0.3125 2.25,-0.4375 2.25,-0.78125 v -5.296875 c 0,-0.328125 0.015625,-0.390625 0.484375,-0.390625 h 1.03125 c 1.421875,0 1.625,0.59375 1.78125,1.9375 h 0.25 z m 0,0"
           id="id-664cdac3-bc9e-4ef3-a99f-d92bccc5b449" />
      </symbol>
      <symbol
         overflow="visible"
         id="id-cb0f1797-ffa6-469f-8541-921970557cf1">
        <path
           style="stroke:none;stroke-width:0"
           d=""
           id="id-164fa330-ee29-44b2-97a5-17afdc0fd8c5" />
      </symbol>
      <symbol
         overflow="visible"
         id="id-183e3dde-3481-4af6-93ea-d2e75621b25b">
        <path
           style="stroke:none;stroke-width:0"
           d="M 1.3125,-0.546875 C 1.265625,-0.3125 1.25,-0.25 0.703125,-0.25 0.578125,-0.25 0.5,-0.25 0.5,-0.09375 0.5,0 0.578125,0 0.703125,0 H 3.1875 c 1.546875,0 3.03125,-1.421875 3.03125,-2.9375 0,-1.015625 -0.703125,-1.828125 -1.828125,-1.828125 H 1.84375 c -0.140625,0 -0.21875,0 -0.21875,0.15625 0,0.09375 0.078125,0.09375 0.234375,0.09375 0.109375,0 0.140625,0 0.265625,0.015625 0.140625,0.015625 0.140625,0.03125 0.140625,0.109375 0,0 0,0.046875 -0.015625,0.140625 z m 1.5625,-3.71875 c 0.0625,-0.21875 0.0625,-0.25 0.359375,-0.25 H 4.125 c 0.78125,0 1.4375,0.390625 1.4375,1.34375 0,0.15625 -0.078125,1.359375 -0.765625,2.15625 C 4.515625,-0.703125 3.921875,-0.25 3.0625,-0.25 H 2.125 c -0.21875,0 -0.234375,-0.015625 -0.234375,-0.078125 0,0 0,-0.03125 0.03125,-0.140625 z m 0,0"
           id="id-69beb0e7-c1fc-4284-aab5-a15f6ab54080" />
      </symbol>
    </g>
    <g
       id="id-a0449123-b8be-4289-bd89-78a0cc2f70b4">
      <symbol
         overflow="visible"
         id="id-e0c4372a-8742-4f16-8a63-a16e1a8d9cb0">
        <path
           style="stroke:none"
           d=""
           id="id-173a17cb-9004-4c8b-a316-f84fac614430" />
      </symbol>
      <symbol
         overflow="visible"
         id="id-6f596ad6-af8d-4689-b813-2ac0846a1644">
        <path
           style="stroke:none"
           d="m 5.515625,-6.78125 h -5.1875 v 0.3125 H 0.5625 c 0.765625,0 0.796875,0.109375 0.796875,0.46875 v 5.21875 c 0,0.359375 -0.03125,0.46875 -0.796875,0.46875 H 0.328125 V 0 c 0.34375,-0.03125 1.125,-0.03125 1.515625,-0.03125 0.40625,0 1.3125,0 1.671875,0.03125 V -0.3125 H 3.1875 C 2.25,-0.3125 2.25,-0.4375 2.25,-0.78125 v -5.296875 c 0,-0.328125 0.015625,-0.390625 0.484375,-0.390625 h 1.03125 c 1.421875,0 1.625,0.59375 1.78125,1.9375 h 0.25 z m 0,0"
           id="id-69e6a479-c582-4f96-9875-166745bd91df" />
      </symbol>
      <symbol
         overflow="visible"
         id="id-f2422e49-42c3-4353-855a-e57df9e456dd">
        <path
           style="stroke:none"
           d=""
           id="id-1c210919-242e-4f3f-9741-616cce27625a" />
      </symbol>
      <symbol
         overflow="visible"
         id="id-75192963-3f3e-4124-bc60-6a0394fb5a5b">
        <path
           style="stroke:none"
           d="M 5.8125,-4 C 5.875,-4.265625 6,-4.5 6.546875,-4.515625 c 0.03125,0 0.140625,0 0.140625,-0.140625 0,-0.046875 -0.03125,-0.109375 -0.109375,-0.109375 -0.21875,0 -0.484375,0.03125 -0.71875,0.03125 -0.171875,0 -0.5625,-0.03125 -0.734375,-0.03125 -0.03125,0 -0.140625,0 -0.140625,0.15625 0,0.09375 0.09375,0.09375 0.15625,0.09375 0.328125,0.015625 0.4375,0.125 0.4375,0.296875 0,0.046875 0,0.09375 -0.03125,0.15625 l -0.75,3.046875 -1.765625,-3.625 c -0.0625,-0.125 -0.078125,-0.125 -0.25,-0.125 H 1.828125 c -0.125,0 -0.21875,0 -0.21875,0.15625 0,0.09375 0.078125,0.09375 0.234375,0.09375 0.140625,0 0.296875,0.015625 0.4375,0.046875 L 1.359375,-0.75 c -0.0625,0.265625 -0.1875,0.484375 -0.734375,0.5 -0.046875,0 -0.140625,0 -0.140625,0.140625 C 0.484375,-0.03125 0.53125,0 0.578125,0 0.8125,0 1.078125,-0.03125 1.3125,-0.03125 1.484375,-0.03125 1.875,0 2.046875,0 2.125,0 2.1875,-0.03125 2.1875,-0.140625 2.1875,-0.25 2.109375,-0.25 2.03125,-0.25 c -0.4375,-0.015625 -0.4375,-0.203125 -0.4375,-0.296875 0,-0.03125 0,-0.0625 0.015625,-0.171875 l 0.90625,-3.5625 2.03125,4.15625 C 4.59375,0 4.625,0 4.703125,0 4.8125,0 4.8125,-0.015625 4.84375,-0.140625 Z m 0,0"
           id="id-8897bf21-2917-4f20-86f7-9a2e66d769c5" />
      </symbol>
    </g>
    <g
       id="id-089d1589-7526-4b39-9631-1c743c71ae87">
      <symbol
         overflow="visible"
         id="id-006acdba-ceb6-44a4-be9e-b06c631b6442">
        <path
           style="stroke:none"
           d=""
           id="id-ac4e2ab2-a7c0-4610-86d4-e1d247e40c97" />
      </symbol>
      <symbol
         overflow="visible"
         id="id-e0eda2a1-efb2-414a-b24f-0d3be8b63840">
        <path
           style="stroke:none"
           d="M 6.328125,-5.765625 C 6.4375,-6.171875 6.609375,-6.46875 7.40625,-6.5 c 0.046875,0 0.171875,-0.015625 0.171875,-0.203125 0,0 0,-0.109375 -0.125,-0.109375 -0.328125,0 -0.6875,0.03125 -1.015625,0.03125 -0.34375,0 -0.71875,-0.03125 -1.046875,-0.03125 -0.0625,0 -0.171875,0 -0.171875,0.203125 C 5.21875,-6.5 5.3125,-6.5 5.390625,-6.5 c 0.578125,0.015625 0.6875,0.21875 0.6875,0.4375 0,0.03125 -0.03125,0.1875 -0.03125,0.203125 l -0.90625,3.5625 C 4.8125,-0.953125 3.65625,-0.09375 2.65625,-0.09375 c -0.671875,0 -1.203125,-0.4375 -1.203125,-1.296875 0,-0.015625 0,-0.328125 0.109375,-0.765625 L 2.515625,-6.046875 C 2.609375,-6.40625 2.625,-6.5 3.359375,-6.5 c 0.265625,0 0.34375,0 0.34375,-0.203125 0,-0.109375 -0.109375,-0.109375 -0.140625,-0.109375 -0.28125,0 -1,0.03125 -1.28125,0.03125 -0.28125,0 -1,-0.03125 -1.28125,-0.03125 -0.078125,0 -0.1875,0 -0.1875,0.203125 C 0.8125,-6.5 0.890625,-6.5 1.09375,-6.5 c 0.015625,0 0.203125,0 0.375,0.015625 0.171875,0.03125 0.265625,0.03125 0.265625,0.171875 0,0.046875 -0.109375,0.46875 -0.171875,0.703125 l -0.21875,0.875 C 1.25,-4.34375 0.78125,-2.46875 0.734375,-2.265625 0.671875,-2 0.671875,-1.84375 0.671875,-1.6875 c 0,1.203125 0.90625,1.90625 1.953125,1.90625 1.25,0 2.484375,-1.125 2.8125,-2.4375 z m 0,0"
           id="id-4021ccb2-31fa-47a3-8dca-6a8399ae7bc0" />
      </symbol>
    </g>
  </defs>
  <circle
     fill="#ff00ff"
     cx="867.58801"
     cy="858"
     r="6"
     id="circle10" />
  <circle
     fill="#ff00ff"
     cx="867.58801"
     cy="858"
     r="6"
     id="circle12" />
  <circle
     fill="#ff00ff"
     cx="1047.14"
     cy="814.73602"
     r="6"
     id="circle14" />
  <circle
     fill="#ff00ff"
     cx="1047.14"
     cy="814.73602"
     r="6"
     id="circle16" />
  <circle
     fill="#ff00ff"
     cx="1194.97"
     cy="708.37799"
     r="6"
     id="circle18" />
  <circle
     fill="#ff00ff"
     cx="1194.97"
     cy="708.37799"
     r="6"
     id="circle20" />
  <circle
     fill="#ff00ff"
     cx="1295.6899"
     cy="553.82599"
     r="6"
     id="circle22" />
  <circle
     fill="#ff00ff"
     cx="1295.6899"
     cy="553.82599"
     r="6"
     id="circle24" />
  <circle
     fill="#ff00ff"
     cx="1303.23"
     cy="377.625"
     r="6"
     id="circle26" />
  <circle
     fill="#ff00ff"
     cx="1303.23"
     cy="377.625"
     r="6"
     id="circle28" />
  <circle
     fill="#ff00ff"
     cx="1167.71"
     cy="253.319"
     r="6"
     id="circle30" />
  <circle
     fill="#ff00ff"
     cx="1167.71"
     cy="253.319"
     r="6"
     id="circle32" />
  <circle
     fill="#ff00ff"
     cx="1005.99"
     cy="164.16499"
     r="6"
     id="circle34" />
  <circle
     fill="#ff00ff"
     cx="1005.99"
     cy="164.16499"
     r="6"
     id="circle36" />
  <circle
     fill="#ff00ff"
     cx="830.12299"
     cy="166.79201"
     r="6"
     id="circle38" />
  <circle
     fill="#ff00ff"
     cx="830.12299"
     cy="166.79201"
     r="6"
     id="circle40" />
  <circle
     fill="#ff00ff"
     cx="670.70502"
     cy="256.28799"
     r="6"
     id="circle42" />
  <circle
     fill="#ff00ff"
     cx="670.70502"
     cy="256.28799"
     r="6"
     id="circle44" />
  <circle
     fill="#ff00ff"
     cx="492.48901"
     cy="218.44099"
     r="6"
     id="circle46" />
  <circle
     fill="#ff00ff"
     cx="492.48901"
     cy="218.44099"
     r="6"
     id="circle48" />
  <circle
     fill="#ff00ff"
     cx="331.42801"
     cy="305.91699"
     r="6"
     id="circle50" />
  <circle
     fill="#ff00ff"
     cx="331.42801"
     cy="305.91699"
     r="6"
     id="circle52" />
  <circle
     fill="#008b8b"
     cx="338.439"
     cy="621.34399"
     r="6"
     id="circle58" />
  <circle
     fill="#008b8b"
     cx="338.439"
     cy="621.34399"
     r="6"
     id="circle60" />
  <circle
     fill="#008b8b"
     cx="419.27899"
     cy="742.33002"
     r="6"
     id="circle62" />
  <circle
     fill="#008b8b"
     cx="419.27899"
     cy="742.33002"
     r="6"
     id="circle64" />
  <circle
     fill="#008b8b"
     cx="540.26398"
     cy="823.16901"
     r="6"
     id="circle66" />
  <circle
     fill="#008b8b"
     cx="540.26398"
     cy="823.16901"
     r="6"
     id="circle68" />
  <circle
     fill="#5a5a5a"
     cx="981.02698"
     cy="561.35498"
     r="6"
     id="circle72" />
  <circle
     fill="#5a5a5a"
     cx="793.52899"
     cy="315.61301"
     r="6"
     id="circle74" />
  <circle
     fill="#5a5a5a"
     cx="1049.29"
     cy="305.75699"
     r="6"
     id="circle76" />
  <circle
     fill="#5a5a5a"
     cx="924.10101"
     cy="312.97699"
     r="6"
     id="circle78" />
  <circle
     fill="#5a5a5a"
     cx="636.20398"
     cy="713.771"
     r="6"
     id="circle80" />
  <circle
     fill="#5a5a5a"
     cx="447.83801"
     cy="525.40399"
     r="6"
     id="circle82" />
  <circle
     fill="#5a5a5a"
     cx="916.03198"
     cy="705.64697"
     r="6"
     id="circle84" />
  <circle
     fill="#5a5a5a"
     cx="1118.22"
     cy="554.60602"
     r="6"
     id="circle86" />
  <circle
     fill="#5a5a5a"
     cx="558.26202"
     cy="393.18399"
     r="6"
     id="circle88" />
  <circle
     fill="#5a5a5a"
     cx="709.76001"
     cy="424.37299"
     r="6"
     id="circle90" />
  <circle
     fill="#5a5a5a"
     cx="605.42798"
     cy="531.46002"
     r="6"
     id="circle92" />
  <circle
     fill="#5a5a5a"
     cx="785.83301"
     cy="592.63702"
     r="6"
     id="circle94" />
  <circle
     fill="#5a5a5a"
     cx="869.53302"
     cy="447.92001"
     r="6"
     id="circle96" />
  <circle
     fill="#5a5a5a"
     cx="779.216"
     cy="742.05603"
     r="6"
     id="circle98" />
  <circle
     fill="#5a5a5a"
     cx="516.00598"
     cy="644.53003"
     r="6"
     id="circle100" />
  <circle
     fill="#5a5a5a"
     cx="1016.96"
     cy="430.13199"
     r="6"
     id="circle102" />
  <circle
     fill="#5a5a5a"
     cx="1158.52"
     cy="412.54401"
     r="6"
     id="circle104" />
  <circle
     fill="#5a5a5a"
     cx="428.01401"
     cy="384.31601"
     r="6"
     id="circle106" />
  <circle
     fill="#5a5a5a"
     cx="1059.5601"
     cy="674.36298"
     r="6"
     id="circle108" />
  <polyline
     fill="none"
     stroke="#ff00ff"
     stroke-width="2"
     stroke-linecap="butt"
     stroke-linejoin="miter"
     points="682.976,851.557 688.559,851.591 694.12,851.69 699.661,851.848 705.184,852.06 710.691,852.321 716.183,852.627 721.662,852.97 727.131,853.347 732.59,853.751 738.041,854.179 743.487,854.624 748.928,855.081 754.367,855.545 759.806,856.011 765.246,856.473 770.688,856.927 776.136,857.366 781.589,857.787 787.051,858.183 792.523,858.549 798.006,858.88 803.503,859.171 809.015,859.417 814.544,859.612 820.092,859.751 825.66,859.829 831.25,859.84 836.864,859.78 842.503,859.642 848.17,859.423 853.866,859.116 859.594,858.717 865.353,858.22 871.147,857.619 876.977,856.91 882.845,856.088 888.753,855.146 894.702,854.081 900.694,852.886 906.731,851.557 912.848,850.157 919.075,848.753 925.404,847.338 931.829,845.907 938.342,844.455 944.937,842.977 951.607,841.468 958.344,839.921 965.142,838.333 971.993,836.698 978.891,835.01 985.828,833.265 992.799,831.456 999.794,829.58 1006.81,827.63 1013.84,825.601 1020.87,823.489 1027.89,821.287 1034.91,818.991 1041.92,816.595 1048.9,814.094 1055.84,811.484 1062.76,808.758 1069.62,805.911 1076.44,802.938 1083.2,799.834 1089.89,796.594 1096.51,793.213 1103.05,789.684 1109.51,786.004 1115.87,782.166 1122.13,778.165 1128.29,773.997 1134.33,769.655 1140.25,765.136 1146.04,760.433 1151.69,755.541 1157.21,750.455 1162.57,745.169 1167.78,739.679 1173,733.925 1178.38,727.858 1183.91,721.492 1189.58,714.843 1195.35,707.922 1201.21,700.746 1207.14,693.327 1213.13,685.68 1219.14,677.818 1225.17,669.756 1231.2,661.507 1237.2,653.086 1243.15,644.507 1249.05,635.783 1254.85,626.928 1260.56,617.957 1266.15,608.883 1271.59,599.721 1276.88,590.484 1281.99,581.186 1286.9,571.842 1291.59,562.466 1296.04,553.07 1300.24,543.67 1304.17,534.279 1307.8,524.912 1311.11,515.582 1314.1,506.303 1316.73,497.09 1318.99,487.955 1320.86,478.914 1322.32,469.98 1323.35,461.168 1323.93,452.49 1324.05,443.962 1323.68,435.597 1322.8,427.409 1321.4,419.412 1319.46,411.62 1316.95,404.047 1313.79,396.521 1309.95,388.869 1305.44,381.105 1300.3,373.244 1294.55,365.298 1288.23,357.282 1281.37,349.211 1273.99,341.098 1266.12,332.956 1257.8,324.801 1249.06,316.645 1239.92,308.504 1230.41,300.391 1220.57,292.319 1210.42,284.303 1200,276.358 1189.33,268.496 1178.44,260.732 1167.36,253.08 1156.12,245.554 1144.76,238.168 1133.3,230.936 1121.77,223.871 1110.2,216.988 1098.62,210.301 1087.06,203.824 1075.55,197.571 1064.12,191.555 1052.8,185.791 1041.62,180.292 1030.61,175.074 1019.8,170.149 1009.22,165.532 998.892,161.236 988.855,157.276 979.134,153.666 969.762,150.419 960.766,147.55 952.176,145.072 944.024,143 936.145,141.411 928.358,140.357 920.661,139.813 913.052,139.756 905.529,140.159 898.091,141 890.735,142.254 883.461,143.895 876.265,145.9 869.147,148.244 862.105,150.903 855.137,153.852 848.241,157.067 841.416,160.523 834.659,164.195 827.969,168.061 821.345,172.093 814.784,176.27 808.285,180.565 801.846,184.954 795.465,189.413 789.141,193.918 782.872,198.444 776.655,202.966 770.49,207.461 764.374,211.902 758.306,216.267 752.284,220.531 746.307,224.669 740.372,228.656 734.478,232.469 728.622,236.082 722.804,239.472 717.022,242.613 711.273,245.481 705.557,248.053 699.871,250.303 694.213,252.206 688.582,253.739 682.976,254.877 677.429,255.672 671.97,256.201 666.599,256.479 661.309,256.518 656.1,256.334 650.966,255.94 645.904,255.351 640.911,254.579 635.983,253.64 631.117,252.547 626.309,251.314 621.556,249.955 616.854,248.484 612.2,246.915 607.59,245.263 603.021,243.54 598.49,241.762 593.992,239.942 589.524,238.093 585.084,236.231 580.666,234.369 576.269,232.521 571.887,230.7 567.519,228.922 563.16,227.199 558.807,225.547 554.456,223.978 550.103,222.508 545.747,221.149 541.382,219.916 537.005,218.823 532.613,217.883 528.203,217.112 523.77,216.522 519.312,216.128 514.825,215.944 510.305,215.984 505.749,216.261 501.153,216.79 496.514,217.585 491.796,218.598 486.97,219.769 482.044,221.092 477.029,222.563 471.932,224.177 466.762,225.927 461.528,227.809 456.238,229.817 450.902,231.946 445.528,234.192 440.125,236.548 434.702,239.009 429.267,241.571 423.829,244.228 418.397,246.975 412.979,249.806 407.585,252.716 402.222,255.7 396.901,258.753 391.629,261.87 386.415,265.045 381.269,268.272 376.198,271.548 371.211,274.866 366.318,278.222 361.527,281.609 356.847,285.023 352.286,288.459 347.853,291.911 343.557,295.375 339.407,298.844 335.411,302.313 331.578,305.778 327.917,309.233 324.437,312.673 321.146,316.093 318.054,319.487 315.168,322.85 312.498,326.177 310.052,329.462 307.836,332.748 305.845,336.079 304.069,339.453 302.5,342.869 301.129,346.324 299.948,349.817 298.947,353.346 298.118,356.91 297.453,360.506 296.941,364.133 296.576,367.789 296.347,371.472 296.246,375.181 296.265,378.914 296.395,382.67 296.627,386.445 296.951,390.239 297.361,394.051 297.846,397.877 298.398,401.716 299.008,405.568 299.668,409.429 300.369,413.298 301.102,417.174 301.858,421.055 302.628,424.938 303.405,428.823 304.178,432.706 304.94,436.588 305.682,440.466 306.394,444.337 307.068,448.201 307.696,452.056 308.269,455.9 308.777,459.731 309.213,463.547 309.567,467.347 309.83,471.129 309.995,474.891 310.052,478.632"
     id="polyline110" />
  <polyline
     fill="none"
     stroke="#008b8b"
     stroke-width="2"
     stroke-linecap="butt"
     stroke-linejoin="miter"
     points="310.052,478.632 310.124,485.954 310.339,493.273 310.699,500.586 311.201,507.891 311.848,515.185 312.637,522.465 313.569,529.727 314.643,536.97 315.86,544.191 317.217,551.386 318.716,558.553 320.356,565.69 322.135,572.792 324.053,579.859 326.11,586.886 328.304,593.872 330.635,600.813 333.102,607.708 335.703,614.552 338.439,621.344 341.307,628.081 344.307,634.761 347.438,641.38 350.698,647.936 354.086,654.428 357.601,660.851 361.242,667.204 365.006,673.485 368.893,679.69 372.901,685.818 377.029,691.866 381.274,697.832 385.636,703.713 390.112,709.508 394.702,715.213 399.402,720.827 404.212,726.348 409.13,731.774 414.152,737.101 419.279,742.33 424.507,747.456 429.835,752.479 435.26,757.396 440.781,762.206 446.396,766.907 452.101,771.496 457.896,775.973 463.777,780.334 469.743,784.58 475.791,788.708 481.918,792.716 488.124,796.603 494.404,800.367 500.758,804.007 507.181,807.522 513.672,810.91 520.229,814.17 526.848,817.301 533.527,820.301 540.264,823.169 547.056,825.905 553.901,828.507 560.795,830.974 567.736,833.305 574.722,835.499 581.75,837.555 588.816,839.474 595.919,841.253 603.055,842.892 610.222,844.391 617.418,845.749 624.638,846.965 631.881,848.04 639.144,848.972 646.423,849.761 653.717,850.407 661.022,850.91 668.335,851.269 675.654,851.485 682.976,851.557"
     id="polyline112" />
  <polyline
     fill="none"
     stroke="#5a5a5a"
     stroke-width="1"
     stroke-linecap="butt"
     stroke-linejoin="miter"
     points="419.279,742.33 540.264,823.169 516.006,644.53 419.279,742.33"
     id="polyline114" />
  <polyline
     fill="none"
     stroke="#5a5a5a"
     stroke-width="1"
     stroke-linecap="butt"
     stroke-linejoin="miter"
     points="338.439,621.344 419.279,742.33 516.006,644.53 338.439,621.344"
     id="polyline116" />
  <polyline
     fill="none"
     stroke="#5a5a5a"
     stroke-width="1"
     stroke-linecap="butt"
     stroke-linejoin="miter"
     points="605.428,531.46 636.204,713.771 785.833,592.637 605.428,531.46"
     id="polyline118" />
  <polyline
     fill="none"
     stroke="#5a5a5a"
     stroke-width="1"
     stroke-linecap="butt"
     stroke-linejoin="miter"
     points="869.533,447.92 785.833,592.637 981.027,561.355 869.533,447.92"
     id="polyline120" />
  <polyline
     fill="none"
     stroke="#5a5a5a"
     stroke-width="1"
     stroke-linecap="butt"
     stroke-linejoin="miter"
     points="447.838,525.404 338.439,621.344 516.006,644.53 447.838,525.404"
     id="polyline122" />
  <polyline
     fill="none"
     stroke="#5a5a5a"
     stroke-width="1"
     stroke-linecap="butt"
     stroke-linejoin="miter"
     points="785.833,592.637 916.032,705.647 981.027,561.355 785.833,592.637"
     id="polyline124" />
  <polyline
     fill="none"
     stroke="#5a5a5a"
     stroke-width="1"
     stroke-linecap="butt"
     stroke-linejoin="miter"
     points="540.264,823.169 636.204,713.771 516.006,644.53 540.264,823.169"
     id="polyline126" />
  <polyline
     fill="none"
     stroke="#5a5a5a"
     stroke-width="1"
     stroke-linecap="butt"
     stroke-linejoin="miter"
     points="1118.22,554.606 1295.69,553.826 1158.52,412.544 1118.22,554.606"
     id="polyline128" />
  <polyline
     fill="none"
     stroke="#5a5a5a"
     stroke-width="1"
     stroke-linecap="butt"
     stroke-linejoin="miter"
     points="558.262,393.184 492.489,218.441 428.014,384.316 558.262,393.184"
     id="polyline130" />
  <polyline
     fill="none"
     stroke="#5a5a5a"
     stroke-width="1"
     stroke-linecap="butt"
     stroke-linejoin="miter"
     points="636.204,713.771 605.428,531.46 516.006,644.53 636.204,713.771"
     id="polyline132" />
  <polyline
     fill="none"
     stroke="#5a5a5a"
     stroke-width="1"
     stroke-linecap="butt"
     stroke-linejoin="miter"
     points="1295.69,553.826 1303.23,377.625 1158.52,412.544 1295.69,553.826"
     id="polyline134" />
  <polyline
     fill="none"
     stroke="#5a5a5a"
     stroke-width="1"
     stroke-linecap="butt"
     stroke-linejoin="miter"
     points="492.489,218.441 331.428,305.917 428.014,384.316 492.489,218.441"
     id="polyline136" />
  <polyline
     fill="none"
     stroke="#5a5a5a"
     stroke-width="1"
     stroke-linecap="butt"
     stroke-linejoin="miter"
     points="558.262,393.184 447.838,525.404 605.428,531.46 558.262,393.184"
     id="polyline138" />
  <polyline
     fill="none"
     stroke="#5a5a5a"
     stroke-width="1"
     stroke-linecap="butt"
     stroke-linejoin="miter"
     points="1194.97,708.378 1295.69,553.826 1118.22,554.606 1194.97,708.378"
     id="polyline140" />
  <polyline
     fill="none"
     stroke="#5a5a5a"
     stroke-width="1"
     stroke-linecap="butt"
     stroke-linejoin="miter"
     points="867.588,858 1047.14,814.736 916.032,705.647 867.588,858"
     id="polyline142" />
  <polyline
     fill="none"
     stroke="#5a5a5a"
     stroke-width="1"
     stroke-linecap="butt"
     stroke-linejoin="miter"
     points="670.705,256.288 558.262,393.184 709.76,424.373 670.705,256.288 492.489,218.441 558.262,393.184 670.705,256.288"
     id="polyline144" />
  <polyline
     fill="none"
     stroke="#5a5a5a"
     stroke-width="1"
     stroke-linecap="butt"
     stroke-linejoin="miter"
     points="1005.99,164.165 830.123,166.792 924.101,312.977 1005.99,164.165"
     id="polyline146" />
  <polyline
     fill="none"
     stroke="#5a5a5a"
     stroke-width="1"
     stroke-linecap="butt"
     stroke-linejoin="miter"
     points="785.833,592.637 636.204,713.771 779.216,742.056 785.833,592.637"
     id="polyline148" />
  <polyline
     fill="none"
     stroke="#5a5a5a"
     stroke-width="1"
     stroke-linecap="butt"
     stroke-linejoin="miter"
     points="310.052,478.632 338.439,621.344 447.838,525.404 310.052,478.632"
     id="polyline150" />
  <polyline
     fill="none"
     stroke="#5a5a5a"
     stroke-width="1"
     stroke-linecap="butt"
     stroke-linejoin="miter"
     points="709.76,424.373 558.262,393.184 605.428,531.46 709.76,424.373"
     id="polyline152" />
  <polyline
     fill="none"
     stroke="#5a5a5a"
     stroke-width="1"
     stroke-linecap="butt"
     stroke-linejoin="miter"
     points="540.264,823.169 682.976,851.557 636.204,713.771 540.264,823.169"
     id="polyline154" />
  <polyline
     fill="none"
     stroke="#5a5a5a"
     stroke-width="1"
     stroke-linecap="butt"
     stroke-linejoin="miter"
     points="682.976,851.557 867.588,858 779.216,742.056 682.976,851.557"
     id="polyline156" />
  <polyline
     fill="none"
     stroke="#5a5a5a"
     stroke-width="1"
     stroke-linecap="butt"
     stroke-linejoin="miter"
     points="916.032,705.647 785.833,592.637 779.216,742.056 916.032,705.647"
     id="polyline158" />
  <polyline
     fill="none"
     stroke="#5a5a5a"
     stroke-width="1"
     stroke-linecap="butt"
     stroke-linejoin="miter"
     points="709.76,424.373 605.428,531.46 785.833,592.637 709.76,424.373"
     id="polyline160" />
  <polyline
     fill="none"
     stroke="#5a5a5a"
     stroke-width="1"
     stroke-linecap="butt"
     stroke-linejoin="miter"
     points="447.838,525.404 558.262,393.184 428.014,384.316 447.838,525.404"
     id="polyline162" />
  <polyline
     fill="none"
     stroke="#5a5a5a"
     stroke-width="1"
     stroke-linecap="butt"
     stroke-linejoin="miter"
     points="331.428,305.917 310.052,478.632 428.014,384.316 331.428,305.917"
     id="polyline164" />
  <polyline
     fill="none"
     stroke="#5a5a5a"
     stroke-width="1"
     stroke-linecap="butt"
     stroke-linejoin="miter"
     points="605.428,531.46 447.838,525.404 516.006,644.53 605.428,531.46"
     id="polyline166" />
  <polyline
     fill="none"
     stroke="#5a5a5a"
     stroke-width="1"
     stroke-linecap="butt"
     stroke-linejoin="miter"
     points="636.204,713.771 682.976,851.557 779.216,742.056 636.204,713.771"
     id="polyline168" />
  <circle
     fill="#ff00ff"
     cx="682.97601"
     cy="851.55701"
     r="6"
     id="circle8"
     style="fill:#ff0000;fill-opacity:1" />
  <circle
     fill="#008b8b"
     cx="682.97601"
     cy="851.55701"
     r="6"
     id="circle70"
     style="fill:#ff0000;fill-opacity:1" />
  <polyline
     fill="none"
     stroke="#5a5a5a"
     stroke-width="1"
     stroke-linecap="butt"
     stroke-linejoin="miter"
     points="709.76,424.373 785.833,592.637 869.533,447.92 709.76,424.373"
     id="polyline170" />
  <polyline
     fill="none"
     stroke="#5a5a5a"
     stroke-width="1"
     stroke-linecap="butt"
     stroke-linejoin="miter"
     points="867.588,858 916.032,705.647 779.216,742.056 867.588,858"
     id="polyline172" />
  <polyline
     fill="none"
     stroke="#5a5a5a"
     stroke-width="1"
     stroke-linecap="butt"
     stroke-linejoin="miter"
     points="709.76,424.373 869.533,447.92 793.529,315.613 709.76,424.373"
     id="polyline174" />
  <polyline
     fill="none"
     stroke="#5a5a5a"
     stroke-width="1"
     stroke-linecap="butt"
     stroke-linejoin="miter"
     points="1303.23,377.625 1167.71,253.319 1158.52,412.544 1303.23,377.625"
     id="polyline176" />
  <polyline
     fill="none"
     stroke="#5a5a5a"
     stroke-width="1"
     stroke-linecap="butt"
     stroke-linejoin="miter"
     points="869.533,447.92 924.101,312.977 793.529,315.613 869.533,447.92"
     id="polyline178" />
  <polyline
     fill="none"
     stroke="#5a5a5a"
     stroke-width="1"
     stroke-linecap="butt"
     stroke-linejoin="miter"
     points="830.123,166.792 670.705,256.288 793.529,315.613 830.123,166.792"
     id="polyline180" />
  <polyline
     fill="none"
     stroke="#5a5a5a"
     stroke-width="1"
     stroke-linecap="butt"
     stroke-linejoin="miter"
     points="1167.71,253.319 1005.99,164.165 1049.29,305.757 1167.71,253.319"
     id="polyline182" />
  <polyline
     fill="none"
     stroke="#5a5a5a"
     stroke-width="1"
     stroke-linecap="butt"
     stroke-linejoin="miter"
     points="916.032,705.647 1047.14,814.736 1059.56,674.363 916.032,705.647"
     id="polyline184" />
  <polyline
     fill="none"
     stroke="#5a5a5a"
     stroke-width="1"
     stroke-linecap="butt"
     stroke-linejoin="miter"
     points="924.101,312.977 830.123,166.792 793.529,315.613 924.101,312.977"
     id="polyline186" />
  <polyline
     fill="none"
     stroke="#5a5a5a"
     stroke-width="1"
     stroke-linecap="butt"
     stroke-linejoin="miter"
     points="1047.14,814.736 1194.97,708.378 1059.56,674.363 1047.14,814.736"
     id="polyline188" />
  <polyline
     fill="none"
     stroke="#5a5a5a"
     stroke-width="1"
     stroke-linecap="butt"
     stroke-linejoin="miter"
     points="1194.97,708.378 1118.22,554.606 1059.56,674.363 1194.97,708.378"
     id="polyline190" />
  <polyline
     fill="none"
     stroke="#5a5a5a"
     stroke-width="1"
     stroke-linecap="butt"
     stroke-linejoin="miter"
     points="1005.99,164.165 924.101,312.977 1049.29,305.757 1005.99,164.165"
     id="polyline192" />
  <polyline
     fill="none"
     stroke="#5a5a5a"
     stroke-width="1"
     stroke-linecap="butt"
     stroke-linejoin="miter"
     points="310.052,478.632 447.838,525.404 428.014,384.316 310.052,478.632"
     id="polyline194" />
  <circle
     fill="#ff00ff"
     cx="310.052"
     cy="478.63199"
     r="6"
     id="circle54"
     style="fill:#ff0000;fill-opacity:1" />
  <circle
     fill="#008b8b"
     cx="310.052"
     cy="478.63199"
     r="6"
     id="circle56"
     style="fill:#ff0000;fill-opacity:1" />
  <polyline
     fill="none"
     stroke="#5a5a5a"
     stroke-width="1"
     stroke-linecap="butt"
     stroke-linejoin="miter"
     points="924.101,312.977 869.533,447.92 1016.96,430.132 924.101,312.977"
     id="polyline196" />
  <polyline
     fill="none"
     stroke="#5a5a5a"
     stroke-width="1"
     stroke-linecap="butt"
     stroke-linejoin="miter"
     points="670.705,256.288 709.76,424.373 793.529,315.613 670.705,256.288"
     id="polyline198" />
  <polyline
     fill="none"
     stroke="#5a5a5a"
     stroke-width="1"
     stroke-linecap="butt"
     stroke-linejoin="miter"
     points="1016.96,430.132 1118.22,554.606 1158.52,412.544 1016.96,430.132 869.533,447.92 981.027,561.355 1016.96,430.132"
     id="polyline200" />
  <polyline
     fill="none"
     stroke="#5a5a5a"
     stroke-width="1"
     stroke-linecap="butt"
     stroke-linejoin="miter"
     points="1118.22,554.606 1016.96,430.132 981.027,561.355 1118.22,554.606"
     id="polyline202" />
  <polyline
     fill="none"
     stroke="#5a5a5a"
     stroke-width="1"
     stroke-linecap="butt"
     stroke-linejoin="miter"
     points="1016.96,430.132 1158.52,412.544 1049.29,305.757 1016.96,430.132"
     id="polyline204" />
  <polyline
     fill="none"
     stroke="#5a5a5a"
     stroke-width="1"
     stroke-linecap="butt"
     stroke-linejoin="miter"
     points="1158.52,412.544 1167.71,253.319 1049.29,305.757 1158.52,412.544"
     id="polyline206" />
  <polyline
     fill="none"
     stroke="#5a5a5a"
     stroke-width="1"
     stroke-linecap="butt"
     stroke-linejoin="miter"
     points="924.101,312.977 1016.96,430.132 1049.29,305.757 924.101,312.977"
     id="polyline208" />
  <polyline
     fill="none"
     stroke="#5a5a5a"
     stroke-width="1"
     stroke-linecap="butt"
     stroke-linejoin="miter"
     points="1059.56,674.363 1118.22,554.606 981.027,561.355 1059.56,674.363"
     id="polyline210" />
  <polyline
     fill="none"
     stroke="#5a5a5a"
     stroke-width="1"
     stroke-linecap="butt"
     stroke-linejoin="miter"
     points="916.032,705.647 1059.56,674.363 981.027,561.355 916.032,705.647"
     id="polyline212" />
  <text
     fill="#ff00ff"
     x="690.47601"
     y="844.05701"
     font-size="15px"
     text-anchor="start"
     dy="0"
     font-family="Helvetica"
     id="text214"
     style="fill:#ff0000;fill-opacity:1;font-size:36px">1</text>
  <text
     fill="#ff00ff"
     x="875.08801"
     y="850.5"
     font-size="15px"
     text-anchor="start"
     dy="0"
     font-family="Helvetica"
     id="text216"
     style="font-size:36px">3</text>
  <text
     fill="#ff00ff"
     x="875.08801"
     y="850.5"
     font-size="15px"
     text-anchor="start"
     dy="0"
     font-family="Helvetica"
     id="text218"
     style="font-size:36px">3</text>
  <text
     fill="#ff00ff"
     x="1054.64"
     y="807.23602"
     font-size="15px"
     text-anchor="start"
     dy="0"
     font-family="Helvetica"
     id="text220"
     style="font-size:36px">4</text>
  <text
     fill="#ff00ff"
     x="1054.64"
     y="807.23602"
     font-size="15px"
     text-anchor="start"
     dy="0"
     font-family="Helvetica"
     id="text222"
     style="font-size:36px">4</text>
  <text
     fill="#ff00ff"
     x="1202.47"
     y="700.87799"
     font-size="15px"
     text-anchor="start"
     dy="0"
     font-family="Helvetica"
     id="text224"
     style="font-size:36px">5</text>
  <text
     fill="#ff00ff"
     x="1202.47"
     y="700.87799"
     font-size="15px"
     text-anchor="start"
     dy="0"
     font-family="Helvetica"
     id="text226"
     style="font-size:36px">5</text>
  <text
     fill="#ff00ff"
     x="1303.1899"
     y="546.32599"
     font-size="15px"
     text-anchor="start"
     dy="0"
     font-family="Helvetica"
     id="text228"
     style="font-size:36px">6</text>
  <text
     fill="#ff00ff"
     x="1303.1899"
     y="546.32599"
     font-size="15px"
     text-anchor="start"
     dy="0"
     font-family="Helvetica"
     id="text230"
     style="font-size:36px">6</text>
  <text
     fill="#ff00ff"
     x="1310.73"
     y="370.125"
     font-size="15px"
     text-anchor="start"
     dy="0"
     font-family="Helvetica"
     id="text232"
     style="font-size:36px">7</text>
  <text
     fill="#ff00ff"
     x="1310.73"
     y="370.125"
     font-size="15px"
     text-anchor="start"
     dy="0"
     font-family="Helvetica"
     id="text234"
     style="font-size:36px">7</text>
  <text
     fill="#ff00ff"
     x="1175.21"
     y="245.819"
     font-size="15px"
     text-anchor="start"
     dy="0"
     font-family="Helvetica"
     id="text236"
     style="font-size:36px">8</text>
  <text
     fill="#ff00ff"
     x="1175.21"
     y="245.819"
     font-size="15px"
     text-anchor="start"
     dy="0"
     font-family="Helvetica"
     id="text238"
     style="font-size:36px">8</text>
  <text
     fill="#ff00ff"
     x="1013.49"
     y="156.66499"
     font-size="15px"
     text-anchor="start"
     dy="0"
     font-family="Helvetica"
     id="text240"
     style="font-size:36px">9</text>
  <text
     fill="#ff00ff"
     x="1013.49"
     y="156.66499"
     font-size="15px"
     text-anchor="start"
     dy="0"
     font-family="Helvetica"
     id="text242"
     style="font-size:36px">9</text>
  <text
     fill="#ff00ff"
     x="837.62299"
     y="159.29201"
     font-size="15px"
     text-anchor="start"
     dy="0"
     font-family="Helvetica"
     id="text244"
     style="font-size:36px">10</text>
  <text
     fill="#ff00ff"
     x="837.62299"
     y="159.29201"
     font-size="15px"
     text-anchor="start"
     dy="0"
     font-family="Helvetica"
     id="text246"
     style="font-size:36px">10</text>
  <text
     fill="#ff00ff"
     x="678.20502"
     y="248.78799"
     font-size="15px"
     text-anchor="start"
     dy="0"
     font-family="Helvetica"
     id="text248"
     style="font-size:36px">11</text>
  <text
     fill="#ff00ff"
     x="678.20502"
     y="248.78799"
     font-size="15px"
     text-anchor="start"
     dy="0"
     font-family="Helvetica"
     id="text250"
     style="font-size:36px">11</text>
  <text
     fill="#ff00ff"
     x="499.98901"
     y="210.94099"
     font-size="15px"
     text-anchor="start"
     dy="0"
     font-family="Helvetica"
     id="text252"
     style="font-size:36px">12</text>
  <text
     fill="#ff00ff"
     x="499.98901"
     y="210.94099"
     font-size="15px"
     text-anchor="start"
     dy="0"
     font-family="Helvetica"
     id="text254"
     style="font-size:36px">12</text>
  <text
     fill="#ff00ff"
     x="338.92801"
     y="298.41699"
     font-size="15px"
     text-anchor="start"
     dy="0"
     font-family="Helvetica"
     id="text256"
     style="font-size:36px">13</text>
  <text
     fill="#ff00ff"
     x="338.92801"
     y="298.41699"
     font-size="15px"
     text-anchor="start"
     dy="0"
     font-family="Helvetica"
     id="text258"
     style="font-size:36px">13</text>
  <text
     fill="#ff00ff"
     x="317.552"
     y="471.13199"
     font-size="15px"
     text-anchor="start"
     dy="0"
     font-family="Helvetica"
     id="text260"
     style="fill:#ff0000;fill-opacity:1;font-size:36px">2</text>
  <text
     fill="#ff00ff"
     x="317.552"
     y="471.13199"
     font-size="15px"
     text-anchor="start"
     dy="0"
     font-family="Helvetica"
     id="text262"
     style="fill:#ff0000;fill-opacity:1;font-size:36px">2</text>
  <text
     fill="#008b8b"
     x="345.939"
     y="613.84399"
     font-size="15px"
     text-anchor="start"
     dy="0"
     font-family="Helvetica"
     id="text264"
     style="font-size:36px">33</text>
  <text
     fill="#008b8b"
     x="345.939"
     y="613.84399"
     font-size="15px"
     text-anchor="start"
     dy="0"
     font-family="Helvetica"
     id="text266"
     style="font-size:36px">33</text>
  <text
     fill="#008b8b"
     x="426.77899"
     y="734.83002"
     font-size="15px"
     text-anchor="start"
     dy="0"
     font-family="Helvetica"
     id="text268"
     style="font-size:36px">34</text>
  <text
     fill="#008b8b"
     x="426.77899"
     y="734.83002"
     font-size="15px"
     text-anchor="start"
     dy="0"
     font-family="Helvetica"
     id="text270"
     style="font-size:36px">34</text>
  <text
     fill="#008b8b"
     x="547.76398"
     y="815.66998"
     font-size="15px"
     text-anchor="start"
     dy="0"
     font-family="Helvetica"
     id="text272"
     style="font-size:36px">35</text>
  <text
     fill="#008b8b"
     x="547.76398"
     y="815.66998"
     font-size="15px"
     text-anchor="start"
     dy="0"
     font-family="Helvetica"
     id="text274"
     style="font-size:36px">35</text>
  <text
     fill="#ff00ff"
     x="690.47601"
     y="844.05701"
     font-size="15px"
     text-anchor="start"
     dy="0"
     font-family="Helvetica"
     id="text276"
     style="fill:#ff0000;fill-opacity:1;font-size:36px">1</text>
  <text
     fill="#5a5a5a"
     x="988.52698"
     y="553.85498"
     font-size="15px"
     text-anchor="start"
     dy="0"
     font-family="Helvetica"
     id="text278"
     style="font-size:36px">14</text>
  <text
     fill="#5a5a5a"
     x="801.02899"
     y="308.11301"
     font-size="15px"
     text-anchor="start"
     dy="0"
     font-family="Helvetica"
     id="text280"
     style="font-size:36px">15</text>
  <text
     fill="#5a5a5a"
     x="1056.79"
     y="298.25699"
     font-size="15px"
     text-anchor="start"
     dy="0"
     font-family="Helvetica"
     id="text282"
     style="font-size:36px">16</text>
  <text
     fill="#5a5a5a"
     x="931.60101"
     y="305.47699"
     font-size="15px"
     text-anchor="start"
     dy="0"
     font-family="Helvetica"
     id="text284"
     style="font-size:36px">17</text>
  <text
     fill="#5a5a5a"
     x="643.70398"
     y="706.271"
     font-size="15px"
     text-anchor="start"
     dy="0"
     font-family="Helvetica"
     id="text286"
     style="font-size:36px">18</text>
  <text
     fill="#5a5a5a"
     x="455.33801"
     y="517.90399"
     font-size="15px"
     text-anchor="start"
     dy="0"
     font-family="Helvetica"
     id="text288"
     style="font-size:36px">19</text>
  <text
     fill="#5a5a5a"
     x="923.53198"
     y="698.14697"
     font-size="15px"
     text-anchor="start"
     dy="0"
     font-family="Helvetica"
     id="text290"
     style="font-size:36px">20</text>
  <text
     fill="#5a5a5a"
     x="1125.71"
     y="547.10602"
     font-size="15px"
     text-anchor="start"
     dy="0"
     font-family="Helvetica"
     id="text292"
     style="font-size:36px">21</text>
  <text
     fill="#5a5a5a"
     x="565.76202"
     y="385.68399"
     font-size="15px"
     text-anchor="start"
     dy="0"
     font-family="Helvetica"
     id="text294"
     style="font-size:36px">22</text>
  <text
     fill="#5a5a5a"
     x="717.26001"
     y="416.87299"
     font-size="15px"
     text-anchor="start"
     dy="0"
     font-family="Helvetica"
     id="text296"
     style="font-size:36px">23</text>
  <text
     fill="#5a5a5a"
     x="612.92798"
     y="523.96002"
     font-size="15px"
     text-anchor="start"
     dy="0"
     font-family="Helvetica"
     id="text298"
     style="font-size:36px">24</text>
  <text
     fill="#5a5a5a"
     x="793.33301"
     y="585.13702"
     font-size="15px"
     text-anchor="start"
     dy="0"
     font-family="Helvetica"
     id="text300"
     style="font-size:36px">25</text>
  <text
     fill="#5a5a5a"
     x="877.03302"
     y="440.42001"
     font-size="15px"
     text-anchor="start"
     dy="0"
     font-family="Helvetica"
     id="text302"
     style="font-size:36px">26</text>
  <text
     fill="#5a5a5a"
     x="786.716"
     y="734.55603"
     font-size="15px"
     text-anchor="start"
     dy="0"
     font-family="Helvetica"
     id="text304"
     style="font-size:36px">27</text>
  <text
     fill="#5a5a5a"
     x="523.50598"
     y="637.03003"
     font-size="15px"
     text-anchor="start"
     dy="0"
     font-family="Helvetica"
     id="text306"
     style="font-size:36px">28</text>
  <text
     fill="#5a5a5a"
     x="1024.46"
     y="422.63199"
     font-size="15px"
     text-anchor="start"
     dy="0"
     font-family="Helvetica"
     id="text308"
     style="font-size:36px">29</text>
  <text
     fill="#5a5a5a"
     x="1166.02"
     y="405.04401"
     font-size="15px"
     text-anchor="start"
     dy="0"
     font-family="Helvetica"
     id="text310"
     style="font-size:36px">30</text>
  <text
     fill="#5a5a5a"
     x="435.51401"
     y="376.81601"
     font-size="15px"
     text-anchor="start"
     dy="0"
     font-family="Helvetica"
     id="text312"
     style="font-size:36px">31</text>
  <text
     fill="#5a5a5a"
     x="1067.0601"
     y="666.86298"
     font-size="15px"
     text-anchor="start"
     dy="0"
     font-family="Helvetica"
     id="text314"
     style="font-size:36px">32</text>
  <g
     ns2:version="1.8.2"
     ns2:texconverter="xelatex"
     ns2:pdfconverter="inkscape"
     ns2:text="$\\Gamma_D$"
     ns2:preamble="/usr/share/inkscape/extensions/textext/default_packages.tex"
     ns2:scale="0.75"
     ns2:alignment="middle center"
     ns2:stroke-to-path="0"
     ns2:inkscapeversion="1.2.2"
     transform="matrix(5.9116784,0,0,5.9116784,205.32294,744.44239)"
     ns2:jacobian_sqrt="0.75"
     id="g1092">
    <defs
       id="id-cf897b74-8873-43a1-8cd2-dfee73aa752d">
      <g
         id="g2721">
        <symbol
           overflow="visible"
           id="symbol2707">
          <path
             style="stroke:none;stroke-width:0"
             d=""
             id="path2705" />
        </symbol>
        <symbol
           overflow="visible"
           id="symbol2711">
          <path
             style="stroke:none;stroke-width:0"
             d="m 5.515625,-6.78125 h -5.1875 v 0.3125 H 0.5625 c 0.765625,0 0.796875,0.109375 0.796875,0.46875 v 5.21875 c 0,0.359375 -0.03125,0.46875 -0.796875,0.46875 H 0.328125 V 0 c 0.34375,-0.03125 1.125,-0.03125 1.515625,-0.03125 0.40625,0 1.3125,0 1.671875,0.03125 V -0.3125 H 3.1875 C 2.25,-0.3125 2.25,-0.4375 2.25,-0.78125 v -5.296875 c 0,-0.328125 0.015625,-0.390625 0.484375,-0.390625 h 1.03125 c 1.421875,0 1.625,0.59375 1.78125,1.9375 h 0.25 z m 0,0"
             id="path2709" />
        </symbol>
        <symbol
           overflow="visible"
           id="symbol2715">
          <path
             style="stroke:none;stroke-width:0"
             d=""
             id="path2713" />
        </symbol>
        <symbol
           overflow="visible"
           id="symbol2719">
          <path
             style="stroke:none;stroke-width:0"
             d="M 1.3125,-0.546875 C 1.265625,-0.3125 1.25,-0.25 0.703125,-0.25 0.578125,-0.25 0.5,-0.25 0.5,-0.09375 0.5,0 0.578125,0 0.703125,0 H 3.1875 c 1.546875,0 3.03125,-1.421875 3.03125,-2.9375 0,-1.015625 -0.703125,-1.828125 -1.828125,-1.828125 H 1.84375 c -0.140625,0 -0.21875,0 -0.21875,0.15625 0,0.09375 0.078125,0.09375 0.234375,0.09375 0.109375,0 0.140625,0 0.265625,0.015625 0.140625,0.015625 0.140625,0.03125 0.140625,0.109375 0,0 0,0.046875 -0.015625,0.140625 z m 1.5625,-3.71875 c 0.0625,-0.21875 0.0625,-0.25 0.359375,-0.25 H 4.125 c 0.78125,0 1.4375,0.390625 1.4375,1.34375 0,0.15625 -0.078125,1.359375 -0.765625,2.15625 C 4.515625,-0.703125 3.921875,-0.25 3.0625,-0.25 H 2.125 c -0.21875,0 -0.234375,-0.015625 -0.234375,-0.078125 0,0 0,-0.03125 0.03125,-0.140625 z m 0,0"
             id="path2717" />
        </symbol>
      </g>
    </defs>
    <g
       id="id-e97d177f-baad-477c-a9f1-6856b31325b0"
       transform="translate(-149.04,-127.984)">
      <g
         style="fill:#000000;fill-opacity:1"
         id="id-40565aaa-4eb0-4d68-ab94-52d07afc58be">
        <g
           transform="translate(148.712,134.765)"
           id="g1084">
          <path
             style="stroke:none;stroke-width:0"
             d="m 5.515625,-6.78125 h -5.1875 v 0.3125 H 0.5625 c 0.765625,0 0.796875,0.109375 0.796875,0.46875 v 5.21875 c 0,0.359375 -0.03125,0.46875 -0.796875,0.46875 H 0.328125 V 0 c 0.34375,-0.03125 1.125,-0.03125 1.515625,-0.03125 0.40625,0 1.3125,0 1.671875,0.03125 V -0.3125 H 3.1875 C 2.25,-0.3125 2.25,-0.4375 2.25,-0.78125 v -5.296875 c 0,-0.328125 0.015625,-0.390625 0.484375,-0.390625 h 1.03125 c 1.421875,0 1.625,0.59375 1.78125,1.9375 h 0.25 z m 0,0"
             id="id-231e9b83-671b-42f3-a951-e031cbcc6af0" />
        </g>
      </g>
      <g
         style="fill:#000000;fill-opacity:1"
         id="id-67501df5-855c-483d-84ad-f78a4c7f51f7">
        <g
           transform="translate(154.939,136.259)"
           id="g1088">
          <path
             style="stroke:none;stroke-width:0"
             d="M 1.3125,-0.546875 C 1.265625,-0.3125 1.25,-0.25 0.703125,-0.25 0.578125,-0.25 0.5,-0.25 0.5,-0.09375 0.5,0 0.578125,0 0.703125,0 H 3.1875 c 1.546875,0 3.03125,-1.421875 3.03125,-2.9375 0,-1.015625 -0.703125,-1.828125 -1.828125,-1.828125 H 1.84375 c -0.140625,0 -0.21875,0 -0.21875,0.15625 0,0.09375 0.078125,0.09375 0.234375,0.09375 0.109375,0 0.140625,0 0.265625,0.015625 0.140625,0.015625 0.140625,0.03125 0.140625,0.109375 0,0 0,0.046875 -0.015625,0.140625 z m 1.5625,-3.71875 c 0.0625,-0.21875 0.0625,-0.25 0.359375,-0.25 H 4.125 c 0.78125,0 1.4375,0.390625 1.4375,1.34375 0,0.15625 -0.078125,1.359375 -0.765625,2.15625 C 4.515625,-0.703125 3.921875,-0.25 3.0625,-0.25 H 2.125 c -0.21875,0 -0.234375,-0.015625 -0.234375,-0.078125 0,0 0,-0.03125 0.03125,-0.140625 z m 0,0"
             id="id-e0531fb5-e9f7-4272-b0a9-0d12bea4c26f" />
        </g>
      </g>
    </g>
  </g>
  <g
     ns2:version="1.8.2"
     ns2:texconverter="xelatex"
     ns2:pdfconverter="inkscape"
     ns2:text="$\\Gamma_N$"
     ns2:preamble="/usr/share/inkscape/extensions/textext/default_packages.tex"
     ns2:scale="5.9116784"
     ns2:alignment="middle center"
     ns2:stroke-to-path="0"
     ns2:inkscapeversion="1.2.2"
     transform="matrix(5.91168,0,0,5.91168,1173.6545,130.08096)"
     ns2:jacobian_sqrt="5.91168"
     id="g1201">
    <defs
       id="id-928d5160-14a3-4dad-af5b-760fb66f07ab">
      <g
         id="g2748">
        <symbol
           overflow="visible"
           id="symbol2734">
          <path
             style="stroke:none"
             d=""
             id="path2732" />
        </symbol>
        <symbol
           overflow="visible"
           id="symbol2738">
          <path
             style="stroke:none"
             d="m 5.515625,-6.78125 h -5.1875 v 0.3125 H 0.5625 c 0.765625,0 0.796875,0.109375 0.796875,0.46875 v 5.21875 c 0,0.359375 -0.03125,0.46875 -0.796875,0.46875 H 0.328125 V 0 c 0.34375,-0.03125 1.125,-0.03125 1.515625,-0.03125 0.40625,0 1.3125,0 1.671875,0.03125 V -0.3125 H 3.1875 C 2.25,-0.3125 2.25,-0.4375 2.25,-0.78125 v -5.296875 c 0,-0.328125 0.015625,-0.390625 0.484375,-0.390625 h 1.03125 c 1.421875,0 1.625,0.59375 1.78125,1.9375 h 0.25 z m 0,0"
             id="path2736" />
        </symbol>
        <symbol
           overflow="visible"
           id="symbol2742">
          <path
             style="stroke:none"
             d=""
             id="path2740" />
        </symbol>
        <symbol
           overflow="visible"
           id="symbol2746">
          <path
             style="stroke:none"
             d="M 5.8125,-4 C 5.875,-4.265625 6,-4.5 6.546875,-4.515625 c 0.03125,0 0.140625,0 0.140625,-0.140625 0,-0.046875 -0.03125,-0.109375 -0.109375,-0.109375 -0.21875,0 -0.484375,0.03125 -0.71875,0.03125 -0.171875,0 -0.5625,-0.03125 -0.734375,-0.03125 -0.03125,0 -0.140625,0 -0.140625,0.15625 0,0.09375 0.09375,0.09375 0.15625,0.09375 0.328125,0.015625 0.4375,0.125 0.4375,0.296875 0,0.046875 0,0.09375 -0.03125,0.15625 l -0.75,3.046875 -1.765625,-3.625 c -0.0625,-0.125 -0.078125,-0.125 -0.25,-0.125 H 1.828125 c -0.125,0 -0.21875,0 -0.21875,0.15625 0,0.09375 0.078125,0.09375 0.234375,0.09375 0.140625,0 0.296875,0.015625 0.4375,0.046875 L 1.359375,-0.75 c -0.0625,0.265625 -0.1875,0.484375 -0.734375,0.5 -0.046875,0 -0.140625,0 -0.140625,0.140625 C 0.484375,-0.03125 0.53125,0 0.578125,0 0.8125,0 1.078125,-0.03125 1.3125,-0.03125 1.484375,-0.03125 1.875,0 2.046875,0 2.125,0 2.1875,-0.03125 2.1875,-0.140625 2.1875,-0.25 2.109375,-0.25 2.03125,-0.25 c -0.4375,-0.015625 -0.4375,-0.203125 -0.4375,-0.296875 0,-0.03125 0,-0.0625 0.015625,-0.171875 l 0.90625,-3.5625 2.03125,4.15625 C 4.59375,0 4.625,0 4.703125,0 4.8125,0 4.8125,-0.015625 4.84375,-0.140625 Z m 0,0"
             id="path2744" />
        </symbol>
      </g>
    </defs>
    <g
       id="id-0e87c6aa-3de6-4c8e-805b-c47e073693b9"
       transform="translate(-149.04,-127.984)">
      <g
         style="fill:#000000;fill-opacity:1"
         id="id-fa13d51b-3f21-4f32-a74f-ae73fde10283">
        <g
           transform="translate(148.712,134.765)"
           id="g1461">
          <path
             style="stroke:none"
             d="m 5.515625,-6.78125 h -5.1875 v 0.3125 H 0.5625 c 0.765625,0 0.796875,0.109375 0.796875,0.46875 v 5.21875 c 0,0.359375 -0.03125,0.46875 -0.796875,0.46875 H 0.328125 V 0 c 0.34375,-0.03125 1.125,-0.03125 1.515625,-0.03125 0.40625,0 1.3125,0 1.671875,0.03125 V -0.3125 H 3.1875 C 2.25,-0.3125 2.25,-0.4375 2.25,-0.78125 v -5.296875 c 0,-0.328125 0.015625,-0.390625 0.484375,-0.390625 h 1.03125 c 1.421875,0 1.625,0.59375 1.78125,1.9375 h 0.25 z m 0,0"
             id="id-9f95638c-17f2-49e3-a4c7-bd9c4e9a1461" />
        </g>
      </g>
      <g
         style="fill:#000000;fill-opacity:1"
         id="id-9fc42b20-3b6d-4183-89a7-1ade50e7180c">
        <g
           transform="translate(154.939,136.259)"
           id="g1465">
          <path
             style="stroke:none"
             d="M 5.8125,-4 C 5.875,-4.265625 6,-4.5 6.546875,-4.515625 c 0.03125,0 0.140625,0 0.140625,-0.140625 0,-0.046875 -0.03125,-0.109375 -0.109375,-0.109375 -0.21875,0 -0.484375,0.03125 -0.71875,0.03125 -0.171875,0 -0.5625,-0.03125 -0.734375,-0.03125 -0.03125,0 -0.140625,0 -0.140625,0.15625 0,0.09375 0.09375,0.09375 0.15625,0.09375 0.328125,0.015625 0.4375,0.125 0.4375,0.296875 0,0.046875 0,0.09375 -0.03125,0.15625 l -0.75,3.046875 -1.765625,-3.625 c -0.0625,-0.125 -0.078125,-0.125 -0.25,-0.125 H 1.828125 c -0.125,0 -0.21875,0 -0.21875,0.15625 0,0.09375 0.078125,0.09375 0.234375,0.09375 0.140625,0 0.296875,0.015625 0.4375,0.046875 L 1.359375,-0.75 c -0.0625,0.265625 -0.1875,0.484375 -0.734375,0.5 -0.046875,0 -0.140625,0 -0.140625,0.140625 C 0.484375,-0.03125 0.53125,0 0.578125,0 0.8125,0 1.078125,-0.03125 1.3125,-0.03125 1.484375,-0.03125 1.875,0 2.046875,0 2.125,0 2.1875,-0.03125 2.1875,-0.140625 2.1875,-0.25 2.109375,-0.25 2.03125,-0.25 c -0.4375,-0.015625 -0.4375,-0.203125 -0.4375,-0.296875 0,-0.03125 0,-0.0625 0.015625,-0.171875 l 0.90625,-3.5625 2.03125,4.15625 C 4.59375,0 4.625,0 4.703125,0 4.8125,0 4.8125,-0.015625 4.84375,-0.140625 Z m 0,0"
             id="id-3ad34555-fe4b-409a-9695-1e5071051ce5" />
        </g>
      </g>
    </g>
  </g>
  <g
     ns2:version="1.8.2"
     ns2:texconverter="xelatex"
     ns2:pdfconverter="inkscape"
     ns2:text="$U$"
     ns2:preamble="/usr/share/inkscape/extensions/textext/default_packages.tex"
     ns2:scale="5.9116784"
     ns2:alignment="middle center"
     ns2:stroke-to-path="0"
     ns2:inkscapeversion="1.2.2"
     transform="matrix(5.91168,0,0,5.91168,1293.6589,817.07853)"
     ns2:jacobian_sqrt="5.91168"
     id="g1523">
    <defs
       id="id-14a3e9a4-b367-49b7-b5fa-19f0e2b18734">
      <g
         id="g2767">
        <symbol
           overflow="visible"
           id="symbol2761">
          <path
             style="stroke:none"
             d=""
             id="path2759" />
        </symbol>
        <symbol
           overflow="visible"
           id="symbol2765">
          <path
             style="stroke:none"
             d="M 6.328125,-5.765625 C 6.4375,-6.171875 6.609375,-6.46875 7.40625,-6.5 c 0.046875,0 0.171875,-0.015625 0.171875,-0.203125 0,0 0,-0.109375 -0.125,-0.109375 -0.328125,0 -0.6875,0.03125 -1.015625,0.03125 -0.34375,0 -0.71875,-0.03125 -1.046875,-0.03125 -0.0625,0 -0.171875,0 -0.171875,0.203125 C 5.21875,-6.5 5.3125,-6.5 5.390625,-6.5 c 0.578125,0.015625 0.6875,0.21875 0.6875,0.4375 0,0.03125 -0.03125,0.1875 -0.03125,0.203125 l -0.90625,3.5625 C 4.8125,-0.953125 3.65625,-0.09375 2.65625,-0.09375 c -0.671875,0 -1.203125,-0.4375 -1.203125,-1.296875 0,-0.015625 0,-0.328125 0.109375,-0.765625 L 2.515625,-6.046875 C 2.609375,-6.40625 2.625,-6.5 3.359375,-6.5 c 0.265625,0 0.34375,0 0.34375,-0.203125 0,-0.109375 -0.109375,-0.109375 -0.140625,-0.109375 -0.28125,0 -1,0.03125 -1.28125,0.03125 -0.28125,0 -1,-0.03125 -1.28125,-0.03125 -0.078125,0 -0.1875,0 -0.1875,0.203125 C 0.8125,-6.5 0.890625,-6.5 1.09375,-6.5 c 0.015625,0 0.203125,0 0.375,0.015625 0.171875,0.03125 0.265625,0.03125 0.265625,0.171875 0,0.046875 -0.109375,0.46875 -0.171875,0.703125 l -0.21875,0.875 C 1.25,-4.34375 0.78125,-2.46875 0.734375,-2.265625 0.671875,-2 0.671875,-1.84375 0.671875,-1.6875 c 0,1.203125 0.90625,1.90625 1.953125,1.90625 1.25,0 2.484375,-1.125 2.8125,-2.4375 z m 0,0"
             id="path2763" />
        </symbol>
      </g>
    </defs>
    <g
       id="id-20fed17a-ac88-4088-86aa-76b32702191c"
       transform="translate(-149.384,-127.953)">
      <g
         style="fill:#000000;fill-opacity:1"
         id="id-618e5667-e023-4755-b6bf-e9ae57389b80">
        <g
           transform="translate(148.712,134.765)"
           id="g1815">
          <path
             style="stroke:none"
             d="M 6.328125,-5.765625 C 6.4375,-6.171875 6.609375,-6.46875 7.40625,-6.5 c 0.046875,0 0.171875,-0.015625 0.171875,-0.203125 0,0 0,-0.109375 -0.125,-0.109375 -0.328125,0 -0.6875,0.03125 -1.015625,0.03125 -0.34375,0 -0.71875,-0.03125 -1.046875,-0.03125 -0.0625,0 -0.171875,0 -0.171875,0.203125 C 5.21875,-6.5 5.3125,-6.5 5.390625,-6.5 c 0.578125,0.015625 0.6875,0.21875 0.6875,0.4375 0,0.03125 -0.03125,0.1875 -0.03125,0.203125 l -0.90625,3.5625 C 4.8125,-0.953125 3.65625,-0.09375 2.65625,-0.09375 c -0.671875,0 -1.203125,-0.4375 -1.203125,-1.296875 0,-0.015625 0,-0.328125 0.109375,-0.765625 L 2.515625,-6.046875 C 2.609375,-6.40625 2.625,-6.5 3.359375,-6.5 c 0.265625,0 0.34375,0 0.34375,-0.203125 0,-0.109375 -0.109375,-0.109375 -0.140625,-0.109375 -0.28125,0 -1,0.03125 -1.28125,0.03125 -0.28125,0 -1,-0.03125 -1.28125,-0.03125 -0.078125,0 -0.1875,0 -0.1875,0.203125 C 0.8125,-6.5 0.890625,-6.5 1.09375,-6.5 c 0.015625,0 0.203125,0 0.375,0.015625 0.171875,0.03125 0.265625,0.03125 0.265625,0.171875 0,0.046875 -0.109375,0.46875 -0.171875,0.703125 l -0.21875,0.875 C 1.25,-4.34375 0.78125,-2.46875 0.734375,-2.265625 0.671875,-2 0.671875,-1.84375 0.671875,-1.6875 c 0,1.203125 0.90625,1.90625 1.953125,1.90625 1.25,0 2.484375,-1.125 2.8125,-2.4375 z m 0,0"
             id="id-8917f057-0043-447e-ac97-348e446d1c3d" />
        </g>
      </g>
    </g>
  </g>
  <path
     style="fill:none;stroke:#000000;stroke-width:0.75px;stroke-linecap:butt;stroke-linejoin:miter;stroke-opacity:1"
     d="m 293.84566,785.73425 c 0,0 37.71557,14.97998 62.18169,14.31435 24.46612,-0.66563 79.7938,-23.00198 79.7938,-23.00198"
     id="path1886"
     sodipodi:nodetypes="czc" />
  <path
     style="fill:none;stroke:#000000;stroke-width:0.75px;stroke-linecap:butt;stroke-linejoin:miter;stroke-opacity:1"
     d="m 1211.1299,185.23943 c 0,0 -4.9967,68.57056 14.2361,70.38227 19.2328,1.81171 -7.1283,-43.3769 16.661,-40.8317 23.7893,2.5452 17.2418,97.9444 17.2418,97.9444"
     id="path1935"
     sodipodi:nodetypes="czzc" />
  <path
     style="fill:none;stroke:#000000;stroke-width:0.75px;stroke-linecap:butt;stroke-linejoin:miter;stroke-opacity:1"
     d="m 866.29613,613.52545 c 0,0 87.73668,114.08034 157.72487,154.35354 69.9882,40.2732 254.2663,70.29278 254.2663,70.29278"
     id="path6118"
     sodipodi:nodetypes="czc" />
</svg>
