<?xml version="1.0" encoding="UTF-8" standalone="no"?>
<svg
   width="1627pt"
   height="1001pt"
   viewBox="0 0 1627 1001"
   version="1.1"
   id="svg14"
   sodipodi:docname="dominio-pelado.svg"
   inkscape:version="1.2.2 (b0a8486541, 2022-12-01)"
   xmlns:inkscape="http://www.inkscape.org/namespaces/inkscape"
   xmlns:sodipodi="http://sodipodi.sourceforge.net/DTD/sodipodi-0.dtd"
   xmlns="http://www.w3.org/2000/svg"
   xmlns:svg="http://www.w3.org/2000/svg"
   xmlns:ns2="http://www.iki.fi/pav/software/textext/">
  <sodipodi:namedview
     id="namedview16"
     pagecolor="#ffffff"
     bordercolor="#666666"
     borderopacity="1.0"
     inkscape:showpageshadow="2"
     inkscape:pageopacity="0.0"
     inkscape:pagecheckerboard="0"
     inkscape:deskcolor="#d1d1d1"
     inkscape:document-units="pt"
     showgrid="false"
     inkscape:zoom="0.42765401"
     inkscape:cx="966.90313"
     inkscape:cy="526.12625"
     inkscape:window-width="1920"
     inkscape:window-height="1051"
     inkscape:window-x="1920"
     inkscape:window-y="0"
     inkscape:window-maximized="1"
     inkscape:current-layer="svg14" />
  <title
     id="title2">dominio-pelado</title>
  <desc
     id="desc4">
Creator: GL2PS 1.4.3, (C) 1999-2020 C. Geuzaine
For: Gmsh
CreationDate: Sat Jul  1 13:15:06 2023
</desc>
  <defs
     id="defs6">
    <marker
       style="overflow:visible"
       id="Arrow2"
       refX="0"
       refY="0"
       orient="auto-start-reverse"
       inkscape:stockid="Arrow2"
       markerWidth="7.6999998"
       markerHeight="5.5999999"
       viewBox="0 0 7.7 5.6"
       inkscape:isstock="true"
       inkscape:collect="always"
       preserveAspectRatio="xMidYMid">
      <path
         transform="scale(0.7)"
         d="M -2,-4 9,0 -2,4 c 2,-2.33 2,-5.66 0,-8 z"
         style="fill:context-stroke;fill-rule:evenodd;stroke:none"
         id="arrow2L" />
    </marker>
    <g
       id="id-abffc9fd-87a3-44d9-8e8e-58a9a458d33b">
      <symbol
         overflow="visible"
         id="id-8c288c84-625f-4f24-826a-16ee88cf1ac3">
        <path
           style="stroke:none;stroke-width:0"
           d=""
           id="id-3b75a4ec-3158-481e-ba26-a98b450a6b04" />
      </symbol>
      <symbol
         overflow="visible"
         id="id-3cf8e244-db54-402b-82a8-5d7eb5a03f09">
        <path
           style="stroke:none;stroke-width:0"
           d="m 5.515625,-6.78125 h -5.1875 v 0.3125 H 0.5625 c 0.765625,0 0.796875,0.109375 0.796875,0.46875 v 5.21875 c 0,0.359375 -0.03125,0.46875 -0.796875,0.46875 H 0.328125 V 0 c 0.34375,-0.03125 1.125,-0.03125 1.515625,-0.03125 0.40625,0 1.3125,0 1.671875,0.03125 V -0.3125 H 3.1875 C 2.25,-0.3125 2.25,-0.4375 2.25,-0.78125 v -5.296875 c 0,-0.328125 0.015625,-0.390625 0.484375,-0.390625 h 1.03125 c 1.421875,0 1.625,0.59375 1.78125,1.9375 h 0.25 z m 0,0"
           id="id-664cdac3-bc9e-4ef3-a99f-d92bccc5b449" />
      </symbol>
      <symbol
         overflow="visible"
         id="id-cb0f1797-ffa6-469f-8541-921970557cf1">
        <path
           style="stroke:none;stroke-width:0"
           d=""
           id="id-164fa330-ee29-44b2-97a5-17afdc0fd8c5" />
      </symbol>
      <symbol
         overflow="visible"
         id="id-183e3dde-3481-4af6-93ea-d2e75621b25b">
        <path
           style="stroke:none;stroke-width:0"
           d="M 1.3125,-0.546875 C 1.265625,-0.3125 1.25,-0.25 0.703125,-0.25 0.578125,-0.25 0.5,-0.25 0.5,-0.09375 0.5,0 0.578125,0 0.703125,0 H 3.1875 c 1.546875,0 3.03125,-1.421875 3.03125,-2.9375 0,-1.015625 -0.703125,-1.828125 -1.828125,-1.828125 H 1.84375 c -0.140625,0 -0.21875,0 -0.21875,0.15625 0,0.09375 0.078125,0.09375 0.234375,0.09375 0.109375,0 0.140625,0 0.265625,0.015625 0.140625,0.015625 0.140625,0.03125 0.140625,0.109375 0,0 0,0.046875 -0.015625,0.140625 z m 1.5625,-3.71875 c 0.0625,-0.21875 0.0625,-0.25 0.359375,-0.25 H 4.125 c 0.78125,0 1.4375,0.390625 1.4375,1.34375 0,0.15625 -0.078125,1.359375 -0.765625,2.15625 C 4.515625,-0.703125 3.921875,-0.25 3.0625,-0.25 H 2.125 c -0.21875,0 -0.234375,-0.015625 -0.234375,-0.078125 0,0 0,-0.03125 0.03125,-0.140625 z m 0,0"
           id="id-69beb0e7-c1fc-4284-aab5-a15f6ab54080" />
      </symbol>
    </g>
    <g
       id="id-a0449123-b8be-4289-bd89-78a0cc2f70b4">
      <symbol
         overflow="visible"
         id="id-e0c4372a-8742-4f16-8a63-a16e1a8d9cb0">
        <path
           style="stroke:none"
           d=""
           id="id-173a17cb-9004-4c8b-a316-f84fac614430" />
      </symbol>
      <symbol
         overflow="visible"
         id="id-6f596ad6-af8d-4689-b813-2ac0846a1644">
        <path
           style="stroke:none"
           d="m 5.515625,-6.78125 h -5.1875 v 0.3125 H 0.5625 c 0.765625,0 0.796875,0.109375 0.796875,0.46875 v 5.21875 c 0,0.359375 -0.03125,0.46875 -0.796875,0.46875 H 0.328125 V 0 c 0.34375,-0.03125 1.125,-0.03125 1.515625,-0.03125 0.40625,0 1.3125,0 1.671875,0.03125 V -0.3125 H 3.1875 C 2.25,-0.3125 2.25,-0.4375 2.25,-0.78125 v -5.296875 c 0,-0.328125 0.015625,-0.390625 0.484375,-0.390625 h 1.03125 c 1.421875,0 1.625,0.59375 1.78125,1.9375 h 0.25 z m 0,0"
           id="id-69e6a479-c582-4f96-9875-166745bd91df" />
      </symbol>
      <symbol
         overflow="visible"
         id="id-f2422e49-42c3-4353-855a-e57df9e456dd">
        <path
           style="stroke:none"
           d=""
           id="id-1c210919-242e-4f3f-9741-616cce27625a" />
      </symbol>
      <symbol
         overflow="visible"
         id="id-75192963-3f3e-4124-bc60-6a0394fb5a5b">
        <path
           style="stroke:none"
           d="M 5.8125,-4 C 5.875,-4.265625 6,-4.5 6.546875,-4.515625 c 0.03125,0 0.140625,0 0.140625,-0.140625 0,-0.046875 -0.03125,-0.109375 -0.109375,-0.109375 -0.21875,0 -0.484375,0.03125 -0.71875,0.03125 -0.171875,0 -0.5625,-0.03125 -0.734375,-0.03125 -0.03125,0 -0.140625,0 -0.140625,0.15625 0,0.09375 0.09375,0.09375 0.15625,0.09375 0.328125,0.015625 0.4375,0.125 0.4375,0.296875 0,0.046875 0,0.09375 -0.03125,0.15625 l -0.75,3.046875 -1.765625,-3.625 c -0.0625,-0.125 -0.078125,-0.125 -0.25,-0.125 H 1.828125 c -0.125,0 -0.21875,0 -0.21875,0.15625 0,0.09375 0.078125,0.09375 0.234375,0.09375 0.140625,0 0.296875,0.015625 0.4375,0.046875 L 1.359375,-0.75 c -0.0625,0.265625 -0.1875,0.484375 -0.734375,0.5 -0.046875,0 -0.140625,0 -0.140625,0.140625 C 0.484375,-0.03125 0.53125,0 0.578125,0 0.8125,0 1.078125,-0.03125 1.3125,-0.03125 1.484375,-0.03125 1.875,0 2.046875,0 2.125,0 2.1875,-0.03125 2.1875,-0.140625 2.1875,-0.25 2.109375,-0.25 2.03125,-0.25 c -0.4375,-0.015625 -0.4375,-0.203125 -0.4375,-0.296875 0,-0.03125 0,-0.0625 0.015625,-0.171875 l 0.90625,-3.5625 2.03125,4.15625 C 4.59375,0 4.625,0 4.703125,0 4.8125,0 4.8125,-0.015625 4.84375,-0.140625 Z m 0,0"
           id="id-8897bf21-2917-4f20-86f7-9a2e66d769c5" />
      </symbol>
    </g>
    <g
       id="id-089d1589-7526-4b39-9631-1c743c71ae87">
      <symbol
         overflow="visible"
         id="id-006acdba-ceb6-44a4-be9e-b06c631b6442">
        <path
           style="stroke:none"
           d=""
           id="id-ac4e2ab2-a7c0-4610-86d4-e1d247e40c97" />
      </symbol>
      <symbol
         overflow="visible"
         id="id-e0eda2a1-efb2-414a-b24f-0d3be8b63840">
        <path
           style="stroke:none"
           d="M 6.328125,-5.765625 C 6.4375,-6.171875 6.609375,-6.46875 7.40625,-6.5 c 0.046875,0 0.171875,-0.015625 0.171875,-0.203125 0,0 0,-0.109375 -0.125,-0.109375 -0.328125,0 -0.6875,0.03125 -1.015625,0.03125 -0.34375,0 -0.71875,-0.03125 -1.046875,-0.03125 -0.0625,0 -0.171875,0 -0.171875,0.203125 C 5.21875,-6.5 5.3125,-6.5 5.390625,-6.5 c 0.578125,0.015625 0.6875,0.21875 0.6875,0.4375 0,0.03125 -0.03125,0.1875 -0.03125,0.203125 l -0.90625,3.5625 C 4.8125,-0.953125 3.65625,-0.09375 2.65625,-0.09375 c -0.671875,0 -1.203125,-0.4375 -1.203125,-1.296875 0,-0.015625 0,-0.328125 0.109375,-0.765625 L 2.515625,-6.046875 C 2.609375,-6.40625 2.625,-6.5 3.359375,-6.5 c 0.265625,0 0.34375,0 0.34375,-0.203125 0,-0.109375 -0.109375,-0.109375 -0.140625,-0.109375 -0.28125,0 -1,0.03125 -1.28125,0.03125 -0.28125,0 -1,-0.03125 -1.28125,-0.03125 -0.078125,0 -0.1875,0 -0.1875,0.203125 C 0.8125,-6.5 0.890625,-6.5 1.09375,-6.5 c 0.015625,0 0.203125,0 0.375,0.015625 0.171875,0.03125 0.265625,0.03125 0.265625,0.171875 0,0.046875 -0.109375,0.46875 -0.171875,0.703125 l -0.21875,0.875 C 1.25,-4.34375 0.78125,-2.46875 0.734375,-2.265625 0.671875,-2 0.671875,-1.84375 0.671875,-1.6875 c 0,1.203125 0.90625,1.90625 1.953125,1.90625 1.25,0 2.484375,-1.125 2.8125,-2.4375 z m 0,0"
           id="id-4021ccb2-31fa-47a3-8dca-6a8399ae7bc0" />
      </symbol>
    </g>
  </defs>
  <g
     id="g12"
     style="stroke-width:6;stroke-dasharray:none">
    <polyline
       fill="none"
       stroke="#ff00ff"
       stroke-width="2"
       stroke-linecap="butt"
       stroke-linejoin="miter"
       points="681.789,858 687.423,858.034 693.034,858.134 698.626,858.294 704.199,858.508 709.756,858.772 715.298,859.08 720.827,859.426 726.345,859.806 731.854,860.215 737.355,860.646 742.85,861.095 748.341,861.556 753.83,862.025 759.318,862.495 764.807,862.961 770.299,863.419 775.796,863.863 781.299,864.287 786.811,864.686 792.332,865.056 797.866,865.39 803.412,865.684 808.974,865.932 814.554,866.128 820.152,866.269 825.77,866.347 831.411,866.359 837.076,866.298 842.767,866.159 848.486,865.938 854.234,865.628 860.013,865.225 865.825,864.723 871.671,864.117 877.555,863.402 883.476,862.572 889.437,861.622 895.44,860.547 901.487,859.341 907.579,858 913.752,856.588 920.035,855.171 926.422,853.743 932.905,852.299 939.478,850.834 946.133,849.342 952.863,847.819 959.661,846.259 966.521,844.656 973.434,843.006 980.395,841.303 987.396,839.542 994.429,837.717 1001.49,835.823 1008.57,833.856 1015.66,831.808 1022.75,829.677 1029.84,827.455 1036.93,825.138 1043.99,822.72 1051.04,820.197 1058.05,817.563 1065.02,814.812 1071.95,811.939 1078.83,808.939 1085.65,805.807 1092.41,802.538 1099.09,799.125 1105.69,795.565 1112.2,791.851 1118.62,787.978 1124.94,783.941 1131.15,779.735 1137.24,775.354 1143.22,770.793 1149.06,766.047 1154.77,761.111 1160.33,755.978 1165.74,750.645 1171,745.105 1176.27,739.298 1181.7,733.176 1187.28,726.753 1193,720.043 1198.82,713.06 1204.73,705.818 1210.72,698.332 1216.76,690.615 1222.83,682.682 1228.92,674.546 1235,666.222 1241.05,657.725 1247.06,649.067 1253.01,640.264 1258.87,631.329 1264.63,622.276 1270.26,613.12 1275.76,603.874 1281.09,594.553 1286.25,585.171 1291.2,575.742 1295.93,566.28 1300.43,556.799 1304.67,547.314 1308.63,537.838 1312.29,528.385 1315.64,518.97 1318.65,509.607 1321.3,500.309 1323.58,491.092 1325.47,481.969 1326.95,472.954 1327.99,464.061 1328.58,455.304 1328.69,446.699 1328.32,438.257 1327.43,429.995 1326.02,421.925 1324.06,414.063 1321.53,406.421 1318.34,398.827 1314.46,391.105 1309.91,383.271 1304.72,375.337 1298.93,367.319 1292.55,359.231 1285.62,351.086 1278.17,342.899 1270.24,334.683 1261.84,326.454 1253.02,318.224 1243.8,310.009 1234.21,301.822 1224.27,293.677 1214.03,285.588 1203.51,277.571 1192.74,269.637 1181.76,261.803 1170.58,254.081 1159.24,246.487 1147.77,239.033 1136.21,231.735 1124.57,224.606 1112.9,217.661 1101.21,210.913 1089.55,204.377 1077.94,198.067 1066.4,191.996 1054.98,186.18 1043.7,180.632 1032.59,175.366 1021.68,170.396 1011,165.737 1000.58,161.402 990.449,157.406 980.641,153.763 971.182,150.486 962.105,147.591 953.437,145.091 945.211,143 937.261,141.397 929.403,140.333 921.636,139.784 913.958,139.726 906.366,140.134 898.86,140.982 891.438,142.247 884.097,143.903 876.836,145.926 869.653,148.292 862.547,150.975 855.516,153.951 848.557,157.195 841.67,160.682 834.852,164.388 828.101,168.288 821.416,172.358 814.796,176.572 808.238,180.906 801.74,185.336 795.301,189.835 788.919,194.381 782.593,198.948 776.32,203.512 770.099,208.047 763.927,212.529 757.804,216.934 751.728,221.236 745.696,225.411 739.707,229.435 733.759,233.282 727.851,236.928 721.98,240.349 716.145,243.519 710.344,246.413 704.575,249.008 698.837,251.278 693.128,253.199 687.446,254.746 681.789,255.895 676.191,256.697 670.683,257.231 665.263,257.511 659.926,257.551 654.668,257.365 649.487,256.967 644.38,256.372 639.341,255.594 634.368,254.646 629.458,253.543 624.607,252.299 619.81,250.927 615.066,249.443 610.369,247.86 605.718,246.193 601.107,244.455 596.535,242.66 591.996,240.823 587.488,238.958 583.007,237.079 578.549,235.2 574.111,233.335 569.69,231.498 565.282,229.703 560.883,227.965 556.49,226.297 552.1,224.715 547.708,223.231 543.312,221.859 538.907,220.615 534.491,219.512 530.059,218.564 525.608,217.786 521.136,217.191 516.637,216.793 512.109,216.607 507.548,216.647 502.95,216.927 498.313,217.461 493.632,218.263 488.87,219.285 484,220.467 479.03,221.803 473.969,223.287 468.826,224.915 463.609,226.681 458.327,228.58 452.989,230.606 447.605,232.755 442.182,235.021 436.73,237.399 431.257,239.883 425.773,242.468 420.285,245.149 414.804,247.92 409.337,250.777 403.893,253.714 398.482,256.725 393.113,259.806 387.793,262.951 382.532,266.154 377.338,269.411 372.221,272.717 367.189,276.065 362.252,279.451 357.417,282.87 352.694,286.315 348.091,289.782 343.618,293.266 339.283,296.76 335.095,300.261 331.063,303.762 327.196,307.259 323.502,310.745 319.99,314.216 316.669,317.667 313.548,321.092 310.636,324.485 307.942,327.843 305.474,331.158 303.238,334.474 301.228,337.835 299.436,341.24 297.853,344.686 296.47,348.173 295.278,351.698 294.268,355.259 293.432,358.855 292.76,362.484 292.244,366.143 291.875,369.833 291.644,373.55 291.543,377.293 291.562,381.06 291.693,384.849 291.926,388.659 292.254,392.488 292.667,396.333 293.157,400.194 293.714,404.069 294.33,407.955 294.996,411.852 295.703,415.756 296.442,419.667 297.205,423.583 297.983,427.502 298.766,431.422 299.547,435.341 300.315,439.258 301.064,443.171 301.783,447.078 302.463,450.977 303.097,454.867 303.674,458.745 304.187,462.611 304.627,466.462 304.984,470.297 305.25,474.113 305.416,477.91 305.474,481.684"
       id="polyline8"
       style="stroke-width:6;stroke-dasharray:none" />
    <polyline
       fill="none"
       stroke="#008b8b"
       stroke-width="2"
       stroke-linecap="butt"
       stroke-linejoin="miter"
       points="305.474,481.684 305.546,489.073 305.764,496.458 306.126,503.838 306.634,511.21 307.286,518.57 308.082,525.915 309.023,533.244 310.107,540.553 311.334,547.839 312.704,555.1 314.217,562.332 315.871,569.533 317.667,576.701 319.602,583.832 321.678,590.923 323.892,597.972 326.244,604.977 328.733,611.934 331.359,618.84 334.119,625.694 337.013,632.492 340.041,639.232 343.2,645.912 346.49,652.528 349.909,659.078 353.455,665.56 357.129,671.971 360.928,678.309 364.85,684.57 368.894,690.754 373.059,696.857 377.344,702.877 381.745,708.812 386.262,714.659 390.893,720.416 395.637,726.082 400.49,731.653 405.452,737.128 410.521,742.504 415.694,747.78 420.97,752.953 426.346,758.021 431.821,762.983 437.392,767.837 443.057,772.58 448.815,777.211 454.662,781.729 460.597,786.13 466.617,790.414 472.72,794.579 478.903,798.624 485.165,802.546 491.503,806.345 497.914,810.018 504.395,813.565 510.946,816.984 517.562,820.274 524.241,823.433 530.981,826.46 537.78,829.355 544.633,832.115 551.54,834.74 558.497,837.23 565.501,839.582 572.551,841.796 579.642,843.871 586.773,845.807 593.94,847.602 601.142,849.257 608.374,850.769 615.635,852.139 622.921,853.367 630.23,854.451 637.558,855.392 644.904,856.188 652.264,856.84 659.635,857.347 667.015,857.71 674.401,857.927 681.789,858"
       id="polyline10"
       style="stroke-width:6;stroke-dasharray:none" />
  </g>
  <g
     ns2:version="1.8.2"
     ns2:texconverter="xelatex"
     ns2:pdfconverter="inkscape"
     ns2:text="$\\Gamma_D$"
     ns2:preamble="/usr/share/inkscape/extensions/textext/default_packages.tex"
     ns2:scale="0.75"
     ns2:alignment="middle center"
     ns2:stroke-to-path="0"
     ns2:inkscapeversion="1.2.2"
     transform="matrix(5.9116784,0,0,5.9116784,205.32294,744.44239)"
     ns2:jacobian_sqrt="0.75"
     id="g1092">
    <defs
       id="id-cf897b74-8873-43a1-8cd2-dfee73aa752d">
      <g
         id="g3300">
        <symbol
           overflow="visible"
           id="symbol3286">
          <path
             style="stroke:none;stroke-width:0"
             d=""
             id="path3284" />
        </symbol>
        <symbol
           overflow="visible"
           id="symbol3290">
          <path
             style="stroke:none;stroke-width:0"
             d="m 5.515625,-6.78125 h -5.1875 v 0.3125 H 0.5625 c 0.765625,0 0.796875,0.109375 0.796875,0.46875 v 5.21875 c 0,0.359375 -0.03125,0.46875 -0.796875,0.46875 H 0.328125 V 0 c 0.34375,-0.03125 1.125,-0.03125 1.515625,-0.03125 0.40625,0 1.3125,0 1.671875,0.03125 V -0.3125 H 3.1875 C 2.25,-0.3125 2.25,-0.4375 2.25,-0.78125 v -5.296875 c 0,-0.328125 0.015625,-0.390625 0.484375,-0.390625 h 1.03125 c 1.421875,0 1.625,0.59375 1.78125,1.9375 h 0.25 z m 0,0"
             id="path3288" />
        </symbol>
        <symbol
           overflow="visible"
           id="symbol3294">
          <path
             style="stroke:none;stroke-width:0"
             d=""
             id="path3292" />
        </symbol>
        <symbol
           overflow="visible"
           id="symbol3298">
          <path
             style="stroke:none;stroke-width:0"
             d="M 1.3125,-0.546875 C 1.265625,-0.3125 1.25,-0.25 0.703125,-0.25 0.578125,-0.25 0.5,-0.25 0.5,-0.09375 0.5,0 0.578125,0 0.703125,0 H 3.1875 c 1.546875,0 3.03125,-1.421875 3.03125,-2.9375 0,-1.015625 -0.703125,-1.828125 -1.828125,-1.828125 H 1.84375 c -0.140625,0 -0.21875,0 -0.21875,0.15625 0,0.09375 0.078125,0.09375 0.234375,0.09375 0.109375,0 0.140625,0 0.265625,0.015625 0.140625,0.015625 0.140625,0.03125 0.140625,0.109375 0,0 0,0.046875 -0.015625,0.140625 z m 1.5625,-3.71875 c 0.0625,-0.21875 0.0625,-0.25 0.359375,-0.25 H 4.125 c 0.78125,0 1.4375,0.390625 1.4375,1.34375 0,0.15625 -0.078125,1.359375 -0.765625,2.15625 C 4.515625,-0.703125 3.921875,-0.25 3.0625,-0.25 H 2.125 c -0.21875,0 -0.234375,-0.015625 -0.234375,-0.078125 0,0 0,-0.03125 0.03125,-0.140625 z m 0,0"
             id="path3296" />
        </symbol>
      </g>
    </defs>
    <g
       id="id-e97d177f-baad-477c-a9f1-6856b31325b0"
       transform="translate(-149.04,-127.984)">
      <g
         style="fill:#000000;fill-opacity:1"
         id="id-40565aaa-4eb0-4d68-ab94-52d07afc58be">
        <g
           transform="translate(148.712,134.765)"
           id="g1084">
          <path
             style="stroke:none;stroke-width:0"
             d="m 5.515625,-6.78125 h -5.1875 v 0.3125 H 0.5625 c 0.765625,0 0.796875,0.109375 0.796875,0.46875 v 5.21875 c 0,0.359375 -0.03125,0.46875 -0.796875,0.46875 H 0.328125 V 0 c 0.34375,-0.03125 1.125,-0.03125 1.515625,-0.03125 0.40625,0 1.3125,0 1.671875,0.03125 V -0.3125 H 3.1875 C 2.25,-0.3125 2.25,-0.4375 2.25,-0.78125 v -5.296875 c 0,-0.328125 0.015625,-0.390625 0.484375,-0.390625 h 1.03125 c 1.421875,0 1.625,0.59375 1.78125,1.9375 h 0.25 z m 0,0"
             id="id-231e9b83-671b-42f3-a951-e031cbcc6af0" />
        </g>
      </g>
      <g
         style="fill:#000000;fill-opacity:1"
         id="id-67501df5-855c-483d-84ad-f78a4c7f51f7">
        <g
           transform="translate(154.939,136.259)"
           id="g1088">
          <path
             style="stroke:none;stroke-width:0"
             d="M 1.3125,-0.546875 C 1.265625,-0.3125 1.25,-0.25 0.703125,-0.25 0.578125,-0.25 0.5,-0.25 0.5,-0.09375 0.5,0 0.578125,0 0.703125,0 H 3.1875 c 1.546875,0 3.03125,-1.421875 3.03125,-2.9375 0,-1.015625 -0.703125,-1.828125 -1.828125,-1.828125 H 1.84375 c -0.140625,0 -0.21875,0 -0.21875,0.15625 0,0.09375 0.078125,0.09375 0.234375,0.09375 0.109375,0 0.140625,0 0.265625,0.015625 0.140625,0.015625 0.140625,0.03125 0.140625,0.109375 0,0 0,0.046875 -0.015625,0.140625 z m 1.5625,-3.71875 c 0.0625,-0.21875 0.0625,-0.25 0.359375,-0.25 H 4.125 c 0.78125,0 1.4375,0.390625 1.4375,1.34375 0,0.15625 -0.078125,1.359375 -0.765625,2.15625 C 4.515625,-0.703125 3.921875,-0.25 3.0625,-0.25 H 2.125 c -0.21875,0 -0.234375,-0.015625 -0.234375,-0.078125 0,0 0,-0.03125 0.03125,-0.140625 z m 0,0"
             id="id-e0531fb5-e9f7-4272-b0a9-0d12bea4c26f" />
        </g>
      </g>
    </g>
  </g>
  <g
     ns2:version="1.8.2"
     ns2:texconverter="xelatex"
     ns2:pdfconverter="inkscape"
     ns2:text="$\\Gamma_N$"
     ns2:preamble="/usr/share/inkscape/extensions/textext/default_packages.tex"
     ns2:scale="5.9116784"
     ns2:alignment="middle center"
     ns2:stroke-to-path="0"
     ns2:inkscapeversion="1.2.2"
     transform="matrix(5.91168,0,0,5.91168,1173.6545,130.08096)"
     ns2:jacobian_sqrt="5.91168"
     id="g1201">
    <defs
       id="id-928d5160-14a3-4dad-af5b-760fb66f07ab">
      <g
         id="g3327">
        <symbol
           overflow="visible"
           id="symbol3313">
          <path
             style="stroke:none"
             d=""
             id="path3311" />
        </symbol>
        <symbol
           overflow="visible"
           id="symbol3317">
          <path
             style="stroke:none"
             d="m 5.515625,-6.78125 h -5.1875 v 0.3125 H 0.5625 c 0.765625,0 0.796875,0.109375 0.796875,0.46875 v 5.21875 c 0,0.359375 -0.03125,0.46875 -0.796875,0.46875 H 0.328125 V 0 c 0.34375,-0.03125 1.125,-0.03125 1.515625,-0.03125 0.40625,0 1.3125,0 1.671875,0.03125 V -0.3125 H 3.1875 C 2.25,-0.3125 2.25,-0.4375 2.25,-0.78125 v -5.296875 c 0,-0.328125 0.015625,-0.390625 0.484375,-0.390625 h 1.03125 c 1.421875,0 1.625,0.59375 1.78125,1.9375 h 0.25 z m 0,0"
             id="path3315" />
        </symbol>
        <symbol
           overflow="visible"
           id="symbol3321">
          <path
             style="stroke:none"
             d=""
             id="path3319" />
        </symbol>
        <symbol
           overflow="visible"
           id="symbol3325">
          <path
             style="stroke:none"
             d="M 5.8125,-4 C 5.875,-4.265625 6,-4.5 6.546875,-4.515625 c 0.03125,0 0.140625,0 0.140625,-0.140625 0,-0.046875 -0.03125,-0.109375 -0.109375,-0.109375 -0.21875,0 -0.484375,0.03125 -0.71875,0.03125 -0.171875,0 -0.5625,-0.03125 -0.734375,-0.03125 -0.03125,0 -0.140625,0 -0.140625,0.15625 0,0.09375 0.09375,0.09375 0.15625,0.09375 0.328125,0.015625 0.4375,0.125 0.4375,0.296875 0,0.046875 0,0.09375 -0.03125,0.15625 l -0.75,3.046875 -1.765625,-3.625 c -0.0625,-0.125 -0.078125,-0.125 -0.25,-0.125 H 1.828125 c -0.125,0 -0.21875,0 -0.21875,0.15625 0,0.09375 0.078125,0.09375 0.234375,0.09375 0.140625,0 0.296875,0.015625 0.4375,0.046875 L 1.359375,-0.75 c -0.0625,0.265625 -0.1875,0.484375 -0.734375,0.5 -0.046875,0 -0.140625,0 -0.140625,0.140625 C 0.484375,-0.03125 0.53125,0 0.578125,0 0.8125,0 1.078125,-0.03125 1.3125,-0.03125 1.484375,-0.03125 1.875,0 2.046875,0 2.125,0 2.1875,-0.03125 2.1875,-0.140625 2.1875,-0.25 2.109375,-0.25 2.03125,-0.25 c -0.4375,-0.015625 -0.4375,-0.203125 -0.4375,-0.296875 0,-0.03125 0,-0.0625 0.015625,-0.171875 l 0.90625,-3.5625 2.03125,4.15625 C 4.59375,0 4.625,0 4.703125,0 4.8125,0 4.8125,-0.015625 4.84375,-0.140625 Z m 0,0"
             id="path3323" />
        </symbol>
      </g>
    </defs>
    <g
       id="id-0e87c6aa-3de6-4c8e-805b-c47e073693b9"
       transform="translate(-149.04,-127.984)">
      <g
         style="fill:#000000;fill-opacity:1"
         id="id-fa13d51b-3f21-4f32-a74f-ae73fde10283">
        <g
           transform="translate(148.712,134.765)"
           id="g1461">
          <path
             style="stroke:none"
             d="m 5.515625,-6.78125 h -5.1875 v 0.3125 H 0.5625 c 0.765625,0 0.796875,0.109375 0.796875,0.46875 v 5.21875 c 0,0.359375 -0.03125,0.46875 -0.796875,0.46875 H 0.328125 V 0 c 0.34375,-0.03125 1.125,-0.03125 1.515625,-0.03125 0.40625,0 1.3125,0 1.671875,0.03125 V -0.3125 H 3.1875 C 2.25,-0.3125 2.25,-0.4375 2.25,-0.78125 v -5.296875 c 0,-0.328125 0.015625,-0.390625 0.484375,-0.390625 h 1.03125 c 1.421875,0 1.625,0.59375 1.78125,1.9375 h 0.25 z m 0,0"
             id="id-9f95638c-17f2-49e3-a4c7-bd9c4e9a1461" />
        </g>
      </g>
      <g
         style="fill:#000000;fill-opacity:1"
         id="id-9fc42b20-3b6d-4183-89a7-1ade50e7180c">
        <g
           transform="translate(154.939,136.259)"
           id="g1465">
          <path
             style="stroke:none"
             d="M 5.8125,-4 C 5.875,-4.265625 6,-4.5 6.546875,-4.515625 c 0.03125,0 0.140625,0 0.140625,-0.140625 0,-0.046875 -0.03125,-0.109375 -0.109375,-0.109375 -0.21875,0 -0.484375,0.03125 -0.71875,0.03125 -0.171875,0 -0.5625,-0.03125 -0.734375,-0.03125 -0.03125,0 -0.140625,0 -0.140625,0.15625 0,0.09375 0.09375,0.09375 0.15625,0.09375 0.328125,0.015625 0.4375,0.125 0.4375,0.296875 0,0.046875 0,0.09375 -0.03125,0.15625 l -0.75,3.046875 -1.765625,-3.625 c -0.0625,-0.125 -0.078125,-0.125 -0.25,-0.125 H 1.828125 c -0.125,0 -0.21875,0 -0.21875,0.15625 0,0.09375 0.078125,0.09375 0.234375,0.09375 0.140625,0 0.296875,0.015625 0.4375,0.046875 L 1.359375,-0.75 c -0.0625,0.265625 -0.1875,0.484375 -0.734375,0.5 -0.046875,0 -0.140625,0 -0.140625,0.140625 C 0.484375,-0.03125 0.53125,0 0.578125,0 0.8125,0 1.078125,-0.03125 1.3125,-0.03125 1.484375,-0.03125 1.875,0 2.046875,0 2.125,0 2.1875,-0.03125 2.1875,-0.140625 2.1875,-0.25 2.109375,-0.25 2.03125,-0.25 c -0.4375,-0.015625 -0.4375,-0.203125 -0.4375,-0.296875 0,-0.03125 0,-0.0625 0.015625,-0.171875 l 0.90625,-3.5625 2.03125,4.15625 C 4.59375,0 4.625,0 4.703125,0 4.8125,0 4.8125,-0.015625 4.84375,-0.140625 Z m 0,0"
             id="id-3ad34555-fe4b-409a-9695-1e5071051ce5" />
        </g>
      </g>
    </g>
  </g>
  <g
     ns2:version="1.8.2"
     ns2:texconverter="xelatex"
     ns2:pdfconverter="inkscape"
     ns2:text="$U$"
     ns2:preamble="/usr/share/inkscape/extensions/textext/default_packages.tex"
     ns2:scale="5.9116784"
     ns2:alignment="middle center"
     ns2:stroke-to-path="0"
     ns2:inkscapeversion="1.2.2"
     transform="matrix(5.91168,0,0,5.91168,1293.6589,817.07853)"
     ns2:jacobian_sqrt="5.91168"
     id="g1523">
    <defs
       id="id-14a3e9a4-b367-49b7-b5fa-19f0e2b18734">
      <g
         id="g3346">
        <symbol
           overflow="visible"
           id="symbol3340">
          <path
             style="stroke:none"
             d=""
             id="path3338" />
        </symbol>
        <symbol
           overflow="visible"
           id="symbol3344">
          <path
             style="stroke:none"
             d="M 6.328125,-5.765625 C 6.4375,-6.171875 6.609375,-6.46875 7.40625,-6.5 c 0.046875,0 0.171875,-0.015625 0.171875,-0.203125 0,0 0,-0.109375 -0.125,-0.109375 -0.328125,0 -0.6875,0.03125 -1.015625,0.03125 -0.34375,0 -0.71875,-0.03125 -1.046875,-0.03125 -0.0625,0 -0.171875,0 -0.171875,0.203125 C 5.21875,-6.5 5.3125,-6.5 5.390625,-6.5 c 0.578125,0.015625 0.6875,0.21875 0.6875,0.4375 0,0.03125 -0.03125,0.1875 -0.03125,0.203125 l -0.90625,3.5625 C 4.8125,-0.953125 3.65625,-0.09375 2.65625,-0.09375 c -0.671875,0 -1.203125,-0.4375 -1.203125,-1.296875 0,-0.015625 0,-0.328125 0.109375,-0.765625 L 2.515625,-6.046875 C 2.609375,-6.40625 2.625,-6.5 3.359375,-6.5 c 0.265625,0 0.34375,0 0.34375,-0.203125 0,-0.109375 -0.109375,-0.109375 -0.140625,-0.109375 -0.28125,0 -1,0.03125 -1.28125,0.03125 -0.28125,0 -1,-0.03125 -1.28125,-0.03125 -0.078125,0 -0.1875,0 -0.1875,0.203125 C 0.8125,-6.5 0.890625,-6.5 1.09375,-6.5 c 0.015625,0 0.203125,0 0.375,0.015625 0.171875,0.03125 0.265625,0.03125 0.265625,0.171875 0,0.046875 -0.109375,0.46875 -0.171875,0.703125 l -0.21875,0.875 C 1.25,-4.34375 0.78125,-2.46875 0.734375,-2.265625 0.671875,-2 0.671875,-1.84375 0.671875,-1.6875 c 0,1.203125 0.90625,1.90625 1.953125,1.90625 1.25,0 2.484375,-1.125 2.8125,-2.4375 z m 0,0"
             id="path3342" />
        </symbol>
      </g>
    </defs>
    <g
       id="id-20fed17a-ac88-4088-86aa-76b32702191c"
       transform="translate(-149.384,-127.953)">
      <g
         style="fill:#000000;fill-opacity:1"
         id="id-618e5667-e023-4755-b6bf-e9ae57389b80">
        <g
           transform="translate(148.712,134.765)"
           id="g1815">
          <path
             style="stroke:none"
             d="M 6.328125,-5.765625 C 6.4375,-6.171875 6.609375,-6.46875 7.40625,-6.5 c 0.046875,0 0.171875,-0.015625 0.171875,-0.203125 0,0 0,-0.109375 -0.125,-0.109375 -0.328125,0 -0.6875,0.03125 -1.015625,0.03125 -0.34375,0 -0.71875,-0.03125 -1.046875,-0.03125 -0.0625,0 -0.171875,0 -0.171875,0.203125 C 5.21875,-6.5 5.3125,-6.5 5.390625,-6.5 c 0.578125,0.015625 0.6875,0.21875 0.6875,0.4375 0,0.03125 -0.03125,0.1875 -0.03125,0.203125 l -0.90625,3.5625 C 4.8125,-0.953125 3.65625,-0.09375 2.65625,-0.09375 c -0.671875,0 -1.203125,-0.4375 -1.203125,-1.296875 0,-0.015625 0,-0.328125 0.109375,-0.765625 L 2.515625,-6.046875 C 2.609375,-6.40625 2.625,-6.5 3.359375,-6.5 c 0.265625,0 0.34375,0 0.34375,-0.203125 0,-0.109375 -0.109375,-0.109375 -0.140625,-0.109375 -0.28125,0 -1,0.03125 -1.28125,0.03125 -0.28125,0 -1,-0.03125 -1.28125,-0.03125 -0.078125,0 -0.1875,0 -0.1875,0.203125 C 0.8125,-6.5 0.890625,-6.5 1.09375,-6.5 c 0.015625,0 0.203125,0 0.375,0.015625 0.171875,0.03125 0.265625,0.03125 0.265625,0.171875 0,0.046875 -0.109375,0.46875 -0.171875,0.703125 l -0.21875,0.875 C 1.25,-4.34375 0.78125,-2.46875 0.734375,-2.265625 0.671875,-2 0.671875,-1.84375 0.671875,-1.6875 c 0,1.203125 0.90625,1.90625 1.953125,1.90625 1.25,0 2.484375,-1.125 2.8125,-2.4375 z m 0,0"
             id="id-8917f057-0043-447e-ac97-348e446d1c3d" />
        </g>
      </g>
    </g>
  </g>
  <path
     style="fill:none;stroke:#000000;stroke-width:0.75px;stroke-linecap:butt;stroke-linejoin:miter;stroke-opacity:1"
     d="m 293.84566,785.73425 c 0,0 37.71557,14.97998 62.18169,14.31435 24.46612,-0.66563 79.7938,-23.00198 79.7938,-23.00198"
     id="path1886"
     sodipodi:nodetypes="czc" />
  <path
     style="fill:none;stroke:#000000;stroke-width:0.75px;stroke-linecap:butt;stroke-linejoin:miter;stroke-opacity:1"
     d="m 1211.1299,185.23943 c 0,0 -4.9967,68.57056 14.2361,70.38227 19.2328,1.81171 -7.1283,-43.3769 16.661,-40.8317 23.7893,2.5452 17.2418,97.9444 17.2418,97.9444"
     id="path1935"
     sodipodi:nodetypes="czzc" />
  <path
     style="fill:none;stroke:#000000;stroke-width:0.75px;stroke-linecap:butt;stroke-linejoin:miter;stroke-opacity:1"
     d="m 866.29613,613.52545 c 0,0 87.73668,114.08034 157.72487,154.35354 69.9882,40.2732 254.2663,70.29278 254.2663,70.29278"
     id="path6118"
     sodipodi:nodetypes="czc" />
  <path
     style="fill:none;stroke:#000000;stroke-width:3;stroke-linecap:butt;stroke-linejoin:miter;stroke-opacity:1;marker-end:url(#Arrow2);stroke-dasharray:none"
     d="M 378.88912,268.67896 325.60757,202.26208"
     id="path918" />
  <g
     ns2:version="1.8.2"
     ns2:texconverter="xelatex"
     ns2:pdfconverter="inkscape"
     ns2:text="$\\hat{\\mathbf{n}}$"
     ns2:preamble="/usr/share/inkscape/extensions/textext/default_packages.tex"
     ns2:scale="5.9116784"
     ns2:alignment="middle center"
     ns2:stroke-to-path="0"
     ns2:inkscapeversion="1.2.2"
     transform="matrix(5.91168,0,0,5.91168,279.5685,131.78264)"
     ns2:jacobian_sqrt="5.91168"
     id="g1269">
    <defs
       id="id-2086b382-a980-4974-81b4-0a874dffac92">
      <g
         id="id-5ccde140-82cd-4233-b903-e41602c7caef">
        <symbol
           overflow="visible"
           id="id-ff48e00e-1221-4850-96ff-1aa40ed3873e">
          <path
             style="stroke:none"
             d=""
             id="id-e3b61634-14cf-4782-bacf-2cd19446bb8c" />
        </symbol>
        <symbol
           overflow="visible"
           id="id-4ee86b4b-a0fe-463e-b1d4-9cfd3393cf73">
          <path
             style="stroke:none"
             d="M 2.5,-6.921875 1.15625,-5.5625 1.328125,-5.390625 2.5,-6.40625 3.640625,-5.390625 3.8125,-5.5625 Z m 0,0"
             id="id-75d02406-77aa-43f3-92bd-77570b7b778d" />
        </symbol>
        <symbol
           overflow="visible"
           id="id-d7bd98fe-d281-4450-bd10-25a7a243e605">
          <path
             style="stroke:none"
             d=""
             id="id-65cc04c1-ac7f-4395-b3bc-bd06bb120631" />
        </symbol>
        <symbol
           overflow="visible"
           id="id-1460f0b4-5ac2-45ec-81ef-5418ad500a61">
          <path
             style="stroke:none"
             d="m 1.140625,-3.546875 v 3.078125 h -0.6875 V 0 c 0.28125,-0.015625 0.875,-0.03125 1.25,-0.03125 0.390625,0 0.984375,0.015625 1.25,0.03125 v -0.46875 h -0.6875 v -2.078125 c 0,-1.09375 0.859375,-1.578125 1.5,-1.578125 0.328125,0 0.546875,0.203125 0.546875,0.96875 v 2.6875 H 3.625 V 0 c 0.265625,-0.015625 0.875,-0.03125 1.25,-0.03125 0.390625,0 0.984375,0.015625 1.25,0.03125 V -0.46875 H 5.4375 v -2.578125 c 0,-1.046875 -0.53125,-1.4375 -1.53125,-1.4375 -0.953125,0 -1.484375,0.5625 -1.75,1.078125 V -4.484375 L 0.453125,-4.40625 v 0.46875 c 0.609375,0 0.6875,0 0.6875,0.390625 z m 0,0"
             id="id-929f67db-d06e-4dad-b0a2-2a1f4f833920" />
        </symbol>
      </g>
    </defs>
    <g
       id="id-88d2f2b2-9a43-4bb0-9a6c-5ff421037859"
       transform="translate(-149.165,-127.704)">
      <g
         style="fill:#000000;fill-opacity:1"
         id="id-2cf516de-9a84-4efb-a8b1-44a19ca909b7">
        <g
           transform="translate(149.404,134.626)"
           id="g2873">
          <path
             style="stroke:none"
             d="M 2.5,-6.921875 1.15625,-5.5625 1.328125,-5.390625 2.5,-6.40625 3.640625,-5.390625 3.8125,-5.5625 Z m 0,0"
             id="id-6e104bee-06f9-4e64-b342-677177a286fd" />
        </g>
      </g>
      <g
         style="fill:#000000;fill-opacity:1"
         id="id-3b2619e7-8b20-443b-9998-5706ef172b35">
        <g
           transform="translate(148.712,134.765)"
           id="g2877">
          <path
             style="stroke:none"
             d="m 1.140625,-3.546875 v 3.078125 h -0.6875 V 0 c 0.28125,-0.015625 0.875,-0.03125 1.25,-0.03125 0.390625,0 0.984375,0.015625 1.25,0.03125 v -0.46875 h -0.6875 v -2.078125 c 0,-1.09375 0.859375,-1.578125 1.5,-1.578125 0.328125,0 0.546875,0.203125 0.546875,0.96875 v 2.6875 H 3.625 V 0 c 0.265625,-0.015625 0.875,-0.03125 1.25,-0.03125 0.390625,0 0.984375,0.015625 1.25,0.03125 V -0.46875 H 5.4375 v -2.578125 c 0,-1.046875 -0.53125,-1.4375 -1.53125,-1.4375 -0.953125,0 -1.484375,0.5625 -1.75,1.078125 V -4.484375 L 0.453125,-4.40625 v 0.46875 c 0.609375,0 0.6875,0 0.6875,0.390625 z m 0,0"
             id="id-04a21263-6db9-47c1-8db3-9ac621274fcc" />
        </g>
      </g>
    </g>
  </g>
</svg>
