<?xml version="1.0" encoding="UTF-8" standalone="no"?>
<svg
   width="648.57397"
   height="564.12103"
   viewBox="0 0 648.57397 564.12103"
   version="1.1"
   id="svg204"
   sodipodi:docname="lats6-nice.svg"
   inkscape:version="1.2.2 (b0a8486541, 2022-12-01)"
   xmlns:inkscape="http://www.inkscape.org/namespaces/inkscape"
   xmlns:sodipodi="http://sodipodi.sourceforge.net/DTD/sodipodi-0.dtd"
   xmlns="http://www.w3.org/2000/svg"
   xmlns:svg="http://www.w3.org/2000/svg"
   xmlns:rdf="http://www.w3.org/1999/02/22-rdf-syntax-ns#"
   xmlns:cc="http://creativecommons.org/ns#"
   xmlns:dc="http://purl.org/dc/elements/1.1/">
  <sodipodi:namedview
     id="namedview206"
     pagecolor="#ffffff"
     bordercolor="#666666"
     borderopacity="1.0"
     inkscape:showpageshadow="2"
     inkscape:pageopacity="0.0"
     inkscape:pagecheckerboard="0"
     inkscape:deskcolor="#d1d1d1"
     showgrid="false"
     inkscape:zoom="0.94994312"
     inkscape:cx="326.33533"
     inkscape:cy="222.11856"
     inkscape:window-width="1920"
     inkscape:window-height="1015"
     inkscape:window-x="0"
     inkscape:window-y="0"
     inkscape:window-maximized="1"
     inkscape:current-layer="svg204" />
  <title
     id="title2">lats6</title>
  <desc
     id="desc4">
Creator: GL2PS 1.3.9, (C) 1999-2015 C. Geuzaine
For: Gmsh
CreationDate: Fri Jan 15 19:57:55 2016
</desc>
  <defs
     id="defs8">
    <marker
       orient="auto"
       refY="0"
       refX="0"
       id="Arrow2Mend"
       style="overflow:visible">
      <path
         id="path3864"
         fill="#3333cc"
         style="fill-rule:evenodd;stroke-width:0.625;stroke-linejoin:round"
         d="M 8.7185878,4.0337352 -2.2072895,0.01601326 8.7185884,-4.0017078 c -1.7454984,2.3720609 -1.7354408,5.6174519 -6e-7,8.035443 z"
         transform="scale(-0.6)" />
    </marker>
  </defs>
  <defs
     id="defs10" />
  <g
     shape-rendering="crispEdges"
     id="g202"
     transform="translate(-179.733,-218.015)">
    <circle
       fill="#5a5a5a"
       cx="361.298"
       cy="697.44897"
       r="0.5"
       id="circle12" />
    <circle
       fill="#5a5a5a"
       cx="200.243"
       cy="774.28699"
       r="0.5"
       id="circle14" />
    <circle
       fill="#5a5a5a"
       cx="803.79303"
       cy="725.41602"
       r="0.5"
       id="circle16" />
    <circle
       fill="#5a5a5a"
       cx="361.298"
       cy="233.71001"
       r="0.5"
       id="circle18" />
    <circle
       fill="#5a5a5a"
       cx="436.34"
       cy="295.888"
       r="0.5"
       id="circle20" />
    <circle
       fill="#5a5a5a"
       cx="318.35501"
       cy="717.93701"
       r="0.5"
       id="circle22" />
    <circle
       fill="#5a5a5a"
       cx="744.83002"
       cy="744.89099"
       r="0.5"
       id="circle24" />
    <circle
       fill="#5a5a5a"
       cx="318.35501"
       cy="270.98599"
       r="0.5"
       id="circle26" />
    <circle
       fill="#5a5a5a"
       cx="479.28299"
       cy="704.90601"
       r="0.5"
       id="circle28" />
    <circle
       fill="#5a5a5a"
       cx="479.28299"
       cy="257.95599"
       r="0.5"
       id="circle30" />
    <circle
       fill="#5a5a5a"
       cx="324.05899"
       cy="778.96301"
       r="0.5"
       id="circle32" />
    <circle
       fill="#5a5a5a"
       cx="361.298"
       cy="267.94299"
       r="0.5"
       id="circle34" />
    <circle
       fill="#5a5a5a"
       cx="528.15399"
       cy="278.48901"
       r="0.5"
       id="circle36" />
    <circle
       fill="#5a5a5a"
       cx="300.56799"
       cy="296.91699"
       r="0.5"
       id="circle38" />
    <circle
       fill="#5a5a5a"
       cx="619.91901"
       cy="420.95499"
       r="0.5"
       id="circle40" />
    <circle
       fill="#5a5a5a"
       cx="318.35501"
       cy="717.93701"
       r="0.5"
       id="circle42" />
    <circle
       fill="#5a5a5a"
       cx="744.83002"
       cy="744.89099"
       r="0.5"
       id="circle44" />
    <circle
       fill="#5a5a5a"
       cx="318.35501"
       cy="270.98599"
       r="0.5"
       id="circle46" />
    <circle
       fill="#5a5a5a"
       cx="662.86102"
       cy="716.50897"
       r="0.5"
       id="circle48" />
    <circle
       fill="#5a5a5a"
       cx="662.86102"
       cy="377.13901"
       r="0.5"
       id="circle50" />
    <circle
       fill="#5a5a5a"
       cx="545"
       cy="772.73999"
       r="0.5"
       id="circle52" />
    <circle
       fill="#5a5a5a"
       cx="361.298"
       cy="381.40701"
       r="0.5"
       id="circle54" />
    <circle
       fill="#5a5a5a"
       cx="685.12"
       cy="401.87399"
       r="0.5"
       id="circle56" />
    <circle
       fill="#5a5a5a"
       cx="243.436"
       cy="437.638"
       r="0.5"
       id="circle58" />
    <circle
       fill="#5a5a5a"
       cx="369.52301"
       cy="441.23001"
       r="0.5"
       id="circle60" />
    <circle
       fill="#5a5a5a"
       cx="251.53799"
       cy="749.815"
       r="0.5"
       id="circle62" />
    <circle
       fill="#5a5a5a"
       cx="575.35999"
       cy="770.28101"
       r="0.5"
       id="circle64" />
    <circle
       fill="#5a5a5a"
       cx="251.53799"
       cy="410.44601"
       r="0.5"
       id="circle66" />
    <circle
       fill="#5a5a5a"
       cx="479.28299"
       cy="704.90601"
       r="0.5"
       id="circle68" />
    <circle
       fill="#5a5a5a"
       cx="479.28299"
       cy="257.95599"
       r="0.5"
       id="circle70" />
    <circle
       fill="#5a5a5a"
       cx="324.05899"
       cy="778.96301"
       r="0.5"
       id="circle72" />
    <circle
       fill="#5a5a5a"
       cx="361.298"
       cy="381.40701"
       r="0.5"
       id="circle74" />
    <circle
       fill="#5a5a5a"
       cx="685.12"
       cy="401.87399"
       r="0.5"
       id="circle76" />
    <circle
       fill="#5a5a5a"
       cx="243.436"
       cy="437.638"
       r="0.5"
       id="circle78" />
    <circle
       fill="#5a5a5a"
       cx="553.10101"
       cy="645.22498"
       r="0.5"
       id="circle80" />
    <circle
       fill="#5a5a5a"
       cx="251.53799"
       cy="749.815"
       r="0.5"
       id="circle82" />
    <circle
       fill="#5a5a5a"
       cx="575.35999"
       cy="770.28101"
       r="0.5"
       id="circle84" />
    <circle
       fill="#5a5a5a"
       cx="251.53799"
       cy="410.44601"
       r="0.5"
       id="circle86" />
    <circle
       fill="#5a5a5a"
       cx="662.86102"
       cy="716.50897"
       r="0.5"
       id="circle88" />
    <circle
       fill="#5a5a5a"
       cx="662.86102"
       cy="377.13901"
       r="0.5"
       id="circle90" />
    <circle
       fill="#5a5a5a"
       cx="545"
       cy="772.73999"
       r="0.5"
       id="circle92" />
    <circle
       fill="#5a5a5a"
       cx="361.298"
       cy="573.79999"
       r="0.5"
       id="circle94" />
    <circle
       fill="#5a5a5a"
       cx="787.77301"
       cy="600.75403"
       r="0.5"
       id="circle96" />
    <circle
       fill="#5a5a5a"
       cx="206.07401"
       cy="647.85602"
       r="0.5"
       id="circle98" />
    <circle
       fill="#5a5a5a"
       cx="330.117"
       cy="652.42297"
       r="0.5"
       id="circle100" />
    <circle
       fill="#5a5a5a"
       cx="212.132"
       cy="768.61499"
       r="0.5"
       id="circle102" />
    <circle
       fill="#5a5a5a"
       cx="378.98801"
       cy="779.16101"
       r="0.5"
       id="circle104" />
    <circle
       fill="#5a5a5a"
       cx="212.132"
       cy="593.74902"
       r="0.5"
       id="circle106" />
    <circle
       fill="#5a5a5a"
       cx="479.28299"
       cy="704.90601"
       r="0.5"
       id="circle108" />
    <circle
       fill="#5a5a5a"
       cx="479.28299"
       cy="257.95599"
       r="0.5"
       id="circle110" />
    <circle
       fill="#5a5a5a"
       cx="324.05899"
       cy="778.96301"
       r="0.5"
       id="circle112" />
    <circle
       fill="#5a5a5a"
       cx="361.298"
       cy="573.79999"
       r="0.5"
       id="circle114" />
    <circle
       fill="#5a5a5a"
       cx="787.77301"
       cy="600.75403"
       r="0.5"
       id="circle116" />
    <circle
       fill="#5a5a5a"
       cx="206.07401"
       cy="647.85602"
       r="0.5"
       id="circle118" />
    <circle
       fill="#5a5a5a"
       cx="728.185"
       cy="620.19"
       r="0.5"
       id="circle120" />
    <circle
       fill="#5a5a5a"
       cx="318.35501"
       cy="717.93701"
       r="0.5"
       id="circle122" />
    <circle
       fill="#5a5a5a"
       cx="744.83002"
       cy="744.89099"
       r="0.5"
       id="circle124" />
    <circle
       fill="#5a5a5a"
       cx="318.35501"
       cy="270.98599"
       r="0.5"
       id="circle126" />
    <circle
       fill="#5a5a5a"
       cx="771.12799"
       cy="723.35101"
       r="0.5"
       id="circle128" />
    <circle
       fill="#5a5a5a"
       cx="771.12799"
       cy="548.48499"
       r="0.5"
       id="circle130" />
    <circle
       fill="#5a5a5a"
       cx="710.39801"
       cy="752.32599"
       r="0.5"
       id="circle132" />
    <circle
       fill="#5a5a5a"
       cx="361.298"
       cy="573.79999"
       r="0.5"
       id="circle134" />
    <circle
       fill="#5a5a5a"
       cx="787.77301"
       cy="600.75403"
       r="0.5"
       id="circle136" />
    <circle
       fill="#5a5a5a"
       cx="206.07401"
       cy="647.85602"
       r="0.5"
       id="circle138" />
    <polyline
       fill="none"
       stroke="#000000"
       stroke-width="3"
       points="361.298,697.449 361.298,233.71"
       id="polyline140" />
    <polyline
       fill="none"
       stroke="#000000"
       stroke-width="3"
       points="361.298,697.449 200.243,774.287"
       id="polyline142" />
    <polyline
       fill="none"
       stroke="#000000"
       stroke-width="3"
       points="361.298,697.449 803.793,725.416"
       id="polyline144" />
    <polyline
       fill="none"
       stroke="#666666"
       stroke-width="2"
       points="200.243,774.287 217.74,775.326 235.457,776.245 253.369,777.042 271.447,777.716 289.664,778.267 307.991,778.693 326.401,778.994 344.864,779.169 363.353,779.218 381.838,779.141 400.292,778.938 418.685,778.609 436.991,778.155 455.179,777.577 473.223,776.875 491.094,776.051 508.765,775.106 526.208,774.04 543.397,772.857 560.306,771.557 576.908,770.144 593.177,768.618 609.088,766.982 624.618,765.239 639.742,763.392 654.436,761.443 668.678,759.395 682.446,757.252 695.719,755.016 708.477,752.692 720.699,750.282 732.367,747.791 743.462,745.223 753.969,742.581 763.87,739.869 773.15,737.092 781.795,734.253 789.792,731.358 797.128,728.411 803.793,725.416 803.451,707.188 802.428,688.945 800.725,670.715 798.345,652.527 795.29,634.407 791.566,616.385 787.179,598.488 782.135,580.744 776.443,563.179 770.11,545.822 763.146,528.698 755.564,511.835 747.373,495.257 738.587,478.992 729.219,463.063 719.284,447.496 708.797,432.314 697.773,417.541 686.232,403.199 674.189,389.312 661.664,375.899 648.675,362.982 635.244,350.581 621.39,338.715 607.135,327.402 592.501,316.659 577.51,306.504 562.186,296.951 546.553,288.016 530.633,279.713 514.453,272.053 498.036,265.049 481.409,258.712 464.596,253.052 447.624,248.077 430.519,243.794 413.308,240.212 396.016,237.334 378.67,235.166 361.298,233.71 354.975,237.084 348.662,241.168 342.368,245.956 336.103,251.44 329.878,257.611 323.701,264.461 317.581,271.978 311.529,280.151 305.554,288.968 299.665,298.415 293.871,308.477 288.181,319.138 282.603,330.383 277.147,342.194 271.821,354.553 266.632,367.441 261.59,380.837 256.701,394.722 251.974,409.073 247.415,423.869 243.032,439.087 238.831,454.703 234.819,470.693 231.002,487.034 227.386,503.698 223.976,520.661 220.778,537.897 217.797,555.379 215.037,573.08 212.503,590.973 210.198,609.03 208.126,627.223 206.29,645.525 204.693,663.907 203.338,682.34 202.226,700.797 201.36,719.248 200.74,737.666 200.367,756.022 200.243,774.287"
       id="polyline146" />
    <polyline
       fill="none"
       stroke="#999999"
       stroke-width="1"
       stroke-dasharray="5"
       points="318.355,270.986 335.098,272.389 351.816,274.479 368.482,277.253 385.07,280.706 401.556,284.833 417.914,289.628 434.118,295.084 450.143,301.191 465.965,307.941 481.56,315.324 496.903,323.327 511.971,331.938 526.74,341.145 541.188,350.933 555.292,361.286 569.031,372.19 582.383,383.626 595.329,395.579 607.847,408.028 619.919,420.955 631.525,434.34 642.649,448.162 653.273,462.4 663.381,477.033 672.956,492.036 681.985,507.388 690.453,523.065 698.347,539.042 705.656,555.295 712.367,571.799 718.47,588.528 723.957,605.457 728.818,622.559 733.047,639.808 736.636,657.178 739.58,674.641 741.874,692.171 743.516,709.741 744.501,727.323 744.83,744.891"
       id="polyline148" />
    <polyline
       fill="none"
       stroke="#999999"
       stroke-width="1"
       stroke-dasharray="5"
       points="479.283,257.956 473.189,261.208 467.104,265.144 461.038,269.758 455,275.043 449,280.991 443.046,287.593 437.149,294.838 431.316,302.716 425.557,311.213 419.881,320.318 414.297,330.016 408.812,340.291 403.437,351.129 398.178,362.513 393.045,374.424 388.044,386.845 383.184,399.756 378.473,413.138 373.916,426.97 369.523,441.23 365.298,455.897 361.249,470.948 357.383,486.36 353.704,502.108 350.219,518.169 346.932,534.519 343.85,551.131 340.977,567.98 338.317,585.04 335.874,602.285 333.653,619.688 331.656,637.223 329.886,654.862 328.347,672.578 327.041,690.344 325.97,708.132 325.134,725.916 324.537,743.667 324.178,761.358 324.059,778.963"
       id="polyline150" />
    <polyline
       fill="none"
       stroke="#999999"
       stroke-width="1"
       stroke-dasharray="5"
       points="300.568,296.917 307.165,297.309 313.846,297.655 320.6,297.956 327.417,298.21 334.286,298.418 341.197,298.578 348.139,298.692 355.101,298.758 362.073,298.776 369.043,298.747 376.002,298.671 382.938,298.547 389.84,298.376 396.699,298.157 403.502,297.893 410.241,297.582 416.905,297.226 423.482,296.824 429.964,296.378 436.34,295.888 442.6,295.354 448.735,294.779 454.735,294.162 460.591,293.505 466.293,292.808 471.834,292.073 477.205,291.301 482.396,290.493 487.401,289.65 492.212,288.774 496.821,287.865 501.22,286.926 505.404,285.957 509.366,284.961 513.1,283.939 516.599,282.891 519.859,281.821 522.874,280.729 525.641,279.618 528.154,278.489"
       id="polyline152" />
    <polyline
       fill="none"
       stroke="#3333cc"
       stroke-width="5"
       style="marker-end:url(#Arrow2Mend)"
       points="361.298,697.449 436.34,295.888"
       id="polyline154" />
    <polyline
       fill="none"
       stroke="#999999"
       stroke-width="1"
       stroke-dasharray="5"
       points="318.355,270.986 335.098,272.389 351.816,274.479 368.482,277.253 385.07,280.706 401.556,284.833 417.914,289.628 434.118,295.084 450.143,301.191 465.965,307.941 481.56,315.324 496.903,323.327 511.971,331.938 526.74,341.145 541.188,350.933 555.292,361.286 569.031,372.19 582.383,383.626 595.329,395.579 607.847,408.028 619.919,420.955 631.525,434.34 642.649,448.162 653.273,462.4 663.381,477.033 672.956,492.036 681.985,507.388 690.453,523.065 698.347,539.042 705.656,555.295 712.367,571.799 718.47,588.528 723.957,605.457 728.818,622.559 733.047,639.808 736.636,657.178 739.58,674.641 741.874,692.171 743.516,709.741 744.501,727.323 744.83,744.891"
       id="polyline156" />
    <polyline
       fill="none"
       stroke="#999999"
       stroke-width="1"
       stroke-dasharray="5"
       points="662.861,377.139 658.234,379.609 653.614,382.597 649.008,386.101 644.424,390.114 639.868,394.63 635.347,399.643 630.869,405.144 626.44,411.126 622.068,417.578 617.758,424.491 613.518,431.854 609.353,439.657 605.272,447.886 601.279,456.529 597.381,465.574 593.584,475.005 589.894,484.809 586.316,494.969 582.857,505.472 579.521,516.3 576.313,527.436 573.239,538.864 570.303,550.566 567.509,562.524 564.863,574.72 562.368,587.134 560.028,599.747 557.846,612.541 555.826,625.494 553.971,638.588 552.285,651.803 550.768,665.117 549.425,678.51 548.256,691.962 547.264,705.452 546.451,718.958 545.817,732.461 545.363,745.94 545.091,759.373 545,772.74"
       id="polyline158" />
    <polyline
       fill="none"
       stroke="#999999"
       stroke-width="1"
       stroke-dasharray="5"
       points="243.436,437.638 256.24,438.399 269.206,439.071 282.315,439.654 295.544,440.148 308.876,440.551 322.288,440.863 335.76,441.083 349.271,441.211 362.802,441.247 376.329,441.19 389.834,441.042 403.295,440.801 416.691,440.469 430.001,440.046 443.206,439.532 456.284,438.929 469.216,438.237 481.981,437.458 494.56,436.592 506.934,435.641 519.083,434.606 530.989,433.489 542.634,432.292 553.998,431.017 565.066,429.665 575.819,428.239 586.242,426.74 596.318,425.172 606.031,423.536 615.367,421.835 624.311,420.071 632.85,418.248 640.97,416.369 648.659,414.435 655.905,412.451 662.696,410.418 669.023,408.341 674.875,406.223 680.244,404.066 685.12,401.874"
       id="polyline160" />
    <polyline
       fill="none"
       stroke="#3333cc"
       stroke-width="5"
       style="marker-end:url(#Arrow2Mend)"
       points="361.298,697.449 619.919,420.955"
       id="polyline162" />
    <polyline
       fill="none"
       stroke="#999999"
       stroke-width="1"
       stroke-dasharray="5"
       points="251.538,410.446 264.251,411.511 276.945,413.098 289.599,415.204 302.195,417.826 314.712,420.959 327.133,424.6 339.436,428.743 351.604,433.38 363.618,438.505 375.459,444.111 387.109,450.188 398.55,456.726 409.764,463.717 420.735,471.149 431.444,479.01 441.876,487.289 452.014,495.973 461.844,505.048 471.349,514.501 480.515,524.317 489.328,534.48 497.774,544.975 505.841,555.786 513.516,566.896 520.786,578.289 527.642,589.945 534.072,601.849 540.066,613.98 545.615,626.321 550.711,638.852 555.345,651.555 559.511,664.409 563.202,677.394 566.413,690.492 569.138,703.68 571.373,716.94 573.116,730.251 574.362,743.592 575.111,756.942 575.36,770.281"
       id="polyline164" />
    <polyline
       fill="none"
       stroke="#999999"
       stroke-width="1"
       stroke-dasharray="5"
       points="479.283,257.956 473.189,261.208 467.104,265.144 461.038,269.758 455,275.043 449,280.991 443.046,287.593 437.149,294.838 431.316,302.716 425.557,311.213 419.881,320.318 414.297,330.016 408.812,340.291 403.437,351.129 398.178,362.513 393.045,374.424 388.044,386.845 383.184,399.756 378.473,413.138 373.916,426.97 369.523,441.23 365.298,455.897 361.249,470.948 357.383,486.36 353.704,502.108 350.219,518.169 346.932,534.519 343.85,551.131 340.977,567.98 338.317,585.04 335.874,602.285 333.653,619.688 331.656,637.223 329.886,654.862 328.347,672.578 327.041,690.344 325.97,708.132 325.134,725.916 324.537,743.667 324.178,761.358 324.059,778.963"
       id="polyline166" />
    <polyline
       fill="none"
       stroke="#999999"
       stroke-width="1"
       stroke-dasharray="5"
       points="243.436,437.638 256.24,438.399 269.206,439.071 282.315,439.654 295.544,440.148 308.876,440.551 322.288,440.863 335.76,441.083 349.271,441.211 362.802,441.247 376.329,441.19 389.834,441.042 403.295,440.801 416.691,440.469 430.001,440.046 443.206,439.532 456.284,438.929 469.216,438.237 481.981,437.458 494.56,436.592 506.934,435.641 519.083,434.606 530.989,433.489 542.634,432.292 553.998,431.017 565.066,429.665 575.819,428.239 586.242,426.74 596.318,425.172 606.031,423.536 615.367,421.835 624.311,420.071 632.85,418.248 640.97,416.369 648.659,414.435 655.905,412.451 662.696,410.418 669.023,408.341 674.875,406.223 680.244,404.066 685.12,401.874"
       id="polyline168" />
    <polyline
       fill="none"
       stroke="#3333cc"
       stroke-width="5"
       style="marker-end:url(#Arrow2Mend)"
       points="361.298,697.449 369.523,441.23"
       id="polyline170" />
    <polyline
       fill="none"
       stroke="#999999"
       stroke-width="1"
       stroke-dasharray="5"
       points="251.538,410.446 264.251,411.511 276.945,413.098 289.599,415.204 302.195,417.826 314.712,420.959 327.133,424.6 339.436,428.743 351.604,433.38 363.618,438.505 375.459,444.111 387.109,450.188 398.55,456.726 409.764,463.717 420.735,471.149 431.444,479.01 441.876,487.289 452.014,495.973 461.844,505.048 471.349,514.501 480.515,524.317 489.328,534.48 497.774,544.975 505.841,555.786 513.516,566.896 520.786,578.289 527.642,589.945 534.072,601.849 540.066,613.98 545.615,626.321 550.711,638.852 555.345,651.555 559.511,664.409 563.202,677.394 566.413,690.492 569.138,703.68 571.373,716.94 573.116,730.251 574.362,743.592 575.111,756.942 575.36,770.281"
       id="polyline172" />
    <polyline
       fill="none"
       stroke="#999999"
       stroke-width="1"
       stroke-dasharray="5"
       points="662.861,377.139 658.234,379.609 653.614,382.597 649.008,386.101 644.424,390.114 639.868,394.63 635.347,399.643 630.869,405.144 626.44,411.126 622.068,417.578 617.758,424.491 613.518,431.854 609.353,439.657 605.272,447.886 601.279,456.529 597.381,465.574 593.584,475.005 589.894,484.809 586.316,494.969 582.857,505.472 579.521,516.3 576.313,527.436 573.239,538.864 570.303,550.566 567.509,562.524 564.863,574.72 562.368,587.134 560.028,599.747 557.846,612.541 555.826,625.494 553.971,638.588 552.285,651.803 550.768,665.117 549.425,678.51 548.256,691.962 547.264,705.452 546.451,718.958 545.817,732.461 545.363,745.94 545.091,759.373 545,772.74"
       id="polyline174" />
    <polyline
       fill="none"
       stroke="#999999"
       stroke-width="1"
       stroke-dasharray="5"
       points="206.074,647.856 222.937,648.857 240.013,649.743 257.276,650.511 274.7,651.161 292.258,651.692 309.921,652.103 327.664,652.392 345.459,652.561 363.278,652.608 381.094,652.534 398.88,652.338 416.608,652.022 434.25,651.584 451.78,651.027 469.171,650.351 486.395,649.556 503.426,648.645 520.238,647.618 536.805,646.478 553.101,645.225 569.102,643.863 584.782,642.392 600.118,640.815 615.085,639.136 629.661,637.355 643.823,635.477 657.55,633.503 670.82,631.437 683.612,629.283 695.908,627.043 707.688,624.72 718.933,622.32 729.627,619.844 739.753,617.298 749.296,614.684 758.24,612.007 766.572,609.272 774.28,606.481 781.35,603.641 787.773,600.754"
       id="polyline176" />
    <polyline
       fill="none"
       stroke="#3333cc"
       stroke-width="5"
       style="marker-end:url(#Arrow2Mend)"
       points="361.298,697.449 553.101,645.225"
       id="polyline178" />
    <polyline
       fill="none"
       stroke="#999999"
       stroke-width="1"
       stroke-dasharray="5"
       points="212.132,593.749 218.683,594.298 225.223,595.115 231.744,596.2 238.234,597.551 244.684,599.166 251.084,601.042 257.423,603.177 263.693,605.566 269.884,608.207 275.985,611.095 281.988,614.227 287.883,617.596 293.661,621.198 299.314,625.027 304.832,629.078 310.207,633.344 315.431,637.818 320.496,642.495 325.394,647.365 330.117,652.423 334.658,657.66 339.01,663.068 343.167,668.638 347.121,674.363 350.867,680.233 354.4,686.239 357.713,692.373 360.802,698.624 363.661,704.983 366.287,711.44 368.675,717.985 370.821,724.608 372.723,731.299 374.377,738.048 375.782,744.844 376.933,751.676 377.831,758.534 378.473,765.409 378.859,772.288 378.988,779.161"
       id="polyline180" />
    <polyline
       fill="none"
       stroke="#999999"
       stroke-width="1"
       stroke-dasharray="5"
       points="479.283,257.956 473.189,261.208 467.104,265.144 461.038,269.758 455,275.043 449,280.991 443.046,287.593 437.149,294.838 431.316,302.716 425.557,311.213 419.881,320.318 414.297,330.016 408.812,340.291 403.437,351.129 398.178,362.513 393.045,374.424 388.044,386.845 383.184,399.756 378.473,413.138 373.916,426.97 369.523,441.23 365.298,455.897 361.249,470.948 357.383,486.36 353.704,502.108 350.219,518.169 346.932,534.519 343.85,551.131 340.977,567.98 338.317,585.04 335.874,602.285 333.653,619.688 331.656,637.223 329.886,654.862 328.347,672.578 327.041,690.344 325.97,708.132 325.134,725.916 324.537,743.667 324.178,761.358 324.059,778.963"
       id="polyline182" />
    <polyline
       fill="none"
       stroke="#999999"
       stroke-width="1"
       stroke-dasharray="5"
       points="206.074,647.856 222.937,648.857 240.013,649.743 257.276,650.511 274.7,651.161 292.258,651.692 309.921,652.103 327.664,652.392 345.459,652.561 363.278,652.608 381.094,652.534 398.88,652.338 416.608,652.022 434.25,651.584 451.78,651.027 469.171,650.351 486.395,649.556 503.426,648.645 520.238,647.618 536.805,646.478 553.101,645.225 569.102,643.863 584.782,642.392 600.118,640.815 615.085,639.136 629.661,637.355 643.823,635.477 657.55,633.503 670.82,631.437 683.612,629.283 695.908,627.043 707.688,624.72 718.933,622.32 729.627,619.844 739.753,617.298 749.296,614.684 758.24,612.007 766.572,609.272 774.28,606.481 781.35,603.641 787.773,600.754"
       id="polyline184" />
    <polyline
       fill="none"
       stroke="#3333cc"
       stroke-width="5"
       style="marker-end:url(#Arrow2Mend)"
       points="361.298,697.449 330.117,652.423"
       id="polyline186" />
    <polyline
       fill="none"
       stroke="#999999"
       stroke-width="1"
       stroke-dasharray="5"
       points="318.355,270.986 335.098,272.389 351.816,274.479 368.482,277.253 385.07,280.706 401.556,284.833 417.914,289.628 434.118,295.084 450.143,301.191 465.965,307.941 481.56,315.324 496.903,323.327 511.971,331.938 526.74,341.145 541.188,350.933 555.292,361.286 569.031,372.19 582.383,383.626 595.329,395.579 607.847,408.028 619.919,420.955 631.525,434.34 642.649,448.162 653.273,462.4 663.381,477.033 672.956,492.036 681.985,507.388 690.453,523.065 698.347,539.042 705.656,555.295 712.367,571.799 718.47,588.528 723.957,605.457 728.818,622.559 733.047,639.808 736.636,657.178 739.58,674.641 741.874,692.171 743.516,709.741 744.501,727.323 744.83,744.891"
       id="polyline188" />
    <polyline
       fill="none"
       stroke="#999999"
       stroke-width="1"
       stroke-dasharray="5"
       points="771.128,548.485 768.744,549.757 766.363,551.297 763.99,553.103 761.628,555.17 759.28,557.498 756.951,560.08 754.643,562.915 752.361,565.997 750.108,569.322 747.887,572.884 745.703,576.678 743.557,580.698 741.454,584.938 739.396,589.392 737.388,594.052 735.432,598.912 733.53,603.964 731.687,609.199 729.904,614.611 728.185,620.19 726.532,625.928 724.948,631.817 723.435,637.846 721.996,644.008 720.632,650.292 719.347,656.688 718.141,663.188 717.017,669.78 715.976,676.455 715.02,683.202 714.151,690.01 713.37,696.871 712.678,703.772 712.076,710.703 711.564,717.654 711.145,724.614 710.818,731.571 710.585,738.516 710.444,745.438 710.398,752.326"
       id="polyline190" />
    <polyline
       fill="none"
       stroke="#999999"
       stroke-width="1"
       stroke-dasharray="5"
       points="206.074,647.856 222.937,648.857 240.013,649.743 257.276,650.511 274.7,651.161 292.258,651.692 309.921,652.103 327.664,652.392 345.459,652.561 363.278,652.608 381.094,652.534 398.88,652.338 416.608,652.022 434.25,651.584 451.78,651.027 469.171,650.351 486.395,649.556 503.426,648.645 520.238,647.618 536.805,646.478 553.101,645.225 569.102,643.863 584.782,642.392 600.118,640.815 615.085,639.136 629.661,637.355 643.823,635.477 657.55,633.503 670.82,631.437 683.612,629.283 695.908,627.043 707.688,624.72 718.933,622.32 729.627,619.844 739.753,617.298 749.296,614.684 758.24,612.007 766.572,609.272 774.28,606.481 781.35,603.641 787.773,600.754"
       id="polyline192" />
    <polyline
       fill="none"
       stroke="#3333cc"
       stroke-width="5"
       style="marker-end:url(#Arrow2Mend)"
       points="361.298,697.449 728.185,620.19"
       id="polyline194" />
    <text
       fill="#000000"
       x="180.138"
       y="781.97101"
       font-size="15px"
       text-anchor="start"
       baseline-shift="0px"
       font-family="Times"
       font-style="italic"
       id="text196">x</text>
    <text
       fill="#000000"
       x="821.91699"
       y="726.81403"
       font-size="15px"
       text-anchor="start"
       baseline-shift="0px"
       font-family="Times"
       font-style="italic"
       id="text198">y</text>
    <text
       fill="#000000"
       x="357.298"
       y="224.435"
       font-size="15px"
       text-anchor="start"
       baseline-shift="0px"
       font-family="Times"
       font-style="italic"
       id="text200">z</text>
  </g>
  <metadata
     id="metadata441">
    <rdf:RDF>
      <cc:Work
         rdf:about="">
        <dc:title>lats6</dc:title>
      </cc:Work>
    </rdf:RDF>
  </metadata>
</svg>
