<?xml version="1.0" encoding="UTF-8" standalone="no"?>
<svg
   width="648.57397"
   height="564.12103"
   viewBox="0 0 648.57397 564.12103"
   version="1.1"
   id="svg64"
   sodipodi:docname="lats2-nice.svg"
   inkscape:version="1.2.2 (b0a8486541, 2022-12-01)"
   xmlns:inkscape="http://www.inkscape.org/namespaces/inkscape"
   xmlns:sodipodi="http://sodipodi.sourceforge.net/DTD/sodipodi-0.dtd"
   xmlns="http://www.w3.org/2000/svg"
   xmlns:svg="http://www.w3.org/2000/svg"
   xmlns:rdf="http://www.w3.org/1999/02/22-rdf-syntax-ns#"
   xmlns:cc="http://creativecommons.org/ns#"
   xmlns:dc="http://purl.org/dc/elements/1.1/">
  <sodipodi:namedview
     id="namedview66"
     pagecolor="#ffffff"
     bordercolor="#666666"
     borderopacity="1.0"
     inkscape:showpageshadow="2"
     inkscape:pageopacity="0.0"
     inkscape:pagecheckerboard="0"
     inkscape:deskcolor="#d1d1d1"
     showgrid="false"
     inkscape:zoom="0.94994312"
     inkscape:cx="326.33533"
     inkscape:cy="222.11856"
     inkscape:window-width="1920"
     inkscape:window-height="1015"
     inkscape:window-x="0"
     inkscape:window-y="0"
     inkscape:window-maximized="1"
     inkscape:current-layer="svg64" />
  <title
     id="title2">lats2</title>
  <desc
     id="desc4">
Creator: GL2PS 1.3.9, (C) 1999-2015 C. Geuzaine
For: Gmsh
CreationDate: Fri Jan 15 19:57:49 2016
</desc>
  <defs
     id="defs8">
    <marker
       orient="auto"
       refY="0"
       refX="0"
       id="Arrow2Mend"
       style="overflow:visible">
      <path
         id="path3864"
         fill="#3333cc"
         style="fill-rule:evenodd;stroke-width:0.625;stroke-linejoin:round"
         d="M 8.7185878,4.0337352 -2.2072895,0.01601326 8.7185884,-4.0017078 c -1.7454984,2.3720609 -1.7354408,5.6174519 -6e-7,8.035443 z"
         transform="scale(-0.6)" />
    </marker>
  </defs>
  <defs
     id="defs10" />
  <g
     shape-rendering="crispEdges"
     id="g62"
     transform="translate(-179.733,-218.015)">
    <circle
       fill="#5a5a5a"
       cx="361.298"
       cy="697.44897"
       r="0.5"
       id="circle12" />
    <circle
       fill="#5a5a5a"
       cx="200.243"
       cy="774.28699"
       r="0.5"
       id="circle14" />
    <circle
       fill="#5a5a5a"
       cx="803.79303"
       cy="725.41602"
       r="0.5"
       id="circle16" />
    <circle
       fill="#5a5a5a"
       cx="361.298"
       cy="233.71001"
       r="0.5"
       id="circle18" />
    <circle
       fill="#5a5a5a"
       cx="523.78699"
       cy="490.21899"
       r="0.5"
       id="circle20" />
    <circle
       fill="#5a5a5a"
       cx="268.31299"
       cy="741.81201"
       r="0.5"
       id="circle22" />
    <circle
       fill="#5a5a5a"
       cx="629.60797"
       cy="764.646"
       r="0.5"
       id="circle24" />
    <circle
       fill="#5a5a5a"
       cx="268.31299"
       cy="363.17001"
       r="0.5"
       id="circle26" />
    <circle
       fill="#5a5a5a"
       cx="616.77197"
       cy="713.59601"
       r="0.5"
       id="circle28" />
    <circle
       fill="#5a5a5a"
       cx="616.77197"
       cy="334.95401"
       r="0.5"
       id="circle30" />
    <circle
       fill="#5a5a5a"
       cx="485.272"
       cy="776.33398"
       r="0.5"
       id="circle32" />
    <circle
       fill="#5a5a5a"
       cx="361.298"
       cy="429.70901"
       r="0.5"
       id="circle34" />
    <circle
       fill="#5a5a5a"
       cx="722.59302"
       cy="452.54401"
       r="0.5"
       id="circle36" />
    <circle
       fill="#5a5a5a"
       cx="229.797"
       cy="492.44699"
       r="0.5"
       id="circle38" />
    <polyline
       fill="none"
       stroke="#000000"
       stroke-width="3"
       points="361.298,697.449 361.298,233.71"
       id="polyline40" />
    <polyline
       fill="none"
       stroke="#000000"
       stroke-width="3"
       points="361.298,697.449 200.243,774.287"
       id="polyline42" />
    <polyline
       fill="none"
       stroke="#000000"
       stroke-width="3"
       points="361.298,697.449 803.793,725.416"
       id="polyline44" />
    <polyline
       fill="none"
       stroke="#666666"
       stroke-width="2"
       points="200.243,774.287 217.74,775.326 235.457,776.245 253.369,777.042 271.447,777.716 289.664,778.267 307.991,778.693 326.401,778.994 344.864,779.169 363.353,779.218 381.838,779.141 400.292,778.938 418.685,778.609 436.991,778.155 455.179,777.577 473.223,776.875 491.094,776.051 508.765,775.106 526.208,774.04 543.397,772.857 560.306,771.557 576.908,770.144 593.177,768.618 609.088,766.982 624.618,765.239 639.742,763.392 654.436,761.443 668.678,759.395 682.446,757.252 695.719,755.016 708.477,752.692 720.699,750.282 732.367,747.791 743.462,745.223 753.969,742.581 763.87,739.869 773.15,737.092 781.795,734.253 789.792,731.358 797.128,728.411 803.793,725.416 803.451,707.188 802.428,688.945 800.725,670.715 798.345,652.527 795.29,634.407 791.566,616.385 787.179,598.488 782.135,580.744 776.443,563.179 770.11,545.822 763.146,528.698 755.564,511.835 747.373,495.257 738.587,478.992 729.219,463.063 719.284,447.496 708.797,432.314 697.773,417.541 686.232,403.199 674.189,389.312 661.664,375.899 648.675,362.982 635.244,350.581 621.39,338.715 607.135,327.402 592.501,316.659 577.51,306.504 562.186,296.951 546.553,288.016 530.633,279.713 514.453,272.053 498.036,265.049 481.409,258.712 464.596,253.052 447.624,248.077 430.519,243.794 413.308,240.212 396.016,237.334 378.67,235.166 361.298,233.71 354.975,237.084 348.662,241.168 342.368,245.956 336.103,251.44 329.878,257.611 323.701,264.461 317.581,271.978 311.529,280.151 305.554,288.968 299.665,298.415 293.871,308.477 288.181,319.138 282.603,330.383 277.147,342.194 271.821,354.553 266.632,367.441 261.59,380.837 256.701,394.722 251.974,409.073 247.415,423.869 243.032,439.087 238.831,454.703 234.819,470.693 231.002,487.034 227.386,503.698 223.976,520.661 220.778,537.897 217.797,555.379 215.037,573.08 212.503,590.973 210.198,609.03 208.126,627.223 206.29,645.525 204.693,663.907 203.338,682.34 202.226,700.797 201.36,719.248 200.74,737.666 200.367,756.022 200.243,774.287"
       id="polyline46" />
    <polyline
       fill="none"
       stroke="#999999"
       stroke-width="1"
       stroke-dasharray="5"
       points="268.313,363.17 282.497,364.359 296.66,366.129 310.779,368.479 324.832,371.404 338.798,374.901 352.656,378.963 366.383,383.585 379.959,388.759 393.363,394.477 406.575,400.731 419.573,407.511 432.338,414.807 444.849,422.606 457.089,430.898 469.038,439.669 480.677,448.906 491.989,458.595 502.955,468.721 513.56,479.267 523.787,490.219 533.62,501.558 543.044,513.268 552.044,525.33 560.607,537.726 568.719,550.436 576.368,563.442 583.542,576.723 590.229,590.258 596.421,604.027 602.106,618.009 607.277,632.181 611.925,646.522 616.044,661.011 619.626,675.624 622.666,690.339 625.16,705.133 627.104,719.984 628.495,734.868 629.33,749.763 629.608,764.646"
       id="polyline48" />
    <polyline
       fill="none"
       stroke="#999999"
       stroke-width="1"
       stroke-dasharray="5"
       points="616.772,334.954 611.61,337.709 606.455,341.044 601.316,344.953 596.201,349.431 591.118,354.47 586.074,360.062 581.078,366.2 576.136,372.874 571.258,380.072 566.449,387.786 561.718,396.001 557.072,404.706 552.518,413.888 548.063,423.532 543.714,433.622 539.478,444.145 535.361,455.083 531.37,466.42 527.51,478.138 523.787,490.219 520.208,502.644 516.778,515.394 513.503,528.451 510.386,541.792 507.434,555.399 504.65,569.249 502.039,583.322 499.604,597.596 497.351,612.049 495.282,626.659 493.4,641.402 491.708,656.257 490.209,671.2 488.905,686.208 487.798,701.259 486.891,716.329 486.183,731.395 485.677,746.433 485.373,761.42 485.272,776.334"
       id="polyline50" />
    <polyline
       fill="none"
       stroke="#999999"
       stroke-width="1"
       stroke-dasharray="5"
       points="229.797,492.447 244.083,493.296 258.55,494.046 273.174,494.696 287.935,495.247 302.809,495.697 317.773,496.045 332.805,496.29 347.88,496.433 362.976,496.473 378.069,496.41 393.136,496.245 408.155,495.976 423.101,495.606 437.951,495.133 452.684,494.56 467.276,493.887 481.704,493.116 495.947,492.246 509.982,491.28 523.787,490.219 537.342,489.064 550.626,487.818 563.618,486.483 576.298,485.06 588.646,483.551 600.644,481.96 612.273,480.288 623.514,478.538 634.352,476.712 644.768,474.815 654.747,472.847 664.274,470.814 673.334,468.716 681.912,466.559 689.997,464.345 697.574,462.077 704.633,459.76 711.162,457.396 717.152,454.99 722.593,452.544"
       id="polyline52" />
    <polyline
       fill="none"
       stroke="#3333cc"
       stroke-width="5"
       style="marker-end:url(#Arrow2Mend)"
       points="361.298,697.449 523.787,490.219"
       id="polyline54" />
    <text
       fill="#000000"
       x="180.138"
       y="781.97101"
       font-size="15px"
       text-anchor="start"
       baseline-shift="0px"
       font-family="Times"
       font-style="italic"
       id="text56">x</text>
    <text
       fill="#000000"
       x="821.91699"
       y="726.81403"
       font-size="15px"
       text-anchor="start"
       baseline-shift="0px"
       font-family="Times"
       font-style="italic"
       id="text58">y</text>
    <text
       fill="#000000"
       x="357.298"
       y="224.435"
       font-size="15px"
       text-anchor="start"
       baseline-shift="0px"
       font-family="Times"
       font-style="italic"
       id="text60">z</text>
  </g>
  <metadata
     id="metadata247">
    <rdf:RDF>
      <cc:Work
         rdf:about="">
        <dc:title>lats2</dc:title>
      </cc:Work>
    </rdf:RDF>
  </metadata>
</svg>
