<?xml version="1.0" encoding="UTF-8" standalone="no"?>
<svg
   width="648.57397"
   height="564.12103"
   viewBox="0 0 648.57397 564.12103"
   version="1.1"
   id="svg120"
   sodipodi:docname="lats4-nice.svg"
   inkscape:version="1.2.2 (b0a8486541, 2022-12-01)"
   xmlns:inkscape="http://www.inkscape.org/namespaces/inkscape"
   xmlns:sodipodi="http://sodipodi.sourceforge.net/DTD/sodipodi-0.dtd"
   xmlns="http://www.w3.org/2000/svg"
   xmlns:svg="http://www.w3.org/2000/svg"
   xmlns:rdf="http://www.w3.org/1999/02/22-rdf-syntax-ns#"
   xmlns:cc="http://creativecommons.org/ns#"
   xmlns:dc="http://purl.org/dc/elements/1.1/">
  <sodipodi:namedview
     id="namedview122"
     pagecolor="#ffffff"
     bordercolor="#666666"
     borderopacity="1.0"
     inkscape:showpageshadow="2"
     inkscape:pageopacity="0.0"
     inkscape:pagecheckerboard="0"
     inkscape:deskcolor="#d1d1d1"
     showgrid="false"
     inkscape:zoom="0.94994312"
     inkscape:cx="326.33533"
     inkscape:cy="222.11856"
     inkscape:window-width="1920"
     inkscape:window-height="1015"
     inkscape:window-x="0"
     inkscape:window-y="0"
     inkscape:window-maximized="1"
     inkscape:current-layer="svg120" />
  <title
     id="title2">lats4</title>
  <desc
     id="desc4">
Creator: GL2PS 1.3.9, (C) 1999-2015 C. Geuzaine
For: Gmsh
CreationDate: Fri Jan 15 19:57:52 2016
</desc>
  <defs
     id="defs8">
    <marker
       orient="auto"
       refY="0"
       refX="0"
       id="Arrow2Mend"
       style="overflow:visible">
      <path
         id="path3864"
         fill="#3333cc"
         style="fill-rule:evenodd;stroke-width:0.625;stroke-linejoin:round"
         d="M 8.7185878,4.0337352 -2.2072895,0.01601326 8.7185884,-4.0017078 c -1.7454984,2.3720609 -1.7354408,5.6174519 -6e-7,8.035443 z"
         transform="scale(-0.6)" />
    </marker>
  </defs>
  <defs
     id="defs10" />
  <g
     shape-rendering="crispEdges"
     id="g118"
     transform="translate(-179.733,-218.015)">
    <circle
       fill="#5a5a5a"
       cx="361.298"
       cy="697.44897"
       r="0.5"
       id="circle12" />
    <circle
       fill="#5a5a5a"
       cx="200.243"
       cy="774.28699"
       r="0.5"
       id="circle14" />
    <circle
       fill="#5a5a5a"
       cx="803.79303"
       cy="725.41602"
       r="0.5"
       id="circle16" />
    <circle
       fill="#5a5a5a"
       cx="361.298"
       cy="233.71001"
       r="0.5"
       id="circle18" />
    <circle
       fill="#5a5a5a"
       cx="459.80801"
       cy="331.19501"
       r="0.5"
       id="circle20" />
    <circle
       fill="#5a5a5a"
       cx="304.92499"
       cy="724.34399"
       r="0.5"
       id="circle22" />
    <circle
       fill="#5a5a5a"
       cx="719.42902"
       cy="750.54199"
       r="0.5"
       id="circle24" />
    <circle
       fill="#5a5a5a"
       cx="304.92499"
       cy="289.94"
       r="0.5"
       id="circle26" />
    <circle
       fill="#5a5a5a"
       cx="516.17999"
       cy="707.23798"
       r="0.5"
       id="circle28" />
    <circle
       fill="#5a5a5a"
       cx="516.17999"
       cy="272.83401"
       r="0.5"
       id="circle30" />
    <circle
       fill="#5a5a5a"
       cx="365.314"
       cy="779.216"
       r="0.5"
       id="circle32" />
    <circle
       fill="#5a5a5a"
       cx="361.298"
       cy="294.51099"
       r="0.5"
       id="circle34" />
    <circle
       fill="#5a5a5a"
       cx="580.33502"
       cy="308.354"
       r="0.5"
       id="circle36" />
    <circle
       fill="#5a5a5a"
       cx="281.57501"
       cy="332.54599"
       r="0.5"
       id="circle38" />
    <circle
       fill="#5a5a5a"
       cx="689.40503"
       cy="586.32599"
       r="0.5"
       id="circle40" />
    <circle
       fill="#5a5a5a"
       cx="304.92499"
       cy="724.34399"
       r="0.5"
       id="circle42" />
    <circle
       fill="#5a5a5a"
       cx="719.42902"
       cy="750.54199"
       r="0.5"
       id="circle44" />
    <circle
       fill="#5a5a5a"
       cx="304.92499"
       cy="289.94"
       r="0.5"
       id="circle46" />
    <circle
       fill="#5a5a5a"
       cx="745.77698"
       cy="721.74902"
       r="0.5"
       id="circle48" />
    <circle
       fill="#5a5a5a"
       cx="745.77698"
       cy="492.19601"
       r="0.5"
       id="circle50" />
    <circle
       fill="#5a5a5a"
       cx="666.05402"
       cy="759.784"
       r="0.5"
       id="circle52" />
    <circle
       fill="#5a5a5a"
       cx="361.298"
       cy="535.13"
       r="0.5"
       id="circle54" />
    <circle
       fill="#5a5a5a"
       cx="775.80103"
       cy="561.328"
       r="0.5"
       id="circle56" />
    <circle
       fill="#5a5a5a"
       cx="210.431"
       cy="607.10797"
       r="0.5"
       id="circle58" />
    <circle
       fill="#5a5a5a"
       cx="376.241"
       cy="611.68402"
       r="0.5"
       id="circle60" />
    <circle
       fill="#5a5a5a"
       cx="221.35899"
       cy="764.21301"
       r="0.5"
       id="circle62" />
    <circle
       fill="#5a5a5a"
       cx="440.396"
       cy="778.05701"
       r="0.5"
       id="circle64" />
    <circle
       fill="#5a5a5a"
       cx="221.35899"
       cy="534.65997"
       r="0.5"
       id="circle66" />
    <circle
       fill="#5a5a5a"
       cx="516.17999"
       cy="707.23798"
       r="0.5"
       id="circle68" />
    <circle
       fill="#5a5a5a"
       cx="516.17999"
       cy="272.83401"
       r="0.5"
       id="circle70" />
    <circle
       fill="#5a5a5a"
       cx="365.314"
       cy="779.216"
       r="0.5"
       id="circle72" />
    <circle
       fill="#5a5a5a"
       cx="361.298"
       cy="535.13"
       r="0.5"
       id="circle74" />
    <circle
       fill="#5a5a5a"
       cx="775.80103"
       cy="561.328"
       r="0.5"
       id="circle76" />
    <circle
       fill="#5a5a5a"
       cx="210.431"
       cy="607.10797"
       r="0.5"
       id="circle78" />
    <polyline
       fill="none"
       stroke="#000000"
       stroke-width="3"
       points="361.298,697.449 361.298,233.71"
       id="polyline80" />
    <polyline
       fill="none"
       stroke="#000000"
       stroke-width="3"
       points="361.298,697.449 200.243,774.287"
       id="polyline82" />
    <polyline
       fill="none"
       stroke="#000000"
       stroke-width="3"
       points="361.298,697.449 803.793,725.416"
       id="polyline84" />
    <polyline
       fill="none"
       stroke="#666666"
       stroke-width="2"
       points="200.243,774.287 217.74,775.326 235.457,776.245 253.369,777.042 271.447,777.716 289.664,778.267 307.991,778.693 326.401,778.994 344.864,779.169 363.353,779.218 381.838,779.141 400.292,778.938 418.685,778.609 436.991,778.155 455.179,777.577 473.223,776.875 491.094,776.051 508.765,775.106 526.208,774.04 543.397,772.857 560.306,771.557 576.908,770.144 593.177,768.618 609.088,766.982 624.618,765.239 639.742,763.392 654.436,761.443 668.678,759.395 682.446,757.252 695.719,755.016 708.477,752.692 720.699,750.282 732.367,747.791 743.462,745.223 753.969,742.581 763.87,739.869 773.15,737.092 781.795,734.253 789.792,731.358 797.128,728.411 803.793,725.416 803.451,707.188 802.428,688.945 800.725,670.715 798.345,652.527 795.29,634.407 791.566,616.385 787.179,598.488 782.135,580.744 776.443,563.179 770.11,545.822 763.146,528.698 755.564,511.835 747.373,495.257 738.587,478.992 729.219,463.063 719.284,447.496 708.797,432.314 697.773,417.541 686.232,403.199 674.189,389.312 661.664,375.899 648.675,362.982 635.244,350.581 621.39,338.715 607.135,327.402 592.501,316.659 577.51,306.504 562.186,296.951 546.553,288.016 530.633,279.713 514.453,272.053 498.036,265.049 481.409,258.712 464.596,253.052 447.624,248.077 430.519,243.794 413.308,240.212 396.016,237.334 378.67,235.166 361.298,233.71 354.975,237.084 348.662,241.168 342.368,245.956 336.103,251.44 329.878,257.611 323.701,264.461 317.581,271.978 311.529,280.151 305.554,288.968 299.665,298.415 293.871,308.477 288.181,319.138 282.603,330.383 277.147,342.194 271.821,354.553 266.632,367.441 261.59,380.837 256.701,394.722 251.974,409.073 247.415,423.869 243.032,439.087 238.831,454.703 234.819,470.693 231.002,487.034 227.386,503.698 223.976,520.661 220.778,537.897 217.797,555.379 215.037,573.08 212.503,590.973 210.198,609.03 208.126,627.223 206.29,645.525 204.693,663.907 203.338,682.34 202.226,700.797 201.36,719.248 200.74,737.666 200.367,756.022 200.243,774.287"
       id="polyline86" />
    <polyline
       fill="none"
       stroke="#999999"
       stroke-width="1"
       stroke-dasharray="5"
       points="304.925,289.94 321.199,291.304 337.447,293.335 353.645,296.031 369.768,299.387 385.791,303.398 401.689,308.059 417.438,313.361 433.014,319.297 448.392,325.858 463.549,333.033 478.461,340.811 493.106,349.181 507.46,358.129 521.503,367.642 535.211,377.705 548.564,388.303 561.542,399.418 574.124,411.035 586.29,423.135 598.023,435.699 609.304,448.708 620.116,462.142 630.442,475.981 640.266,490.202 649.572,504.785 658.347,519.706 666.578,534.943 674.25,550.471 681.354,566.268 687.876,582.309 693.809,598.568 699.141,615.021 703.866,631.643 707.976,648.408 711.464,665.29 714.325,682.264 716.555,699.302 718.151,716.378 719.109,733.467 719.429,750.542"
       id="polyline88" />
    <polyline
       fill="none"
       stroke="#999999"
       stroke-width="1"
       stroke-dasharray="5"
       points="516.18,272.834 510.257,275.995 504.344,279.821 498.448,284.305 492.58,289.442 486.748,295.223 480.961,301.64 475.229,308.682 469.56,316.338 463.963,324.597 458.446,333.446 453.019,342.871 447.688,352.859 442.464,363.392 437.353,374.456 432.363,386.033 427.503,398.105 422.78,410.654 418.2,423.661 413.772,437.104 409.502,450.964 405.396,465.219 401.46,479.848 397.702,494.827 394.127,510.133 390.739,525.744 387.545,541.634 384.55,557.779 381.757,574.155 379.172,590.737 376.798,607.498 374.639,624.412 372.698,641.455 370.978,658.599 369.482,675.817 368.213,693.085 367.171,710.374 366.359,727.658 365.779,744.911 365.43,762.106 365.314,779.216"
       id="polyline90" />
    <polyline
       fill="none"
       stroke="#999999"
       stroke-width="1"
       stroke-dasharray="5"
       points="281.575,332.546 290.236,333.06 299.006,333.515 307.873,333.91 316.822,334.243 325.839,334.516 334.911,334.727 344.024,334.876 353.163,334.962 362.315,334.987 371.465,334.949 380.6,334.848 389.705,334.685 398.766,334.461 407.77,334.175 416.701,333.827 425.547,333.419 434.295,332.951 442.929,332.424 451.438,331.838 459.808,331.195 468.026,330.495 476.079,329.74 483.955,328.93 491.643,328.067 499.129,327.153 506.403,326.188 513.453,325.174 520.268,324.113 526.838,323.007 533.153,321.856 539.203,320.663 544.979,319.43 550.471,318.159 555.672,316.851 560.573,315.509 565.167,314.134 569.446,312.729 573.405,311.296 577.036,309.837 580.335,308.354"
       id="polyline92" />
    <polyline
       fill="none"
       stroke="#3333cc"
       stroke-width="5"
       style="marker-end:url(#Arrow2Mend)"
       points="361.298,697.449 459.808,331.195"
       id="polyline94" />
    <polyline
       fill="none"
       stroke="#999999"
       stroke-width="1"
       stroke-dasharray="5"
       points="304.925,289.94 321.199,291.304 337.447,293.335 353.645,296.031 369.768,299.387 385.791,303.398 401.689,308.059 417.438,313.361 433.014,319.297 448.392,325.858 463.549,333.033 478.461,340.811 493.106,349.181 507.46,358.129 521.503,367.642 535.211,377.705 548.564,388.303 561.542,399.418 574.124,411.035 586.29,423.135 598.023,435.699 609.304,448.708 620.116,462.142 630.442,475.981 640.266,490.202 649.572,504.785 658.347,519.706 666.578,534.943 674.25,550.471 681.354,566.268 687.876,582.309 693.809,598.568 699.141,615.021 703.866,631.643 707.976,648.408 711.464,665.29 714.325,682.264 716.555,699.302 718.151,716.378 719.109,733.467 719.429,750.542"
       id="polyline96" />
    <polyline
       fill="none"
       stroke="#999999"
       stroke-width="1"
       stroke-dasharray="5"
       points="745.777,492.196 742.647,493.866 739.522,495.888 736.407,498.258 733.306,500.972 730.224,504.027 727.166,507.418 724.137,511.139 721.141,515.185 718.184,519.549 715.269,524.225 712.4,529.206 709.584,534.484 706.823,540.05 704.122,545.896 701.486,552.014 698.917,558.393 696.421,565.025 694.001,571.898 691.661,579.002 689.405,586.326 687.235,593.859 685.155,601.589 683.169,609.504 681.28,617.593 679.49,625.842 677.802,634.239 676.219,642.77 674.744,651.424 673.377,660.186 672.123,669.043 670.982,677.981 669.956,686.987 669.047,696.047 668.257,705.146 667.586,714.27 667.036,723.406 666.607,732.54 666.3,741.657 666.116,750.743 666.054,759.784"
       id="polyline98" />
    <polyline
       fill="none"
       stroke="#999999"
       stroke-width="1"
       stroke-dasharray="5"
       points="210.431,607.108 226.821,608.081 243.418,608.942 260.197,609.689 277.131,610.32 294.196,610.836 311.363,611.235 328.608,611.517 345.904,611.681 363.223,611.727 380.539,611.655 397.825,611.464 415.055,611.157 432.202,610.732 449.24,610.19 466.142,609.532 482.883,608.76 499.436,607.875 515.776,606.877 531.878,605.768 547.717,604.551 563.268,603.227 578.509,601.797 593.414,600.265 607.961,598.632 622.128,596.902 635.892,595.076 649.234,593.158 662.131,591.15 674.564,589.056 686.515,586.879 697.964,584.622 708.893,582.288 719.287,579.882 729.129,577.407 738.404,574.867 747.097,572.266 755.196,569.607 762.687,566.895 769.559,564.134 775.801,561.328"
       id="polyline100" />
    <polyline
       fill="none"
       stroke="#3333cc"
       stroke-width="5"
       style="marker-end:url(#Arrow2Mend)"
       points="361.298,697.449 689.405,586.326"
       id="polyline102" />
    <polyline
       fill="none"
       stroke="#999999"
       stroke-width="1"
       stroke-dasharray="5"
       points="221.359,534.66 229.958,535.381 238.544,536.454 247.104,537.878 255.624,539.652 264.091,541.772 272.492,544.234 280.814,547.036 289.045,550.173 297.171,553.64 305.181,557.432 313.061,561.542 320.8,565.965 328.385,570.693 335.805,575.72 343.049,581.038 350.106,586.638 356.963,592.512 363.612,598.65 370.041,605.044 376.241,611.684 382.203,618.558 387.916,625.657 393.372,632.97 398.564,640.485 403.482,648.191 408.119,656.076 412.468,664.127 416.522,672.333 420.276,680.681 423.723,689.157 426.858,697.749 429.675,706.443 432.172,715.227 434.344,724.086 436.187,733.007 437.699,741.976 438.878,750.98 439.721,760.004 440.227,769.034 440.396,778.057"
       id="polyline104" />
    <polyline
       fill="none"
       stroke="#999999"
       stroke-width="1"
       stroke-dasharray="5"
       points="516.18,272.834 510.257,275.995 504.344,279.821 498.448,284.305 492.58,289.442 486.748,295.223 480.961,301.64 475.229,308.682 469.56,316.338 463.963,324.597 458.446,333.446 453.019,342.871 447.688,352.859 442.464,363.392 437.353,374.456 432.363,386.033 427.503,398.105 422.78,410.654 418.2,423.661 413.772,437.104 409.502,450.964 405.396,465.219 401.46,479.848 397.702,494.827 394.127,510.133 390.739,525.744 387.545,541.634 384.55,557.779 381.757,574.155 379.172,590.737 376.798,607.498 374.639,624.412 372.698,641.455 370.978,658.599 369.482,675.817 368.213,693.085 367.171,710.374 366.359,727.658 365.779,744.911 365.43,762.106 365.314,779.216"
       id="polyline106" />
    <polyline
       fill="none"
       stroke="#999999"
       stroke-width="1"
       stroke-dasharray="5"
       points="210.431,607.108 226.821,608.081 243.418,608.942 260.197,609.689 277.131,610.32 294.196,610.836 311.363,611.235 328.608,611.517 345.904,611.681 363.223,611.727 380.539,611.655 397.825,611.464 415.055,611.157 432.202,610.732 449.24,610.19 466.142,609.532 482.883,608.76 499.436,607.875 515.776,606.877 531.878,605.768 547.717,604.551 563.268,603.227 578.509,601.797 593.414,600.265 607.961,598.632 622.128,596.902 635.892,595.076 649.234,593.158 662.131,591.15 674.564,589.056 686.515,586.879 697.964,584.622 708.893,582.288 719.287,579.882 729.129,577.407 738.404,574.867 747.097,572.266 755.196,569.607 762.687,566.895 769.559,564.134 775.801,561.328"
       id="polyline108" />
    <polyline
       fill="none"
       stroke="#3333cc"
       stroke-width="5"
       style="marker-end:url(#Arrow2Mend)"
       points="361.298,697.449 376.241,611.684"
       id="polyline110" />
    <text
       fill="#000000"
       x="180.138"
       y="781.97101"
       font-size="15px"
       text-anchor="start"
       baseline-shift="0px"
       font-family="Times"
       font-style="italic"
       id="text112">x</text>
    <text
       fill="#000000"
       x="821.91699"
       y="726.81403"
       font-size="15px"
       text-anchor="start"
       baseline-shift="0px"
       font-family="Times"
       font-style="italic"
       id="text114">y</text>
    <text
       fill="#000000"
       x="357.298"
       y="224.435"
       font-size="15px"
       text-anchor="start"
       baseline-shift="0px"
       font-family="Times"
       font-style="italic"
       id="text116">z</text>
  </g>
  <metadata
     id="metadata303">
    <rdf:RDF>
      <cc:Work
         rdf:about="">
        <dc:title>lats4</dc:title>
      </cc:Work>
    </rdf:RDF>
  </metadata>
</svg>
