<?xml version="1.0" encoding="UTF-8" standalone="no"?>
<!-- Created with Inkscape (http://www.inkscape.org/) -->

<svg
   width="220.48619mm"
   height="42.811565mm"
   viewBox="0 0 220.48619 42.811565"
   version="1.1"
   id="svg5"
   inkscape:version="1.2.2 (b0a8486541, 2022-12-01)"
   sodipodi:docname="md-cc-gh.svg"
   xmlns:inkscape="http://www.inkscape.org/namespaces/inkscape"
   xmlns:sodipodi="http://sodipodi.sourceforge.net/DTD/sodipodi-0.dtd"
   xmlns="http://www.w3.org/2000/svg"
   xmlns:svg="http://www.w3.org/2000/svg">
  <sodipodi:namedview
     id="namedview7"
     pagecolor="#ffffff"
     bordercolor="#666666"
     borderopacity="1.0"
     inkscape:showpageshadow="2"
     inkscape:pageopacity="0.0"
     inkscape:pagecheckerboard="0"
     inkscape:deskcolor="#d1d1d1"
     inkscape:document-units="mm"
     showgrid="false"
     inkscape:zoom="0.74386223"
     inkscape:cx="211.06059"
     inkscape:cy="-65.872413"
     inkscape:window-width="1920"
     inkscape:window-height="1051"
     inkscape:window-x="1920"
     inkscape:window-y="0"
     inkscape:window-maximized="1"
     inkscape:current-layer="layer1" />
  <defs
     id="defs2" />
  <g
     inkscape:label="Layer 1"
     inkscape:groupmode="layer"
     id="layer1"
     transform="translate(-16.81024,-165.6001)">
    <g
       id="g507"
       transform="translate(-112.88746,-3.6432147)">
      <rect
         width="52.387501"
         height="31.220833"
         x="131.02061"
         y="175.03868"
         ry="2.6458333"
         stroke="#000000"
         stroke-width="2.64583"
         fill="none"
         id="rect182" />
      <path
         d="m 137.6352,199.64494 v -17.99167 h 5.29167 l 5.29166,6.61458 5.29167,-6.61458 h 5.29167 v 17.99167 h -5.29167 v -10.31875 l -5.29167,6.61458 -5.29166,-6.61458 v 10.31875 z m 33.07292,0 -7.9375,-8.73125 h 5.29166 v -9.26042 h 5.29167 v 9.26042 h 5.29167 z"
         id="path184"
         style="stroke-width:0.264583" />
    </g>
    <path
       fill-rule="evenodd"
       clip-rule="evenodd"
       d="m 207.5155,165.6001 c -12.12583,0 -21.94722,9.82138 -21.94722,21.94722 0,9.71165 6.2824,17.91442 15.00641,20.82242 1.09736,0.19204 1.50888,-0.46638 1.50888,-1.04249 0,-0.52125 -0.0274,-2.24959 -0.0274,-4.08767 -5.51424,1.01506 -6.94081,-1.34427 -7.37976,-2.5788 -0.2469,-0.63098 -1.31683,-2.57879 -2.24959,-3.10005 -0.76815,-0.4115 -1.86551,-1.42656 -0.0274,-1.454 1.72835,-0.0274 2.96288,1.59118 3.37439,2.24959 1.97525,3.31952 5.13016,2.38676 6.39212,1.81065 0.19205,-1.42657 0.76816,-2.38676 1.39914,-2.93544 -4.88325,-0.54868 -9.98598,-2.44163 -9.98598,-10.83644 0,-2.38676 0.85045,-4.36201 2.24959,-5.89832 -0.21948,-0.54868 -0.98763,-2.79827 0.21947,-5.81601 0,0 1.83808,-0.57612 6.03549,2.24959 1.75577,-0.49381 3.62129,-0.74072 5.4868,-0.74072 1.86551,0 3.73103,0.24691 5.48681,0.74072 4.1974,-2.85314 6.03548,-2.24959 6.03548,-2.24959 1.2071,3.01774 0.43894,5.26733 0.21947,5.81601 1.39914,1.53631 2.24959,3.48412 2.24959,5.89832 0,8.42224 -5.13016,10.28776 -10.01342,10.83644 0.79559,0.68585 1.48144,2.00268 1.48144,4.06024 0,2.93543 -0.0274,5.29476 -0.0274,6.03548 0,0.57611 0.41151,1.26196 1.50887,1.04249 8.66915,-2.908 14.95155,-11.13821 14.95155,-20.82242 0,-12.12584 -9.82139,-21.94722 -21.94722,-21.94722 z"
       fill="#1b1f23"
       id="path509"
       style="stroke-width:2.74339" />
    <g
       id="surface1"
       transform="matrix(1.0025541,0,0,1.0025541,81.80885,171.46629)">
      <path
         style="fill:#a8b0ab;fill-opacity:1;fill-rule:nonzero;stroke:none"
         d="m 2.300781,0.375 83.128907,0.148438 c 1.160156,0 2.199218,-0.171875 2.199218,2.332031 L 87.527344,30.410156 H 0.203125 V 2.753906 C 0.203125,1.519531 0.324219,0.375 2.300781,0.375 Z"
         id="path666" />
      <path
         style="fill:#000000;fill-opacity:1;fill-rule:nonzero;stroke:none"
         d="M 86.351563,0 H 1.648438 C 0.738281,0 0,0.742188 0,1.65625 V 30.625 C 0,30.832031 0.167969,31 0.371094,31 H 87.628906 C 87.832031,31 88,30.832031 88,30.625 V 1.65625 C 88,0.742188 87.261719,0 86.351563,0 Z M 1.648438,0.75 h 84.703125 c 0.5,0 0.902343,0.40625 0.902343,0.90625 0,0 0,11.699219 0,20.132813 H 26.515625 c -2.21875,4.039062 -6.492187,6.78125 -11.398437,6.78125 -4.910157,0 -9.183594,-2.738282 -11.402344,-6.78125 h -2.96875 c 0,-8.433594 0,-20.132813 0,-20.132813 0,-0.5 0.402344,-0.90625 0.902344,-0.90625 z"
         id="path668" />
      <path
         style="fill:#ffffff;fill-opacity:1;fill-rule:nonzero;stroke:none"
         d="m 54.125,24.171875 c 0.234375,0 0.445313,0.01953 0.636719,0.05859 0.191406,0.04297 0.351562,0.109375 0.488281,0.203125 0.136719,0.09375 0.242188,0.21875 0.316406,0.375 0.07422,0.152344 0.113282,0.34375 0.113282,0.574219 0,0.246093 -0.05469,0.449218 -0.167969,0.613281 -0.109375,0.164062 -0.273438,0.300781 -0.492188,0.40625 0.300782,0.08594 0.523438,0.238281 0.671875,0.453125 0.148438,0.21875 0.222657,0.480469 0.222657,0.785156 0,0.246094 -0.04687,0.460938 -0.144532,0.640625 -0.09375,0.179688 -0.222656,0.328125 -0.382812,0.441406 -0.164063,0.113282 -0.347656,0.199219 -0.554688,0.253907 -0.207031,0.05469 -0.417968,0.08203 -0.636718,0.08203 H 51.835938 V 24.17187 Z m -0.136719,1.976563 c 0.191407,0 0.347657,-0.04687 0.472657,-0.136719 0.121093,-0.09375 0.183593,-0.238281 0.183593,-0.445313 0,-0.113281 -0.01953,-0.207031 -0.0625,-0.277343 -0.03906,-0.07422 -0.09375,-0.132813 -0.164062,-0.171875 -0.06641,-0.04297 -0.144531,-0.07031 -0.234375,-0.08594 -0.08594,-0.01563 -0.179688,-0.02344 -0.273438,-0.02344 H 52.90625 v 1.140625 z m 0.0625,2.074218 c 0.105469,0 0.207032,-0.01172 0.300782,-0.03125 0.09766,-0.01953 0.179687,-0.05469 0.253906,-0.101562 0.07031,-0.05078 0.128906,-0.113281 0.171875,-0.195313 0.04297,-0.08203 0.06641,-0.1875 0.06641,-0.316406 0,-0.25 -0.07031,-0.429687 -0.210937,-0.535156 -0.140625,-0.109375 -0.328125,-0.160156 -0.558594,-0.160156 H 52.90625 v 1.339843 z"
         id="path670" />
      <path
         style="fill:#ffffff;fill-opacity:1;fill-rule:nonzero;stroke:none"
         d="m 56.101563,24.171875 h 1.199218 l 1.136719,1.929688 1.128906,-1.929688 h 1.191407 l -1.800782,3.011719 v 1.875 H 57.886719 V 27.15625 Z"
         id="path672" />
      <path
         style="fill:#ffffff;fill-opacity:1;fill-rule:nonzero;stroke:none"
         d="m 25.121094,14.472656 c 0.0039,5.554688 -4.472656,10.0625 -9.996094,10.066407 -5.519531,0.0039 -10,-4.5 -10.003906,-10.054688 0,-0.0039 0,-0.0078 0,-0.01172 C 5.117188,8.914063 9.59375,4.40625 15.113281,4.402344 c 5.523438,-0.00391 10.003907,4.5 10.007813,10.058594 0,0 0,0.0078 0,0.01172 z"
         id="path674" />
      <path
         style="fill:#000000;fill-opacity:1;fill-rule:nonzero;stroke:none"
         d="m 23.25,6.273438 c 2.214844,2.234375 3.324219,4.964843 3.324219,8.199218 0,3.230469 -1.089844,5.933594 -3.269531,8.109375 -2.3125,2.289063 -5.042969,3.433594 -8.199219,3.433594 -3.113281,0 -5.800781,-1.136719 -8.054688,-3.40625 C 4.792969,20.339844 3.667969,17.625 3.667969,14.472656 c 0,-3.15625 1.125,-5.890625 3.382812,-8.199218 2.195313,-2.230469 4.882813,-3.347657 8.054688,-3.347657 3.210937,0 5.925781,1.117188 8.144531,3.347657 z M 8.542969,7.777344 c -1.875,1.902344 -2.8125,4.136719 -2.8125,6.695312 0,2.5625 0.929687,4.773438 2.78125,6.640625 1.855469,1.867188 4.066406,2.800782 6.628906,2.800782 2.5625,0 4.789063,-0.941407 6.683594,-2.828125 1.796875,-1.753907 2.695312,-3.957032 2.695312,-6.613282 0,-2.636718 -0.914062,-4.871093 -2.738281,-6.710937 -1.828125,-1.839844 -4.039062,-2.757813 -6.640625,-2.757813 -2.601562,0 -4.800781,0.925782 -6.597656,2.773438 z m 4.933594,5.570312 C 13.1875,12.71875 12.761719,12.40625 12.1875,12.40625 c -1.011719,0 -1.515625,0.683594 -1.515625,2.054688 0,1.367187 0.503906,2.050781 1.515625,2.050781 0.667969,0 1.144531,-0.332031 1.429688,-1 l 1.402343,0.75 c -0.667968,1.195312 -1.667968,1.792969 -3.003906,1.792969 -1.03125,0 -1.859375,-0.316407 -2.476562,-0.953125 -0.621094,-0.636719 -0.933594,-1.511719 -0.933594,-2.628907 0,-1.101562 0.320312,-1.972656 0.960937,-2.617187 0.640625,-0.644531 1.4375,-0.96875 2.390625,-0.96875 1.414063,0 2.421875,0.5625 3.035157,1.679687 z m 6.589843,0 C 19.78125,12.71875 19.359375,12.40625 18.808594,12.40625 c -1.03125,0 -1.550781,0.683594 -1.550781,2.054688 0,1.367187 0.519531,2.050781 1.550781,2.050781 0.667969,0 1.136719,-0.332031 1.402344,-1 l 1.433593,0.75 c -0.667968,1.195312 -1.667968,1.792969 -3.003906,1.792969 -1.027344,0 -1.851562,-0.316407 -2.46875,-0.953125 -0.621094,-0.636719 -0.929687,-1.511719 -0.929687,-2.628907 0,-1.101562 0.3125,-1.972656 0.941406,-2.617187 0.628906,-0.644531 1.429687,-0.96875 2.402344,-0.96875 1.410156,0 2.417968,0.5625 3.027343,1.679687 z"
         id="path676" />
      <path
         style="fill:#ffffff;fill-opacity:1;fill-rule:nonzero;stroke:none"
         d="m 63.804688,11.230469 c 0,4.378906 -3.527344,7.925781 -7.875,7.925781 -4.351563,0 -7.875,-3.546875 -7.875,-7.925781 0,-4.375 3.523437,-7.925781 7.875,-7.925781 4.347656,0 7.875,3.550781 7.875,7.925781 z"
         id="path678" />
      <path
         style="fill:#000000;fill-opacity:1;fill-rule:nonzero;stroke:none"
         d="m 58.207031,8.9375 c 0,-0.304687 -0.246093,-0.550781 -0.546875,-0.550781 h -3.480468 c -0.300782,0 -0.546875,0.246094 -0.546875,0.550781 v 3.5 h 0.96875 v 4.148438 h 2.636718 V 12.4375 h 0.96875 z"
         id="path680" />
      <path
         style="fill:#000000;fill-opacity:1;fill-rule:nonzero;stroke:none"
         d="m 57.109375,6.726563 c 0,0.660156 -0.53125,1.199218 -1.1875,1.199218 -0.660156,0 -1.191406,-0.539062 -1.191406,-1.199218 0,-0.660157 0.53125,-1.195313 1.191406,-1.195313 0.65625,0 1.1875,0.535156 1.1875,1.195313 z"
         id="path682" />
      <path
         style="fill:#000000;fill-opacity:1;fill-rule:evenodd;stroke:none"
         d="m 55.910156,2.5 c -2.355468,0 -4.351562,0.828125 -5.984375,2.480469 -1.671875,1.710937 -2.507812,3.738281 -2.507812,6.078125 0,2.335937 0.835937,4.347656 2.507812,6.03125 1.675782,1.683594 3.671875,2.523437 5.984375,2.523437 2.339844,0 4.371094,-0.847656 6.085938,-2.542968 1.617187,-1.613282 2.429687,-3.617188 2.429687,-6.011719 0,-2.398438 -0.824218,-4.421875 -2.46875,-6.078125 C 60.308594,3.328125 58.292969,2.5 55.910156,2.5 Z m 0.01953,1.539063 c 1.929687,0 3.570312,0.683593 4.917968,2.054687 1.363282,1.355469 2.042969,3.007813 2.042969,4.964844 0,1.964844 -0.667969,3.601562 -2,4.898437 -1.40625,1.398438 -3.058594,2.097657 -4.960937,2.097657 -1.902344,0 -3.539063,-0.691407 -4.917969,-2.078125 -1.375,-1.382813 -2.0625,-3.023438 -2.0625,-4.917969 0,-1.898438 0.695312,-3.554688 2.085937,-4.964844 C 52.367188,4.722656 54,4.039063 55.929688,4.039063 Z"
         id="path684" />
    </g>
  </g>
</svg>
