<?xml version="1.0" encoding="UTF-8" standalone="no"?>
<!-- Created with Inkscape (http://www.inkscape.org/) -->

<svg
   width="442.30777"
   height="48.882832"
   id="svg2"
   version="1.1"
   inkscape:version="1.2.2 (b0a8486541, 2022-12-01)"
   sodipodi:docname="multigroup-energy.svg"
   xmlns:inkscape="http://www.inkscape.org/namespaces/inkscape"
   xmlns:sodipodi="http://sodipodi.sourceforge.net/DTD/sodipodi-0.dtd"
   xmlns="http://www.w3.org/2000/svg"
   xmlns:svg="http://www.w3.org/2000/svg"
   xmlns:rdf="http://www.w3.org/1999/02/22-rdf-syntax-ns#"
   xmlns:cc="http://creativecommons.org/ns#"
   xmlns:dc="http://purl.org/dc/elements/1.1/"
   xmlns:ns0="http://www.iki.fi/pav/software/textext/">
  <sodipodi:namedview
     id="base"
     pagecolor="#ffffff"
     bordercolor="#666666"
     borderopacity="1.0"
     inkscape:pageopacity="0.0"
     inkscape:pageshadow="2"
     inkscape:zoom="2.7683385"
     inkscape:cx="215.11098"
     inkscape:cy="55.990263"
     inkscape:document-units="px"
     inkscape:current-layer="layer1"
     showgrid="true"
     inkscape:snap-grids="true"
     inkscape:window-width="1920"
     inkscape:window-height="1015"
     inkscape:window-x="0"
     inkscape:window-y="0"
     inkscape:window-maximized="1"
     showguides="true"
     inkscape:guide-bbox="true"
     inkscape:showpageshadow="2"
     inkscape:pagecheckerboard="0"
     inkscape:deskcolor="#d1d1d1">
    <inkscape:grid
       id="grid2816"
       type="xygrid"
       originx="-87.24"
       originy="-134.46935" />
  </sodipodi:namedview>
  <defs
     id="defs4">
    <marker
       orient="auto"
       refY="0"
       refX="0"
       id="InfiniteLineStart"
       inkscape:stockid="InfiniteLineStart"
       style="overflow:visible">
      <g
         transform="translate(-13)"
         id="g3840">
        <circle
           cx="3"
           cy="0"
           r="0.80000001"
           id="circle3842" />
        <circle
           cx="6.5"
           cy="0"
           r="0.80000001"
           id="circle3844" />
        <circle
           cx="10"
           cy="0"
           r="0.80000001"
           id="circle3846" />
      </g>
    </marker>
    <marker
       orient="auto"
       refY="0"
       refX="0"
       id="InfiniteLineEnd"
       inkscape:stockid="InfiniteLineEnd"
       style="overflow:visible">
      <g
         id="g3831">
        <circle
           cx="3"
           cy="0"
           r="0.80000001"
           id="circle3833" />
        <circle
           cx="6.5"
           cy="0"
           r="0.80000001"
           id="circle3835" />
        <circle
           cx="10"
           cy="0"
           r="0.80000001"
           id="circle3837" />
      </g>
    </marker>
    <marker
       style="overflow:visible"
       id="StopL"
       refX="0"
       refY="0"
       orient="auto"
       inkscape:stockid="StopL">
      <path
         transform="scale(0.8)"
         style="fill:none;fill-opacity:0.75;fill-rule:evenodd;stroke:#000000;stroke-width:1pt"
         d="M 0,5.65 V -5.65"
         id="path3765" />
    </marker>
    <marker
       inkscape:stockid="DistanceStart"
       orient="auto"
       refY="0"
       refX="0"
       id="DistanceStart"
       style="overflow:visible">
      <g
         id="g2300">
        <path
           id="path2306"
           d="M 0,0 H 2"
           style="fill:none;stroke:#ffffff;stroke-width:1.15;stroke-linecap:square" />
        <path
           id="path2302"
           d="M 0,0 13,4 9,0 13,-4 Z"
           style="fill:#000000;fill-rule:evenodd;stroke:none" />
        <path
           id="path2304"
           d="M 0,-4 V 40"
           style="fill:none;stroke:#000000;stroke-width:1;stroke-linecap:square" />
      </g>
    </marker>
    <marker
       style="overflow:visible"
       id="Arrow2Mend"
       refX="0"
       refY="0"
       orient="auto"
       inkscape:stockid="Arrow2Mend">
      <path
         transform="scale(-0.6)"
         d="M 8.7185878,4.0337352 -2.2072895,0.01601326 8.7185884,-4.0017078 c -1.7454984,2.3720609 -1.7354408,5.6174519 -6e-7,8.035443 z"
         style="font-size:12px;fill-rule:evenodd;stroke-width:0.625;stroke-linejoin:round"
         id="path3622" />
    </marker>
    <marker
       style="overflow:visible"
       id="Arrow1Lend"
       refX="0"
       refY="0"
       orient="auto"
       inkscape:stockid="Arrow1Lend">
      <path
         transform="matrix(-0.8,0,0,-0.8,-10,0)"
         style="fill-rule:evenodd;stroke:#000000;stroke-width:1pt;marker-start:none"
         d="M 0,0 5,-5 -12.5,0 5,5 Z"
         id="path3598" />
    </marker>
    <inkscape:perspective
       id="perspective10"
       inkscape:persp3d-origin="372.04724 : -652.69196 : 1"
       inkscape:vp_z="744.09448 : -477.29826 : 1"
       inkscape:vp_y="0 : 1000 : 0"
       inkscape:vp_x="0 : -477.29826 : 1"
       sodipodi:type="inkscape:persp3d" />
    <inkscape:perspective
       sodipodi:type="inkscape:persp3d"
       inkscape:vp_x="0 : -1002.9794 : 1"
       inkscape:vp_y="0 : 1000 : 0"
       inkscape:vp_z="1 : -1002.9794 : 1"
       inkscape:persp3d-origin="0.5 : -1003.146 : 1"
       id="perspective5269" />
    <inkscape:perspective
       sodipodi:type="inkscape:persp3d"
       inkscape:vp_x="0 : -1002.9794 : 1"
       inkscape:vp_y="0 : 1000 : 0"
       inkscape:vp_z="1 : -1002.9794 : 1"
       inkscape:persp3d-origin="0.5 : -1003.146 : 1"
       id="perspective5466" />
  </defs>
  <metadata
     id="metadata7">
    <rdf:RDF>
      <cc:Work
         rdf:about="">
        <dc:format>image/svg+xml</dc:format>
        <dc:type
           rdf:resource="http://purl.org/dc/dcmitype/StillImage" />
      </cc:Work>
    </rdf:RDF>
  </metadata>
  <g
     id="layer1"
     inkscape:groupmode="layer"
     inkscape:label="Layer 1"
     transform="translate(-87.24,-134.46935)">
    <rect
       y="152.36218"
       x="100"
       height="10"
       width="55"
       id="rect3044"
       style="opacity:0.5;fill:#00b0b1;fill-opacity:1;fill-rule:evenodd;stroke:none;stroke-width:1px;stroke-linecap:butt;stroke-linejoin:miter;stroke-opacity:1" />
    <rect
       style="opacity:0.5;fill:#c6b0b1;fill-opacity:1;fill-rule:evenodd;stroke:none"
       id="rect3877"
       width="85"
       height="10"
       x="155"
       y="152.36218" />
    <rect
       y="152.36218"
       x="355"
       height="10"
       width="25"
       id="rect3879"
       style="opacity:0.5;fill:#93db4c;fill-opacity:1;fill-rule:evenodd;stroke:none" />
    <rect
       style="opacity:0.5;fill:#d0704c;fill-opacity:1;fill-rule:evenodd;stroke:none"
       id="rect3881"
       width="95"
       height="10"
       x="380"
       y="152.36218" />
    <path
       id="path5003"
       d="m 155,152.36218 v 10"
       style="fill:none;stroke:#000000;stroke-width:1px;stroke-linecap:butt;stroke-linejoin:miter;stroke-opacity:1" />
    <path
       id="path5005"
       d="m 240,152.36218 v 10"
       style="fill:none;stroke:#000000;stroke-width:1px;stroke-linecap:butt;stroke-linejoin:miter;stroke-opacity:1" />
    <path
       id="path5007"
       d="m 355,152.36218 v 10"
       style="fill:none;stroke:#000000;stroke-width:1px;stroke-linecap:butt;stroke-linejoin:miter;stroke-opacity:1" />
    <path
       id="path5009"
       d="m 380,152.36218 v 10"
       style="fill:none;stroke:#000000;stroke-width:1px;stroke-linecap:butt;stroke-linejoin:miter;stroke-opacity:1" />
    <path
       sodipodi:nodetypes="cc"
       inkscape:connector-curvature="0"
       id="path5011"
       d="m 475,147.36218 v 20"
       style="fill:none;stroke:#000000;stroke-width:1px;stroke-linecap:butt;stroke-linejoin:miter;stroke-opacity:1" />
    <g
       style="font-style:normal;font-variant:normal;font-weight:normal;font-stretch:normal;letter-spacing:normal;word-spacing:normal;text-anchor:start;fill:none;stroke:#000000;stroke-linecap:butt;stroke-linejoin:miter;stroke-miterlimit:10.433;stroke-dasharray:none;stroke-dashoffset:0;stroke-opacity:1"
       id="g5207"
       transform="matrix(1,0,0,-1,298.51,867.85218)"
       xml:space="preserve"
       stroke-miterlimit="10.433"
       fill-rule="even-odd"
       font-style="normal"
       font-variant="normal"
       font-weight="normal"
       font-stretch="normal"
       font-size-adjust="none"
       letter-spacing="normal"
       word-spacing="normal"
       ns0:text="$E$"
       ns0:preamble="/home/jeremy/papers/2010-enief/slides/preamble.tex"><path
         style="fill:#000000;stroke-width:0"
         d="m 230.49,709.44 v 0.01 0 0.01 l 0.01,0.01 v 0.01 l 0.01,0.01 v 0.01 0.01 l 0.01,0.01 v 0.01 0 0.01 h 0.01 v 0.01 0 0.01 0 0 0.01 0 0 l 0.01,0.01 v 0 0 0 c 0,0.01 0,0.11 -0.12,0.11 -0.09,0 -0.11,-0.06 -0.13,-0.12 -0.65,-1.47 -1.02,-2.14 -2.72,-2.14 h -1.46 c -0.14,0 -0.16,0 -0.22,0.01 -0.1,0.01 -0.13,0.02 -0.13,0.1 0,0.03 0,0.05 0.05,0.23 l 0.68,2.72 h 0.99 c 0.84,0 0.84,-0.21 0.84,-0.46 0,-0.07 0,-0.19 -0.07,-0.49 -0.02,-0.05 -0.02,-0.08 -0.02,-0.11 0,-0.05 0.03,-0.11 0.12,-0.11 0.08,0 0.11,0.05 0.15,0.2 l 0.57,2.33 c 0,0.06 -0.05,0.11 -0.12,0.11 -0.09,0 -0.11,-0.05 -0.14,-0.18 -0.21,-0.75 -0.39,-0.98 -1.3,-0.98 h -0.94 l 0.6,2.4 c 0.09,0.35 0.1,0.39 0.54,0.39 h 1.4 c 1.22,0 1.52,-0.29 1.52,-1.11 0,-0.24 0,-0.26 -0.04,-0.53 0,-0.05 -0.01,-0.12 -0.01,-0.17 0,-0.06 0.03,-0.12 0.12,-0.12 0.1,0 0.12,0.06 0.14,0.25 l 0.19,1.72 c 0.03,0.27 -0.02,0.27 -0.27,0.27 h -5.03 c -0.19,0 -0.3,0 -0.3,-0.2 0,-0.11 0.09,-0.11 0.28,-0.11 0.37,0 0.65,0 0.65,-0.18 0,-0.04 0,-0.06 -0.05,-0.24 L 225,707.9 c -0.1,-0.39 -0.12,-0.47 -0.91,-0.47 -0.17,0 -0.28,0 -0.28,-0.19 0,-0.12 0.09,-0.12 0.28,-0.12 h 5.17 c 0.23,0 0.24,0.01 0.31,0.17 z"
         id="path5209" /></g>
    <path
       sodipodi:nodetypes="cc"
       id="path5454"
       d="M 100,157.36218 H 260"
       style="fill:none;stroke:#000000;stroke-width:1px;stroke-linecap:butt;stroke-linejoin:miter;stroke-opacity:1;marker-end:url(#InfiniteLineEnd)" />
    <path
       sodipodi:nodetypes="cc"
       id="path5456"
       d="M 335,157.36218 H 515"
       style="fill:none;stroke:#000000;stroke-width:1px;stroke-linecap:butt;stroke-linejoin:miter;stroke-opacity:1;marker-start:url(#InfiniteLineStart);marker-end:url(#Arrow2Mend)" />
    <g
       ns0:preamble="/home/jeremy/papers/2010-enief/slides/preamble.tex"
       ns0:text="$E_G=0$"
       word-spacing="normal"
       letter-spacing="normal"
       font-size-adjust="none"
       font-stretch="normal"
       font-weight="normal"
       font-variant="normal"
       font-style="normal"
       fill-rule="even-odd"
       stroke-miterlimit="10.433"
       xml:space="preserve"
       transform="matrix(1,0,0,-1,-136.57,888.84218)"
       id="g6332"
       style="font-style:normal;font-variant:normal;font-weight:normal;font-stretch:normal;letter-spacing:normal;word-spacing:normal;text-anchor:start;fill:none;stroke:#000000;stroke-linecap:butt;stroke-linejoin:miter;stroke-miterlimit:10.433;stroke-dasharray:none;stroke-dashoffset:0;stroke-opacity:1"><path
         inkscape:connector-curvature="0"
         id="path6334"
         d="m 230.49,709.44 v 0.01 0 0.01 l 0.01,0.01 v 0.01 l 0.01,0.01 v 0.01 0.01 l 0.01,0.01 v 0.01 0 0.01 h 0.01 v 0.01 0 0.01 0 0 0.01 0 0 l 0.01,0.01 v 0 0 0 c 0,0.01 0,0.11 -0.12,0.11 -0.09,0 -0.11,-0.06 -0.13,-0.12 -0.65,-1.47 -1.02,-2.14 -2.72,-2.14 h -1.46 c -0.14,0 -0.16,0 -0.22,0.01 -0.1,0.01 -0.13,0.02 -0.13,0.1 0,0.03 0,0.05 0.05,0.23 l 0.68,2.72 h 0.99 c 0.84,0 0.84,-0.21 0.84,-0.46 0,-0.07 0,-0.19 -0.07,-0.49 -0.02,-0.05 -0.02,-0.08 -0.02,-0.11 0,-0.05 0.03,-0.11 0.12,-0.11 0.08,0 0.11,0.05 0.15,0.2 l 0.57,2.33 c 0,0.06 -0.05,0.11 -0.12,0.11 -0.09,0 -0.11,-0.05 -0.14,-0.18 -0.21,-0.75 -0.39,-0.98 -1.3,-0.98 h -0.94 l 0.6,2.4 c 0.09,0.35 0.1,0.39 0.54,0.39 h 1.4 c 1.22,0 1.52,-0.29 1.52,-1.11 0,-0.24 0,-0.26 -0.04,-0.53 0,-0.05 -0.01,-0.12 -0.01,-0.17 0,-0.06 0.03,-0.12 0.12,-0.12 0.1,0 0.12,0.06 0.14,0.25 l 0.19,1.72 c 0.03,0.27 -0.02,0.27 -0.27,0.27 h -5.03 c -0.19,0 -0.3,0 -0.3,-0.2 0,-0.11 0.09,-0.11 0.28,-0.11 0.37,0 0.65,0 0.65,-0.18 0,-0.04 0,-0.06 -0.05,-0.24 L 225,707.9 c -0.1,-0.39 -0.12,-0.47 -0.91,-0.47 -0.17,0 -0.28,0 -0.28,-0.19 0,-0.12 0.09,-0.12 0.28,-0.12 h 5.17 c 0.23,0 0.24,0.01 0.31,0.17 z"
         style="fill:#000000;stroke-width:0" /><path
         inkscape:connector-curvature="0"
         id="path6336"
         d="m 236.66,710.44 v 0.01 0 0 0.01 0 0 0.01 0 0 l -0.01,0.01 v 0 0.01 0 0 l -0.01,0.01 v 0 0 0.01 h -0.01 v 0 0.01 h -0.01 v 0 h -0.01 v 0.01 0 h -0.01 -0.01 v 0 0 0 h -0.01 v 0 0 h -0.01 v 0 c -0.05,0 -0.06,-0.01 -0.12,-0.08 l -0.51,-0.54 c -0.07,0.09 -0.46,0.62 -1.32,0.62 -1.69,0 -3.35,-1.5 -3.35,-3.07 0,-1.08 0.82,-1.97 2.16,-1.97 0.62,0 1.27,0.16 1.63,0.55 0.07,-0.15 0.26,-0.4 0.34,-0.4 0.06,0 0.08,0.02 0.11,0.17 l 0.13,0.54 c 0.04,0.12 0.14,0.54 0.16,0.63 0.08,0.31 0.09,0.32 0.5,0.32 0.05,0 0.15,0 0.15,0.15 0,0.07 -0.05,0.1 -0.1,0.1 -0.23,0 -0.53,-0.02 -0.77,-0.02 -0.17,0 -0.4,0 -0.58,0 -0.17,0.01 -0.38,0.02 -0.55,0.02 -0.05,0 -0.15,0 -0.15,-0.15 0,-0.1 0.07,-0.1 0.25,-0.1 0.13,0 0.27,0 0.4,-0.01 0.23,-0.02 0.23,-0.05 0.23,-0.13 0,-0.03 0,-0.05 -0.05,-0.23 -0.04,-0.19 -0.12,-0.51 -0.15,-0.58 -0.2,-0.42 -0.85,-0.61 -1.39,-0.61 -0.7,0 -1.61,0.34 -1.61,1.52 0,0.74 0.34,1.68 0.86,2.2 0.72,0.71 1.46,0.82 1.86,0.82 0.8,0 1.28,-0.58 1.28,-1.37 0,-0.19 -0.02,-0.24 -0.02,-0.28 0,-0.09 0.09,-0.09 0.12,-0.09 0.11,0 0.11,0.02 0.15,0.15 z"
         style="fill:#000000;stroke-width:0" /><path
         inkscape:connector-curvature="0"
         id="path6338"
         d="m 247.1,710.38 h 0.03 0.03 0.03 0.01 0.02 0.01 l 0.01,0.01 h 0.02 0.01 0.02 l 0.01,0.01 h 0.01 l 0.01,0.01 h 0.02 l 0.01,0.01 h 0.01 l 0.01,0.01 0.01,0.01 h 0.01 l 0.01,0.01 0.01,0.01 v 0.01 0.01 h 0.01 v 0.01 0 l 0.01,0.01 v 0.01 0 0.01 0.01 0.01 h 0.01 v 0.01 0.01 0.01 0.01 c 0,0.2 -0.19,0.2 -0.33,0.2 h -5.97 c -0.14,0 -0.33,0 -0.33,-0.2 0,-0.2 0.19,-0.2 0.34,-0.2 z"
         style="fill:#000000;stroke-width:0" /><path
         inkscape:connector-curvature="0"
         id="path6340"
         d="m 247.11,708.45 h 0.03 0.02 0.03 0.02 0.01 0.01 0.02 l 0.01,0.01 h 0.01 0.02 0.01 l 0.01,0.01 h 0.02 l 0.01,0.01 h 0.01 l 0.01,0.01 0.01,0.01 h 0.01 l 0.01,0.01 0.01,0.01 v 0.01 h 0.01 v 0.01 0 l 0.01,0.01 v 0 0.01 l 0.01,0.01 v 0 0.01 0.01 0.01 0 l 0.01,0.01 v 0.01 0.01 0.01 0.01 c 0,0.2 -0.19,0.2 -0.34,0.2 h -5.95 c -0.15,0 -0.34,0 -0.34,-0.2 0,-0.2 0.19,-0.2 0.33,-0.2 z"
         style="fill:#000000;stroke-width:0" /><path
         inkscape:connector-curvature="0"
         id="path6342"
         d="m 255.35,710.31 v 0.15 0.15 0.15 l -0.01,0.15 -0.01,0.15 -0.01,0.14 -0.02,0.15 -0.02,0.15 -0.02,0.15 -0.03,0.14 -0.03,0.15 -0.04,0.14 -0.04,0.14 -0.05,0.14 -0.05,0.14 -0.03,0.07 -0.04,0.07 c -0.45,0.96 -1.27,1.12 -1.69,1.12 -0.6,0 -1.32,-0.26 -1.73,-1.19 -0.32,-0.68 -0.37,-1.46 -0.37,-2.26 0,-0.75 0.04,-1.64 0.45,-2.4 0.43,-0.81 1.15,-1.01 1.64,-1.01 v 0.22 c -0.39,0 -0.98,0.25 -1.15,1.21 -0.11,0.6 -0.11,1.51 -0.11,2.1 0,0.64 0,1.29 0.08,1.83 0.18,1.19 0.93,1.28 1.18,1.28 0.33,0 0.99,-0.18 1.18,-1.17 0.1,-0.55 0.1,-1.31 0.1,-1.94 0,-0.75 0,-1.42 -0.11,-2.06 -0.15,-0.95 -0.72,-1.25 -1.17,-1.25 v 0 -0.22 c 0.54,0 1.3,0.21 1.73,1.16 0.32,0.69 0.37,1.46 0.37,2.25 z"
         style="fill:#000000;stroke-width:0" /></g>
    <g
       style="font-style:normal;font-variant:normal;font-weight:normal;font-stretch:normal;letter-spacing:normal;word-spacing:normal;text-anchor:start;fill:none;stroke:#000000;stroke-linecap:butt;stroke-linejoin:miter;stroke-miterlimit:10.433;stroke-dasharray:none;stroke-dashoffset:0;stroke-opacity:1"
       id="g6442"
       transform="matrix(1,0,0,-1,-80.94,888.22218)"
       xml:space="preserve"
       stroke-miterlimit="10.433"
       fill-rule="even-odd"
       font-style="normal"
       font-variant="normal"
       font-weight="normal"
       font-stretch="normal"
       font-size-adjust="none"
       letter-spacing="normal"
       word-spacing="normal"
       ns0:text="$E_{G-1}$"
       ns0:preamble="/home/jeremy/papers/2010-enief/slides/preamble.tex"><path
         inkscape:connector-curvature="0"
         style="fill:#000000;stroke-width:0"
         d="m 230.49,709.44 v 0.01 0 0.01 l 0.01,0.01 v 0.01 l 0.01,0.01 v 0.01 0.01 l 0.01,0.01 v 0.01 0 0.01 h 0.01 v 0.01 0 0.01 0 0 0.01 0 0 l 0.01,0.01 v 0 0 0 c 0,0.01 0,0.11 -0.12,0.11 -0.09,0 -0.11,-0.06 -0.13,-0.12 -0.65,-1.47 -1.02,-2.14 -2.72,-2.14 h -1.46 c -0.14,0 -0.16,0 -0.22,0.01 -0.1,0.01 -0.13,0.02 -0.13,0.1 0,0.03 0,0.05 0.05,0.23 l 0.68,2.72 h 0.99 c 0.84,0 0.84,-0.21 0.84,-0.46 0,-0.07 0,-0.19 -0.07,-0.49 -0.02,-0.05 -0.02,-0.08 -0.02,-0.11 0,-0.05 0.03,-0.11 0.12,-0.11 0.08,0 0.11,0.05 0.15,0.2 l 0.57,2.33 c 0,0.06 -0.05,0.11 -0.12,0.11 -0.09,0 -0.11,-0.05 -0.14,-0.18 -0.21,-0.75 -0.39,-0.98 -1.3,-0.98 h -0.94 l 0.6,2.4 c 0.09,0.35 0.1,0.39 0.54,0.39 h 1.4 c 1.22,0 1.52,-0.29 1.52,-1.11 0,-0.24 0,-0.26 -0.04,-0.53 0,-0.05 -0.01,-0.12 -0.01,-0.17 0,-0.06 0.03,-0.12 0.12,-0.12 0.1,0 0.12,0.06 0.14,0.25 l 0.19,1.72 c 0.03,0.27 -0.02,0.27 -0.27,0.27 h -5.03 c -0.19,0 -0.3,0 -0.3,-0.2 0,-0.11 0.09,-0.11 0.28,-0.11 0.37,0 0.65,0 0.65,-0.18 0,-0.04 0,-0.06 -0.05,-0.24 L 225,707.9 c -0.1,-0.39 -0.12,-0.47 -0.91,-0.47 -0.17,0 -0.28,0 -0.28,-0.19 0,-0.12 0.09,-0.12 0.28,-0.12 h 5.17 c 0.23,0 0.24,0.01 0.31,0.17 z"
         id="path6444" /><path
         inkscape:connector-curvature="0"
         style="fill:#000000;stroke-width:0"
         d="m 236.66,710.44 v 0.01 0 0 0.01 0 0 0.01 0 0 l -0.01,0.01 v 0 0.01 0 0 l -0.01,0.01 v 0 0 0.01 h -0.01 v 0 0.01 h -0.01 v 0 h -0.01 v 0.01 0 h -0.01 -0.01 v 0 0 0 h -0.01 v 0 0 h -0.01 v 0 c -0.05,0 -0.06,-0.01 -0.12,-0.08 l -0.51,-0.54 c -0.07,0.09 -0.46,0.62 -1.32,0.62 -1.69,0 -3.35,-1.5 -3.35,-3.07 0,-1.08 0.82,-1.97 2.16,-1.97 0.62,0 1.27,0.16 1.63,0.55 0.07,-0.15 0.26,-0.4 0.34,-0.4 0.06,0 0.08,0.02 0.11,0.17 l 0.13,0.54 c 0.04,0.12 0.14,0.54 0.16,0.63 0.08,0.31 0.09,0.32 0.5,0.32 0.05,0 0.15,0 0.15,0.15 0,0.07 -0.05,0.1 -0.1,0.1 -0.23,0 -0.53,-0.02 -0.77,-0.02 -0.17,0 -0.4,0 -0.58,0 -0.17,0.01 -0.38,0.02 -0.55,0.02 -0.05,0 -0.15,0 -0.15,-0.15 0,-0.1 0.07,-0.1 0.25,-0.1 0.13,0 0.27,0 0.4,-0.01 0.23,-0.02 0.23,-0.05 0.23,-0.13 0,-0.03 0,-0.05 -0.05,-0.23 -0.04,-0.19 -0.12,-0.51 -0.15,-0.58 -0.2,-0.42 -0.85,-0.61 -1.39,-0.61 -0.7,0 -1.61,0.34 -1.61,1.52 0,0.74 0.34,1.68 0.86,2.2 0.72,0.71 1.46,0.82 1.86,0.82 0.8,0 1.28,-0.58 1.28,-1.37 0,-0.19 -0.02,-0.24 -0.02,-0.28 0,-0.09 0.09,-0.09 0.12,-0.09 0.11,0 0.11,0.02 0.15,0.15 z"
         id="path6446" /><path
         inkscape:connector-curvature="0"
         style="fill:#000000;stroke-width:0"
         d="m 242.18,707.21 h 0.01 0.01 0.01 0.02 0.02 0.01 0.01 0.01 0.02 0.01 0.01 l 0.01,0.01 h 0.01 0.01 l 0.01,0.01 h 0.01 l 0.01,0.01 h 0.01 l 0.01,0.01 h 0.01 l 0.01,0.01 0.01,0.01 v 0 0.01 h 0.01 v 0.01 0 0.01 h 0.01 v 0.01 0 0.01 0 l 0.01,0.01 v 0.01 0 0.01 0.01 0.01 0 c 0,0.18 -0.16,0.18 -0.28,0.18 h -4.16 c -0.11,0 -0.27,0 -0.27,-0.17 0,-0.17 0.16,-0.17 0.27,-0.17 z"
         id="path6448" /><path
         inkscape:connector-curvature="0"
         style="fill:#000000;stroke-width:0"
         d="m 245.55,710.07 v 0 0.01 0.01 0.01 0.01 0 0.01 0.01 0 0.01 0.01 0 0.01 0 0.01 0.01 0 0.01 h -0.01 v 0.01 0.01 0.01 h -0.01 v 0.01 h -0.01 v 0.01 h -0.01 l -0.01,0.01 v 0 h -0.01 -0.01 l -0.01,0.01 v 0 h -0.01 -0.01 v 0 h -0.01 v 0 h -0.01 -0.01 v 0 h -0.01 -0.01 v 0 h -0.01 -0.01 -0.01 -0.01 -0.01 v 0 c -0.45,-0.44 -1.09,-0.45 -1.37,-0.45 v -0.25 c 0.17,0 0.62,0 1.01,0.2 v -3.56 c 0,-0.23 0,-0.32 -0.7,-0.32 h -0.26 v -0.25 c 0.12,0.01 0.98,0.03 1.24,0.03 0.21,0 1.09,-0.02 1.25,-0.03 v 0.25 h -0.27 c -0.7,0 -0.7,0.09 -0.7,0.32 z"
         id="path6450" /></g>
    <g
       ns0:preamble="/home/jeremy/papers/2010-enief/slides/preamble.tex"
       ns0:text="$E_{G-2}$"
       word-spacing="normal"
       letter-spacing="normal"
       font-size-adjust="none"
       font-stretch="normal"
       font-weight="normal"
       font-variant="normal"
       font-style="normal"
       fill-rule="even-odd"
       stroke-miterlimit="10.433"
       xml:space="preserve"
       transform="matrix(1,0,0,-1,4.06,888.22218)"
       id="g6558"
       style="font-style:normal;font-variant:normal;font-weight:normal;font-stretch:normal;letter-spacing:normal;word-spacing:normal;text-anchor:start;fill:none;stroke:#000000;stroke-linecap:butt;stroke-linejoin:miter;stroke-miterlimit:10.433;stroke-dasharray:none;stroke-dashoffset:0;stroke-opacity:1"><path
         inkscape:connector-curvature="0"
         id="path6560"
         d="m 230.49,709.44 v 0.01 0 0.01 l 0.01,0.01 v 0.01 l 0.01,0.01 v 0.01 0.01 l 0.01,0.01 v 0.01 0 0.01 h 0.01 v 0.01 0 0.01 0 0 0.01 0 0 l 0.01,0.01 v 0 0 0 c 0,0.01 0,0.11 -0.12,0.11 -0.09,0 -0.11,-0.06 -0.13,-0.12 -0.65,-1.47 -1.02,-2.14 -2.72,-2.14 h -1.46 c -0.14,0 -0.16,0 -0.22,0.01 -0.1,0.01 -0.13,0.02 -0.13,0.1 0,0.03 0,0.05 0.05,0.23 l 0.68,2.72 h 0.99 c 0.84,0 0.84,-0.21 0.84,-0.46 0,-0.07 0,-0.19 -0.07,-0.49 -0.02,-0.05 -0.02,-0.08 -0.02,-0.11 0,-0.05 0.03,-0.11 0.12,-0.11 0.08,0 0.11,0.05 0.15,0.2 l 0.57,2.33 c 0,0.06 -0.05,0.11 -0.12,0.11 -0.09,0 -0.11,-0.05 -0.14,-0.18 -0.21,-0.75 -0.39,-0.98 -1.3,-0.98 h -0.94 l 0.6,2.4 c 0.09,0.35 0.1,0.39 0.54,0.39 h 1.4 c 1.22,0 1.52,-0.29 1.52,-1.11 0,-0.24 0,-0.26 -0.04,-0.53 0,-0.05 -0.01,-0.12 -0.01,-0.17 0,-0.06 0.03,-0.12 0.12,-0.12 0.1,0 0.12,0.06 0.14,0.25 l 0.19,1.72 c 0.03,0.27 -0.02,0.27 -0.27,0.27 h -5.03 c -0.19,0 -0.3,0 -0.3,-0.2 0,-0.11 0.09,-0.11 0.28,-0.11 0.37,0 0.65,0 0.65,-0.18 0,-0.04 0,-0.06 -0.05,-0.24 L 225,707.9 c -0.1,-0.39 -0.12,-0.47 -0.91,-0.47 -0.17,0 -0.28,0 -0.28,-0.19 0,-0.12 0.09,-0.12 0.28,-0.12 h 5.17 c 0.23,0 0.24,0.01 0.31,0.17 z"
         style="fill:#000000;stroke-width:0" /><path
         inkscape:connector-curvature="0"
         id="path6562"
         d="m 236.66,710.44 v 0.01 0 0 0.01 0 0 0.01 0 0 l -0.01,0.01 v 0 0.01 0 0 l -0.01,0.01 v 0 0 0.01 h -0.01 v 0 0.01 h -0.01 v 0 h -0.01 v 0.01 0 h -0.01 -0.01 v 0 0 0 h -0.01 v 0 0 h -0.01 v 0 c -0.05,0 -0.06,-0.01 -0.12,-0.08 l -0.51,-0.54 c -0.07,0.09 -0.46,0.62 -1.32,0.62 -1.69,0 -3.35,-1.5 -3.35,-3.07 0,-1.08 0.82,-1.97 2.16,-1.97 0.62,0 1.27,0.16 1.63,0.55 0.07,-0.15 0.26,-0.4 0.34,-0.4 0.06,0 0.08,0.02 0.11,0.17 l 0.13,0.54 c 0.04,0.12 0.14,0.54 0.16,0.63 0.08,0.31 0.09,0.32 0.5,0.32 0.05,0 0.15,0 0.15,0.15 0,0.07 -0.05,0.1 -0.1,0.1 -0.23,0 -0.53,-0.02 -0.77,-0.02 -0.17,0 -0.4,0 -0.58,0 -0.17,0.01 -0.38,0.02 -0.55,0.02 -0.05,0 -0.15,0 -0.15,-0.15 0,-0.1 0.07,-0.1 0.25,-0.1 0.13,0 0.27,0 0.4,-0.01 0.23,-0.02 0.23,-0.05 0.23,-0.13 0,-0.03 0,-0.05 -0.05,-0.23 -0.04,-0.19 -0.12,-0.51 -0.15,-0.58 -0.2,-0.42 -0.85,-0.61 -1.39,-0.61 -0.7,0 -1.61,0.34 -1.61,1.52 0,0.74 0.34,1.68 0.86,2.2 0.72,0.71 1.46,0.82 1.86,0.82 0.8,0 1.28,-0.58 1.28,-1.37 0,-0.19 -0.02,-0.24 -0.02,-0.28 0,-0.09 0.09,-0.09 0.12,-0.09 0.11,0 0.11,0.02 0.15,0.15 z"
         style="fill:#000000;stroke-width:0" /><path
         inkscape:connector-curvature="0"
         id="path6564"
         d="m 242.18,707.21 h 0.01 0.01 0.01 0.02 0.02 0.01 0.01 0.01 0.02 0.01 0.01 l 0.01,0.01 h 0.01 0.01 l 0.01,0.01 h 0.01 l 0.01,0.01 h 0.01 l 0.01,0.01 h 0.01 l 0.01,0.01 0.01,0.01 v 0 0.01 h 0.01 v 0.01 0 0.01 h 0.01 v 0.01 0 0.01 0 l 0.01,0.01 v 0.01 0 0.01 0.01 0.01 0 c 0,0.18 -0.16,0.18 -0.28,0.18 h -4.16 c -0.11,0 -0.27,0 -0.27,-0.17 0,-0.17 0.16,-0.17 0.27,-0.17 z"
         style="fill:#000000;stroke-width:0" /><path
         inkscape:connector-curvature="0"
         id="path6566"
         d="m 246.74,706.9 h -0.24 c -0.02,-0.15 -0.09,-0.57 -0.18,-0.63 -0.06,-0.05 -0.59,-0.05 -0.69,-0.05 h -1.28 c 0.73,0.65 0.97,0.85 1.39,1.17 0.52,0.42 1,0.85 1,1.51 0,0.84 -0.74,1.36 -1.63,1.36 -0.87,0 -1.45,-0.61 -1.45,-1.25 0,-0.35 0.3,-0.39 0.37,-0.39 0.16,0 0.37,0.12 0.37,0.37 0,0.13 -0.05,0.37 -0.41,0.37 0.21,0.5 0.69,0.65 1.01,0.65 0.7,0 1.06,-0.54 1.06,-1.11 0,-0.61 -0.43,-1.09 -0.65,-1.34 l -1.68,-1.66 c -0.07,-0.06 -0.07,-0.07 -0.07,-0.27 h 2.87 z"
         style="fill:#000000;stroke-width:0" /></g>
    <g
       style="font-style:normal;font-variant:normal;font-weight:normal;font-stretch:normal;letter-spacing:normal;word-spacing:normal;text-anchor:start;fill:none;stroke:#000000;stroke-linecap:butt;stroke-linejoin:miter;stroke-miterlimit:10.433;stroke-dasharray:none;stroke-dashoffset:0;stroke-opacity:1"
       id="g6684"
       transform="matrix(1,0,0,-1,244.51,887.75218)"
       xml:space="preserve"
       stroke-miterlimit="10.433"
       fill-rule="even-odd"
       font-style="normal"
       font-variant="normal"
       font-weight="normal"
       font-stretch="normal"
       font-size-adjust="none"
       letter-spacing="normal"
       word-spacing="normal"
       ns0:text="$E_0$"
       ns0:preamble="/home/jeremy/papers/2010-enief/slides/preamble.tex"><path
         inkscape:connector-curvature="0"
         style="fill:#000000;stroke-width:0"
         d="m 230.49,709.44 v 0.01 0 0.01 l 0.01,0.01 v 0.01 l 0.01,0.01 v 0.01 0.01 l 0.01,0.01 v 0.01 0 0.01 h 0.01 v 0.01 0 0.01 0 0 0.01 0 0 l 0.01,0.01 v 0 0 0 c 0,0.01 0,0.11 -0.12,0.11 -0.09,0 -0.11,-0.06 -0.13,-0.12 -0.65,-1.47 -1.02,-2.14 -2.72,-2.14 h -1.46 c -0.14,0 -0.16,0 -0.22,0.01 -0.1,0.01 -0.13,0.02 -0.13,0.1 0,0.03 0,0.05 0.05,0.23 l 0.68,2.72 h 0.99 c 0.84,0 0.84,-0.21 0.84,-0.46 0,-0.07 0,-0.19 -0.07,-0.49 -0.02,-0.05 -0.02,-0.08 -0.02,-0.11 0,-0.05 0.03,-0.11 0.12,-0.11 0.08,0 0.11,0.05 0.15,0.2 l 0.57,2.33 c 0,0.06 -0.05,0.11 -0.12,0.11 -0.09,0 -0.11,-0.05 -0.14,-0.18 -0.21,-0.75 -0.39,-0.98 -1.3,-0.98 h -0.94 l 0.6,2.4 c 0.09,0.35 0.1,0.39 0.54,0.39 h 1.4 c 1.22,0 1.52,-0.29 1.52,-1.11 0,-0.24 0,-0.26 -0.04,-0.53 0,-0.05 -0.01,-0.12 -0.01,-0.17 0,-0.06 0.03,-0.12 0.12,-0.12 0.1,0 0.12,0.06 0.14,0.25 l 0.19,1.72 c 0.03,0.27 -0.02,0.27 -0.27,0.27 h -5.03 c -0.19,0 -0.3,0 -0.3,-0.2 0,-0.11 0.09,-0.11 0.28,-0.11 0.37,0 0.65,0 0.65,-0.18 0,-0.04 0,-0.06 -0.05,-0.24 L 225,707.9 c -0.1,-0.39 -0.12,-0.47 -0.91,-0.47 -0.17,0 -0.28,0 -0.28,-0.19 0,-0.12 0.09,-0.12 0.28,-0.12 h 5.17 c 0.23,0 0.24,0.01 0.31,0.17 z"
         id="path6686" /><path
         inkscape:connector-curvature="0"
         style="fill:#000000;stroke-width:0"
         d="m 234.38,707.85 v 0.15 0.13 l -0.01,0.13 -0.01,0.13 -0.01,0.13 -0.01,0.11 -0.02,0.12 -0.02,0.11 -0.03,0.11 -0.03,0.11 -0.03,0.1 -0.04,0.1 -0.04,0.1 -0.05,0.09 -0.05,0.1 -0.03,0.05 -0.03,0.04 c -0.22,0.32 -0.65,0.6 -1.21,0.6 -1.61,0 -1.61,-1.9 -1.61,-2.41 0,-0.5 0,-2.36 1.61,-2.36 v 0.2 c -0.32,0 -0.74,0.18 -0.88,0.76 -0.1,0.41 -0.1,0.98 -0.1,1.5 0,0.5 0,1.03 0.1,1.42 0.15,0.55 0.6,0.7 0.88,0.7 0.38,0 0.74,-0.23 0.87,-0.64 0.11,-0.38 0.12,-0.88 0.12,-1.48 0,-0.52 0,-1.04 -0.09,-1.48 -0.14,-0.63 -0.62,-0.78 -0.9,-0.78 v 0 -0.2 c 1.62,0 1.62,1.86 1.62,2.36 z"
         id="path6688" /></g>
    <g
       style="font-style:normal;font-variant:normal;font-weight:normal;font-stretch:normal;letter-spacing:normal;word-spacing:normal;text-anchor:start;fill:none;stroke:#000000;stroke-linecap:butt;stroke-linejoin:miter;stroke-miterlimit:10.433;stroke-dasharray:none;stroke-dashoffset:0;stroke-opacity:1"
       ns0:preamble="/home/jeremy/papers/2010-enief/slides/preamble.tex"
       ns0:text="$E_1$"
       word-spacing="normal"
       letter-spacing="normal"
       font-size-adjust="none"
       font-stretch="normal"
       font-weight="normal"
       font-variant="normal"
       font-style="normal"
       fill-rule="even-odd"
       stroke-miterlimit="10.433"
       xml:space="preserve"
       transform="matrix(1,0,0,-1,151.75,887.85218)"
       id="g6812"><path
         inkscape:connector-curvature="0"
         style="fill:#000000;stroke-width:0"
         id="path6814"
         d="m 230.49,709.44 v 0.01 0 0.01 l 0.01,0.01 v 0.01 l 0.01,0.01 v 0.01 0.01 l 0.01,0.01 v 0.01 0 0.01 h 0.01 v 0.01 0 0.01 0 0 0.01 0 0 l 0.01,0.01 v 0 0 0 c 0,0.01 0,0.11 -0.12,0.11 -0.09,0 -0.11,-0.06 -0.13,-0.12 -0.65,-1.47 -1.02,-2.14 -2.72,-2.14 h -1.46 c -0.14,0 -0.16,0 -0.22,0.01 -0.1,0.01 -0.13,0.02 -0.13,0.1 0,0.03 0,0.05 0.05,0.23 l 0.68,2.72 h 0.99 c 0.84,0 0.84,-0.21 0.84,-0.46 0,-0.07 0,-0.19 -0.07,-0.49 -0.02,-0.05 -0.02,-0.08 -0.02,-0.11 0,-0.05 0.03,-0.11 0.12,-0.11 0.08,0 0.11,0.05 0.15,0.2 l 0.57,2.33 c 0,0.06 -0.05,0.11 -0.12,0.11 -0.09,0 -0.11,-0.05 -0.14,-0.18 -0.21,-0.75 -0.39,-0.98 -1.3,-0.98 h -0.94 l 0.6,2.4 c 0.09,0.35 0.1,0.39 0.54,0.39 h 1.4 c 1.22,0 1.52,-0.29 1.52,-1.11 0,-0.24 0,-0.26 -0.04,-0.53 0,-0.05 -0.01,-0.12 -0.01,-0.17 0,-0.06 0.03,-0.12 0.12,-0.12 0.1,0 0.12,0.06 0.14,0.25 l 0.19,1.72 c 0.03,0.27 -0.02,0.27 -0.27,0.27 h -5.03 c -0.19,0 -0.3,0 -0.3,-0.2 0,-0.11 0.09,-0.11 0.28,-0.11 0.37,0 0.65,0 0.65,-0.18 0,-0.04 0,-0.06 -0.05,-0.24 L 225,707.9 c -0.1,-0.39 -0.12,-0.47 -0.91,-0.47 -0.17,0 -0.28,0 -0.28,-0.19 0,-0.12 0.09,-0.12 0.28,-0.12 h 5.17 c 0.23,0 0.24,0.01 0.31,0.17 z" /><path
         inkscape:connector-curvature="0"
         style="fill:#000000;stroke-width:0"
         id="path6816"
         d="m 233.12,710.07 v 0 0.01 0.01 0.01 0.01 0 0.01 0.01 0 0.01 0.01 0 0.01 0 l -0.01,0.01 v 0.01 0 0.01 0 0.01 l -0.01,0.01 v 0.01 0 l -0.01,0.01 v 0 l -0.01,0.01 v 0 l -0.01,0.01 h -0.01 -0.01 -0.01 v 0.01 h -0.01 -0.01 v 0 h -0.01 v 0 H 233 v 0 h -0.01 -0.01 -0.01 v 0 h -0.01 -0.01 -0.01 v 0 h -0.01 -0.01 -0.01 c -0.45,-0.44 -1.08,-0.45 -1.37,-0.45 v -0.25 c 0.17,0 0.63,0 1.01,0.2 v -3.56 c 0,-0.23 0,-0.32 -0.69,-0.32 h -0.27 v -0.25 c 0.13,0.01 0.98,0.03 1.24,0.03 0.22,0 1.1,-0.02 1.25,-0.03 v 0.25 h -0.26 c -0.7,0 -0.7,0.09 -0.7,0.32 z" /></g>
    <g
       style="font-style:normal;font-variant:normal;font-weight:normal;font-stretch:normal;letter-spacing:normal;word-spacing:normal;text-anchor:start;fill:none;stroke:#000000;stroke-linecap:butt;stroke-linejoin:miter;stroke-miterlimit:10.433;stroke-dasharray:none;stroke-dashoffset:0;stroke-opacity:1"
       id="g6946"
       transform="matrix(1,0,0,-1,123.45,887.67218)"
       xml:space="preserve"
       stroke-miterlimit="10.433"
       fill-rule="even-odd"
       font-style="normal"
       font-variant="normal"
       font-weight="normal"
       font-stretch="normal"
       font-size-adjust="none"
       letter-spacing="normal"
       word-spacing="normal"
       ns0:text="$E_2$"
       ns0:preamble="/home/jeremy/papers/2010-enief/slides/preamble.tex"><path
         inkscape:connector-curvature="0"
         style="fill:#000000;stroke-width:0"
         d="m 230.49,709.44 v 0.01 0 0.01 l 0.01,0.01 v 0.01 l 0.01,0.01 v 0.01 0.01 l 0.01,0.01 v 0.01 0 0.01 h 0.01 v 0.01 0 0.01 0 0 0.01 0 0 l 0.01,0.01 v 0 0 0 c 0,0.01 0,0.11 -0.12,0.11 -0.09,0 -0.11,-0.06 -0.13,-0.12 -0.65,-1.47 -1.02,-2.14 -2.72,-2.14 h -1.46 c -0.14,0 -0.16,0 -0.22,0.01 -0.1,0.01 -0.13,0.02 -0.13,0.1 0,0.03 0,0.05 0.05,0.23 l 0.68,2.72 h 0.99 c 0.84,0 0.84,-0.21 0.84,-0.46 0,-0.07 0,-0.19 -0.07,-0.49 -0.02,-0.05 -0.02,-0.08 -0.02,-0.11 0,-0.05 0.03,-0.11 0.12,-0.11 0.08,0 0.11,0.05 0.15,0.2 l 0.57,2.33 c 0,0.06 -0.05,0.11 -0.12,0.11 -0.09,0 -0.11,-0.05 -0.14,-0.18 -0.21,-0.75 -0.39,-0.98 -1.3,-0.98 h -0.94 l 0.6,2.4 c 0.09,0.35 0.1,0.39 0.54,0.39 h 1.4 c 1.22,0 1.52,-0.29 1.52,-1.11 0,-0.24 0,-0.26 -0.04,-0.53 0,-0.05 -0.01,-0.12 -0.01,-0.17 0,-0.06 0.03,-0.12 0.12,-0.12 0.1,0 0.12,0.06 0.14,0.25 l 0.19,1.72 c 0.03,0.27 -0.02,0.27 -0.27,0.27 h -5.03 c -0.19,0 -0.3,0 -0.3,-0.2 0,-0.11 0.09,-0.11 0.28,-0.11 0.37,0 0.65,0 0.65,-0.18 0,-0.04 0,-0.06 -0.05,-0.24 L 225,707.9 c -0.1,-0.39 -0.12,-0.47 -0.91,-0.47 -0.17,0 -0.28,0 -0.28,-0.19 0,-0.12 0.09,-0.12 0.28,-0.12 h 5.17 c 0.23,0 0.24,0.01 0.31,0.17 z"
         id="path6948" /><path
         inkscape:connector-curvature="0"
         style="fill:#000000;stroke-width:0"
         d="m 234.3,706.9 h -0.23 c -0.02,-0.15 -0.09,-0.57 -0.18,-0.63 -0.06,-0.05 -0.6,-0.05 -0.69,-0.05 h -1.29 c 0.74,0.65 0.98,0.85 1.4,1.17 0.51,0.42 0.99,0.85 0.99,1.51 0,0.84 -0.73,1.36 -1.63,1.36 -0.86,0 -1.45,-0.61 -1.45,-1.25 0,-0.35 0.3,-0.39 0.37,-0.39 0.17,0 0.37,0.12 0.37,0.37 0,0.13 -0.05,0.37 -0.41,0.37 0.22,0.5 0.69,0.65 1.02,0.65 0.69,0 1.06,-0.54 1.06,-1.11 0,-0.61 -0.43,-1.09 -0.66,-1.34 l -1.68,-1.66 c -0.07,-0.06 -0.07,-0.07 -0.07,-0.27 h 2.88 z"
         id="path6950" /></g>
    <path
       style="fill:none;stroke:#000000;stroke-width:1px;stroke-linecap:butt;stroke-linejoin:miter;stroke-opacity:1"
       d="m 100,147.36218 v 20"
       id="path3042"
       inkscape:connector-curvature="0"
       sodipodi:nodetypes="cc" />
    <g
       style="font-style:normal;font-variant:normal;font-weight:normal;font-stretch:normal;letter-spacing:normal;word-spacing:normal;text-anchor:start;fill:none;stroke:#000000;stroke-linecap:butt;stroke-linejoin:miter;stroke-miterlimit:10.433;stroke-dasharray:none;stroke-dashoffset:0;stroke-opacity:1"
       id="g4135"
       transform="matrix(1,0,0,-1,187.58,798.70935)"
       xml:space="preserve"
       stroke-miterlimit="10.433"
       font-style="normal"
       font-variant="normal"
       font-weight="normal"
       font-stretch="normal"
       font-size-adjust="none"
       letter-spacing="normal"
       word-spacing="normal"
       ns0:text="grupo 1"
       ns0:preamble="/home/jeremy/papers/2011-enief/inkscape.tex"><path
         style="fill:#000000;stroke-width:0"
         inkscape:connector-curvature="0"
         d="m 224.49,658.56 v 0 0.01 0 0.01 0.01 0.01 0.01 0.01 0.01 0.01 0.02 l 0.01,0.01 v 0.01 0.02 0.01 l 0.01,0.02 v 0.02 l 0.01,0.01 v 0.02 l 0.01,0.02 v 0.02 l 0.01,0.01 0.01,0.02 0.01,0.02 0.01,0.02 0.01,0.02 0.01,0.02 0.01,0.02 0.01,0.02 0.02,0.02 0.01,0.01 0.02,0.02 c 0.38,-0.28 0.79,-0.3 0.98,-0.3 v 0.22 c -0.87,0 -0.87,1 -0.87,1.22 0,0.27 0.02,0.59 0.16,0.84 0.08,0.12 0.31,0.4 0.71,0.4 0.87,0 0.87,-1 0.87,-1.23 0,-0.26 -0.01,-0.58 -0.16,-0.83 -0.08,-0.12 -0.31,-0.4 -0.71,-0.4 v 0 -0.22 c 0.93,0 1.61,0.68 1.61,1.44 0,0.37 -0.16,0.74 -0.4,0.97 0.35,0.34 0.71,0.39 0.89,0.39 0.02,0 0.07,0 0.1,-0.01 -0.11,-0.04 -0.16,-0.15 -0.16,-0.27 0,-0.17 0.13,-0.29 0.29,-0.29 0.1,0 0.29,0.07 0.29,0.3 0,0.17 -0.12,0.48 -0.51,0.48 -0.2,0 -0.64,-0.06 -1.05,-0.46 -0.42,0.33 -0.84,0.36 -1.06,0.36 -0.93,0 -1.61,-0.69 -1.61,-1.46 0,-0.43 0.22,-0.81 0.47,-1.02 -0.13,-0.15 -0.31,-0.48 -0.31,-0.82 0,-0.31 0.13,-0.69 0.44,-0.89 -0.6,-0.16 -0.92,-0.59 -0.92,-0.99 0,-0.72 0.99,-1.26 2.2,-1.26 l 0.01,0.23 c -1.01,0 -1.69,0.5 -1.69,1.03 0,0.46 0.38,0.83 0.81,0.85 h 0.59 c 0.86,0 1.97,0 1.97,-0.85 0,-0.54 -0.71,-1.03 -1.68,-1.03 v 0 l -0.01,-0.23 c 1.17,0 2.21,0.51 2.21,1.28 0,0.35 -0.14,0.85 -0.65,1.13 -0.53,0.28 -1.1,0.28 -1.71,0.28 -0.25,0 -0.68,0 -0.75,0.01 -0.31,0.04 -0.52,0.35 -0.52,0.67 z"
         id="path4137" /><path
         style="fill:#000000;stroke-width:0"
         inkscape:connector-curvature="0"
         d="m 230.07,660.53 v 1.1 l -1.38,-0.11 v -0.31 c 0.7,0 0.78,-0.07 0.78,-0.56 v -2.66 c 0,-0.45 -0.11,-0.45 -0.78,-0.45 v -0.31 c 0.39,0.01 0.86,0.04 1.14,0.04 0.39,0 0.86,0 1.26,-0.04 v 0.31 h -0.21 c -0.73,0 -0.76,0.11 -0.76,0.47 v 1.53 c 0,0.98 0.42,1.87 1.18,1.87 0.07,0 0.09,0 0.11,-0.01 -0.03,-0.01 -0.23,-0.13 -0.23,-0.39 0,-0.28 0.21,-0.43 0.43,-0.43 0.18,0 0.43,0.12 0.43,0.44 0,0.32 -0.31,0.61 -0.74,0.61 -0.73,0 -1.09,-0.67 -1.23,-1.1 z"
         id="path4139" /><path
         style="fill:#000000;stroke-width:0"
         inkscape:connector-curvature="0"
         d="m 236.21,658.02 v -0.89 l 1.43,0.1 v 0.31 c -0.7,0 -0.78,0.07 -0.78,0.56 v 3.53 l -1.46,-0.11 v -0.31 c 0.7,0 0.78,-0.07 0.78,-0.56 v -1.77 c 0,-0.86 -0.48,-1.54 -1.21,-1.54 -0.83,0 -0.87,0.47 -0.87,0.99 v 3.3 l -1.47,-0.11 v -0.31 c 0.78,0 0.78,-0.03 0.78,-0.92 v -1.49 c 0,-0.77 0,-1.67 1.51,-1.67 0.56,0 1,0.27 1.29,0.89 z"
         id="path4141" /><path
         style="fill:#000000;stroke-width:0"
         inkscape:connector-curvature="0"
         d="m 239.56,660.97 v 0.66 l -1.43,-0.11 v -0.31 c 0.71,0 0.77,-0.06 0.77,-0.5 v -4.65 c 0,-0.44 -0.1,-0.44 -0.77,-0.44 v -0.31 c 0.34,0.01 0.86,0.03 1.11,0.03 0.27,0 0.78,-0.02 1.13,-0.03 v 0.31 c -0.67,0 -0.78,0 -0.78,0.44 v 1.67 0.09 l 0.14,0.13 c -0.14,0.21 -0.14,0.22 -0.14,0.42 v 0 2.21 c 0.29,0.51 0.78,0.8 1.29,0.8 0.72,0 1.33,-0.88 1.33,-2 0,-1.2 -0.7,-2.04 -1.43,-2.04 -0.4,0 -0.78,0.2 -1.05,0.61 l -0.14,-0.13 c 0.05,-0.16 0.47,-0.69 1.23,-0.69 1.18,0 2.21,0.97 2.21,2.25 0,1.26 -0.96,2.25 -2.07,2.25 -0.78,0 -1.2,-0.44 -1.4,-0.66 z"
         id="path4143" /><path
         style="fill:#000000;stroke-width:0"
         inkscape:connector-curvature="0"
         d="m 248.35,659.36 v 0.12 l -0.01,0.12 -0.01,0.11 -0.02,0.12 -0.03,0.11 -0.03,0.11 -0.03,0.11 -0.04,0.1 -0.05,0.1 -0.05,0.1 -0.05,0.1 -0.06,0.09 -0.06,0.1 -0.06,0.08 -0.07,0.09 -0.08,0.08 -0.07,0.08 -0.08,0.07 -0.09,0.07 -0.08,0.06 -0.09,0.07 -0.09,0.05 -0.1,0.05 -0.1,0.05 -0.1,0.04 -0.1,0.04 -0.1,0.03 -0.11,0.03 -0.11,0.02 -0.1,0.01 -0.12,0.01 h -0.11 l -0.01,-0.21 c 0.44,0 0.87,-0.22 1.13,-0.65 0.25,-0.43 0.25,-1 0.25,-1.38 0,-0.36 0,-0.89 -0.21,-1.33 -0.22,-0.45 -0.66,-0.74 -1.16,-0.74 v 0 c -0.43,0 -0.86,0.21 -1.13,0.67 -0.25,0.44 -0.25,1.04 -0.25,1.4 0,0.39 0,0.92 0.24,1.36 0.27,0.46 0.73,0.67 1.13,0.67 l 0.01,0.21 c -1.24,0 -2.21,-1.08 -2.21,-2.32 0,-1.28 1.04,-2.23 2.2,-2.23 1.21,0 2.21,0.97 2.21,2.23 z"
         id="path4145" /><path
         style="fill:#000000;stroke-width:0"
         inkscape:connector-curvature="0"
         d="m 254.89,663.59 v 0.01 0.01 0.02 0.01 0 0.01 0.01 0.01 0.01 0.01 0.01 0.01 0 0.01 0.01 0 l -0.01,0.01 v 0.01 0.01 0.01 0.01 l -0.01,0.01 v 0.01 0 l -0.01,0.01 -0.01,0.01 v 0 l -0.01,0.01 h -0.01 l -0.01,0.01 v 0 h -0.01 v 0 h -0.01 v 0 h -0.01 v 0.01 h -0.01 -0.01 v 0 h -0.01 -0.01 -0.01 v 0 h -0.01 -0.01 -0.01 -0.01 -0.01 -0.01 -0.01 -0.01 c -0.62,-0.63 -1.49,-0.63 -1.81,-0.63 v -0.31 c 0.2,0 0.78,0 1.3,0.25 v -5.14 c 0,-0.36 -0.03,-0.48 -0.92,-0.48 h -0.32 v -0.31 c 0.35,0.04 1.21,0.04 1.61,0.04 0.4,0 1.26,0 1.61,-0.04 v 0.31 h -0.32 c -0.89,0 -0.92,0.11 -0.92,0.48 z"
         id="path4147" /></g>
    <g
       style="font-style:normal;font-variant:normal;font-weight:normal;font-stretch:normal;letter-spacing:normal;word-spacing:normal;text-anchor:start;fill:none;stroke:#000000;stroke-linecap:butt;stroke-linejoin:miter;stroke-miterlimit:10.433;stroke-dasharray:none;stroke-dashoffset:0;stroke-opacity:1"
       ns0:preamble="/home/jeremy/papers/2011-enief/inkscape.tex"
       ns0:text="grupo 2"
       word-spacing="normal"
       letter-spacing="normal"
       font-size-adjust="none"
       font-stretch="normal"
       font-weight="normal"
       font-variant="normal"
       font-style="normal"
       stroke-miterlimit="10.433"
       xml:space="preserve"
       transform="matrix(1,0,0,-1,127.43,798.70935)"
       id="g4335"><path
         id="path4337"
         d="m 224.49,658.56 v 0 0.01 0 0.01 0.01 0.01 0.01 0.01 0.01 0.01 0.02 l 0.01,0.01 v 0.01 0.02 0.01 l 0.01,0.02 v 0.02 l 0.01,0.01 v 0.02 l 0.01,0.02 v 0.02 l 0.01,0.01 0.01,0.02 0.01,0.02 0.01,0.02 0.01,0.02 0.01,0.02 0.01,0.02 0.01,0.02 0.02,0.02 0.01,0.01 0.02,0.02 c 0.38,-0.28 0.79,-0.3 0.98,-0.3 v 0.22 c -0.87,0 -0.87,1 -0.87,1.22 0,0.27 0.02,0.59 0.16,0.84 0.08,0.12 0.31,0.4 0.71,0.4 0.87,0 0.87,-1 0.87,-1.23 0,-0.26 -0.01,-0.58 -0.16,-0.83 -0.08,-0.12 -0.31,-0.4 -0.71,-0.4 v 0 -0.22 c 0.93,0 1.61,0.68 1.61,1.44 0,0.37 -0.16,0.74 -0.4,0.97 0.35,0.34 0.71,0.39 0.89,0.39 0.02,0 0.07,0 0.1,-0.01 -0.11,-0.04 -0.16,-0.15 -0.16,-0.27 0,-0.17 0.13,-0.29 0.29,-0.29 0.1,0 0.29,0.07 0.29,0.3 0,0.17 -0.12,0.48 -0.51,0.48 -0.2,0 -0.64,-0.06 -1.05,-0.46 -0.42,0.33 -0.84,0.36 -1.06,0.36 -0.93,0 -1.61,-0.69 -1.61,-1.46 0,-0.43 0.22,-0.81 0.47,-1.02 -0.13,-0.15 -0.31,-0.48 -0.31,-0.82 0,-0.31 0.13,-0.69 0.44,-0.89 -0.6,-0.16 -0.92,-0.59 -0.92,-0.99 0,-0.72 0.99,-1.26 2.2,-1.26 l 0.01,0.23 c -1.01,0 -1.69,0.5 -1.69,1.03 0,0.46 0.38,0.83 0.81,0.85 h 0.59 c 0.86,0 1.97,0 1.97,-0.85 0,-0.54 -0.71,-1.03 -1.68,-1.03 v 0 l -0.01,-0.23 c 1.17,0 2.21,0.51 2.21,1.28 0,0.35 -0.14,0.85 -0.65,1.13 -0.53,0.28 -1.1,0.28 -1.71,0.28 -0.25,0 -0.68,0 -0.75,0.01 -0.31,0.04 -0.52,0.35 -0.52,0.67 z"
         inkscape:connector-curvature="0"
         style="fill:#000000;stroke-width:0" /><path
         id="path4339"
         d="m 230.07,660.53 v 1.1 l -1.38,-0.11 v -0.31 c 0.7,0 0.78,-0.07 0.78,-0.56 v -2.66 c 0,-0.45 -0.11,-0.45 -0.78,-0.45 v -0.31 c 0.39,0.01 0.86,0.04 1.14,0.04 0.39,0 0.86,0 1.26,-0.04 v 0.31 h -0.21 c -0.73,0 -0.76,0.11 -0.76,0.47 v 1.53 c 0,0.98 0.42,1.87 1.18,1.87 0.07,0 0.09,0 0.11,-0.01 -0.03,-0.01 -0.23,-0.13 -0.23,-0.39 0,-0.28 0.21,-0.43 0.43,-0.43 0.18,0 0.43,0.12 0.43,0.44 0,0.32 -0.31,0.61 -0.74,0.61 -0.73,0 -1.09,-0.67 -1.23,-1.1 z"
         inkscape:connector-curvature="0"
         style="fill:#000000;stroke-width:0" /><path
         id="path4341"
         d="m 236.21,658.02 v -0.89 l 1.43,0.1 v 0.31 c -0.7,0 -0.78,0.07 -0.78,0.56 v 3.53 l -1.46,-0.11 v -0.31 c 0.7,0 0.78,-0.07 0.78,-0.56 v -1.77 c 0,-0.86 -0.48,-1.54 -1.21,-1.54 -0.83,0 -0.87,0.47 -0.87,0.99 v 3.3 l -1.47,-0.11 v -0.31 c 0.78,0 0.78,-0.03 0.78,-0.92 v -1.49 c 0,-0.77 0,-1.67 1.51,-1.67 0.56,0 1,0.27 1.29,0.89 z"
         inkscape:connector-curvature="0"
         style="fill:#000000;stroke-width:0" /><path
         id="path4343"
         d="m 239.56,660.97 v 0.66 l -1.43,-0.11 v -0.31 c 0.71,0 0.77,-0.06 0.77,-0.5 v -4.65 c 0,-0.44 -0.1,-0.44 -0.77,-0.44 v -0.31 c 0.34,0.01 0.86,0.03 1.11,0.03 0.27,0 0.78,-0.02 1.13,-0.03 v 0.31 c -0.67,0 -0.78,0 -0.78,0.44 v 1.67 0.09 l 0.14,0.13 c -0.14,0.21 -0.14,0.22 -0.14,0.42 v 0 2.21 c 0.29,0.51 0.78,0.8 1.29,0.8 0.72,0 1.33,-0.88 1.33,-2 0,-1.2 -0.7,-2.04 -1.43,-2.04 -0.4,0 -0.78,0.2 -1.05,0.61 l -0.14,-0.13 c 0.05,-0.16 0.47,-0.69 1.23,-0.69 1.18,0 2.21,0.97 2.21,2.25 0,1.26 -0.96,2.25 -2.07,2.25 -0.78,0 -1.2,-0.44 -1.4,-0.66 z"
         inkscape:connector-curvature="0"
         style="fill:#000000;stroke-width:0" /><path
         id="path4345"
         d="m 248.35,659.36 v 0.12 l -0.01,0.12 -0.01,0.11 -0.02,0.12 -0.03,0.11 -0.03,0.11 -0.03,0.11 -0.04,0.1 -0.05,0.1 -0.05,0.1 -0.05,0.1 -0.06,0.09 -0.06,0.1 -0.06,0.08 -0.07,0.09 -0.08,0.08 -0.07,0.08 -0.08,0.07 -0.09,0.07 -0.08,0.06 -0.09,0.07 -0.09,0.05 -0.1,0.05 -0.1,0.05 -0.1,0.04 -0.1,0.04 -0.1,0.03 -0.11,0.03 -0.11,0.02 -0.1,0.01 -0.12,0.01 h -0.11 l -0.01,-0.21 c 0.44,0 0.87,-0.22 1.13,-0.65 0.25,-0.43 0.25,-1 0.25,-1.38 0,-0.36 0,-0.89 -0.21,-1.33 -0.22,-0.45 -0.66,-0.74 -1.16,-0.74 v 0 c -0.43,0 -0.86,0.21 -1.13,0.67 -0.25,0.44 -0.25,1.04 -0.25,1.4 0,0.39 0,0.92 0.24,1.36 0.27,0.46 0.73,0.67 1.13,0.67 l 0.01,0.21 c -1.24,0 -2.21,-1.08 -2.21,-2.32 0,-1.28 1.04,-2.23 2.2,-2.23 1.21,0 2.21,0.97 2.21,2.23 z"
         inkscape:connector-curvature="0"
         style="fill:#000000;stroke-width:0" /><path
         id="path4347"
         d="m 253.23,658 1.05,1.02 c 1.55,1.37 2.15,1.91 2.15,2.9 0,1.14 -0.89,1.93 -2.11,1.93 -1.12,0 -1.86,-0.91 -1.86,-1.8 0,-0.55 0.5,-0.55 0.53,-0.55 0.17,0 0.52,0.12 0.52,0.52 0,0.26 -0.18,0.52 -0.53,0.52 -0.08,0 -0.1,0 -0.13,-0.01 0.23,0.64 0.77,1.01 1.34,1.01 0.91,0 1.34,-0.8 1.34,-1.62 0,-0.79 -0.5,-1.58 -1.05,-2.19 l -1.91,-2.13 c -0.11,-0.11 -0.11,-0.13 -0.11,-0.37 h 3.69 l 0.28,1.73 h -0.25 c -0.05,-0.3 -0.12,-0.73 -0.22,-0.88 C 255.89,658 255.24,658 255.02,658 Z"
         inkscape:connector-curvature="0"
         style="fill:#000000;stroke-width:0" /></g>
    <g
       id="g4549"
       transform="matrix(1,0,0,-1,-52.425,798.70935)"
       xml:space="preserve"
       stroke-miterlimit="10.433"
       font-style="normal"
       font-variant="normal"
       font-weight="normal"
       font-stretch="normal"
       font-size-adjust="none"
       letter-spacing="normal"
       word-spacing="normal"
       ns0:text="grupo~$G-1$"
       ns0:preamble="/home/jeremy/papers/2011-enief/inkscape.tex"
       style="font-style:normal;font-variant:normal;font-weight:normal;font-stretch:normal;letter-spacing:normal;word-spacing:normal;text-anchor:start;fill:none;stroke:#000000;stroke-linecap:butt;stroke-linejoin:miter;stroke-miterlimit:10.433;stroke-dasharray:none;stroke-dashoffset:0;stroke-opacity:1"><path
         d="m 224.49,658.56 v 0 0.01 0 0.01 0.01 0.01 0.01 0.01 0.01 0.01 0.02 l 0.01,0.01 v 0.01 0.02 0.01 l 0.01,0.02 v 0.02 l 0.01,0.01 v 0.02 l 0.01,0.02 v 0.02 l 0.01,0.01 0.01,0.02 0.01,0.02 0.01,0.02 0.01,0.02 0.01,0.02 0.01,0.02 0.01,0.02 0.02,0.02 0.01,0.01 0.02,0.02 c 0.38,-0.28 0.79,-0.3 0.98,-0.3 v 0.22 c -0.87,0 -0.87,1 -0.87,1.22 0,0.27 0.02,0.59 0.16,0.84 0.08,0.12 0.31,0.4 0.71,0.4 0.87,0 0.87,-1 0.87,-1.23 0,-0.26 -0.01,-0.58 -0.16,-0.83 -0.08,-0.12 -0.31,-0.4 -0.71,-0.4 v 0 -0.22 c 0.93,0 1.61,0.68 1.61,1.44 0,0.37 -0.16,0.74 -0.4,0.97 0.35,0.34 0.71,0.39 0.89,0.39 0.02,0 0.07,0 0.1,-0.01 -0.11,-0.04 -0.16,-0.15 -0.16,-0.27 0,-0.17 0.13,-0.29 0.29,-0.29 0.1,0 0.29,0.07 0.29,0.3 0,0.17 -0.12,0.48 -0.51,0.48 -0.2,0 -0.64,-0.06 -1.05,-0.46 -0.42,0.33 -0.84,0.36 -1.06,0.36 -0.93,0 -1.61,-0.69 -1.61,-1.46 0,-0.43 0.22,-0.81 0.47,-1.02 -0.13,-0.15 -0.31,-0.48 -0.31,-0.82 0,-0.31 0.13,-0.69 0.44,-0.89 -0.6,-0.16 -0.92,-0.59 -0.92,-0.99 0,-0.72 0.99,-1.26 2.2,-1.26 l 0.01,0.23 c -1.01,0 -1.69,0.5 -1.69,1.03 0,0.46 0.38,0.83 0.81,0.85 h 0.59 c 0.86,0 1.97,0 1.97,-0.85 0,-0.54 -0.71,-1.03 -1.68,-1.03 v 0 l -0.01,-0.23 c 1.17,0 2.21,0.51 2.21,1.28 0,0.35 -0.14,0.85 -0.65,1.13 -0.53,0.28 -1.1,0.28 -1.71,0.28 -0.25,0 -0.68,0 -0.75,0.01 -0.31,0.04 -0.52,0.35 -0.52,0.67 z"
         id="path4551"
         inkscape:connector-curvature="0"
         style="fill:#000000;stroke-width:0" /><path
         d="m 230.07,660.53 v 1.1 l -1.38,-0.11 v -0.31 c 0.7,0 0.78,-0.07 0.78,-0.56 v -2.66 c 0,-0.45 -0.11,-0.45 -0.78,-0.45 v -0.31 c 0.39,0.01 0.86,0.04 1.14,0.04 0.39,0 0.86,0 1.26,-0.04 v 0.31 h -0.21 c -0.73,0 -0.76,0.11 -0.76,0.47 v 1.53 c 0,0.98 0.42,1.87 1.18,1.87 0.07,0 0.09,0 0.11,-0.01 -0.03,-0.01 -0.23,-0.13 -0.23,-0.39 0,-0.28 0.21,-0.43 0.43,-0.43 0.18,0 0.43,0.12 0.43,0.44 0,0.32 -0.31,0.61 -0.74,0.61 -0.73,0 -1.09,-0.67 -1.23,-1.1 z"
         id="path4553"
         inkscape:connector-curvature="0"
         style="fill:#000000;stroke-width:0" /><path
         d="m 236.21,658.02 v -0.89 l 1.43,0.1 v 0.31 c -0.7,0 -0.78,0.07 -0.78,0.56 v 3.53 l -1.46,-0.11 v -0.31 c 0.7,0 0.78,-0.07 0.78,-0.56 v -1.77 c 0,-0.86 -0.48,-1.54 -1.21,-1.54 -0.83,0 -0.87,0.47 -0.87,0.99 v 3.3 l -1.47,-0.11 v -0.31 c 0.78,0 0.78,-0.03 0.78,-0.92 v -1.49 c 0,-0.77 0,-1.67 1.51,-1.67 0.56,0 1,0.27 1.29,0.89 z"
         id="path4555"
         inkscape:connector-curvature="0"
         style="fill:#000000;stroke-width:0" /><path
         d="m 239.56,660.97 v 0.66 l -1.43,-0.11 v -0.31 c 0.71,0 0.77,-0.06 0.77,-0.5 v -4.65 c 0,-0.44 -0.1,-0.44 -0.77,-0.44 v -0.31 c 0.34,0.01 0.86,0.03 1.11,0.03 0.27,0 0.78,-0.02 1.13,-0.03 v 0.31 c -0.67,0 -0.78,0 -0.78,0.44 v 1.67 0.09 l 0.14,0.13 c -0.14,0.21 -0.14,0.22 -0.14,0.42 v 0 2.21 c 0.29,0.51 0.78,0.8 1.29,0.8 0.72,0 1.33,-0.88 1.33,-2 0,-1.2 -0.7,-2.04 -1.43,-2.04 -0.4,0 -0.78,0.2 -1.05,0.61 l -0.14,-0.13 c 0.05,-0.16 0.47,-0.69 1.23,-0.69 1.18,0 2.21,0.97 2.21,2.25 0,1.26 -0.96,2.25 -2.07,2.25 -0.78,0 -1.2,-0.44 -1.4,-0.66 z"
         id="path4557"
         inkscape:connector-curvature="0"
         style="fill:#000000;stroke-width:0" /><path
         d="m 248.35,659.36 v 0.12 l -0.01,0.12 -0.01,0.11 -0.02,0.12 -0.03,0.11 -0.03,0.11 -0.03,0.11 -0.04,0.1 -0.05,0.1 -0.05,0.1 -0.05,0.1 -0.06,0.09 -0.06,0.1 -0.06,0.08 -0.07,0.09 -0.08,0.08 -0.07,0.08 -0.08,0.07 -0.09,0.07 -0.08,0.06 -0.09,0.07 -0.09,0.05 -0.1,0.05 -0.1,0.05 -0.1,0.04 -0.1,0.04 -0.1,0.03 -0.11,0.03 -0.11,0.02 -0.1,0.01 -0.12,0.01 h -0.11 l -0.01,-0.21 c 0.44,0 0.87,-0.22 1.13,-0.65 0.25,-0.43 0.25,-1 0.25,-1.38 0,-0.36 0,-0.89 -0.21,-1.33 -0.22,-0.45 -0.66,-0.74 -1.16,-0.74 v 0 c -0.43,0 -0.86,0.21 -1.13,0.67 -0.25,0.44 -0.25,1.04 -0.25,1.4 0,0.39 0,0.92 0.24,1.36 0.27,0.46 0.73,0.67 1.13,0.67 l 0.01,0.21 c -1.24,0 -2.21,-1.08 -2.21,-2.32 0,-1.28 1.04,-2.23 2.2,-2.23 1.21,0 2.21,0.97 2.21,2.23 z"
         id="path4559"
         inkscape:connector-curvature="0"
         style="fill:#000000;stroke-width:0" /><path
         d="m 259.52,664.14 v 0 0.01 0 0 0.01 0 0 0.01 0 0.01 0 h -0.01 v 0.01 0 0.01 h -0.01 v 0 0.01 h -0.01 v 0 0.01 h -0.01 v 0 l -0.01,0.01 v 0 h -0.01 v 0 0 h -0.01 v 0 0 l -0.01,0.01 v 0 0 h -0.01 v 0 h -0.01 v 0 0 c -0.03,0 -0.04,-0.01 -0.15,-0.12 l -0.7,-0.77 c -0.09,0.14 -0.55,0.89 -1.65,0.89 -2.22,0 -4.46,-2.2 -4.46,-4.5 0,-1.58 1.11,-2.72 2.72,-2.72 0.44,0 0.88,0.09 1.24,0.24 0.5,0.19 0.69,0.4 0.87,0.6 0.09,-0.25 0.35,-0.62 0.44,-0.62 0.05,0 0.07,0.04 0.07,0.04 0.02,0.02 0.12,0.4 0.17,0.61 l 0.19,0.77 c 0.04,0.16 0.09,0.33 0.13,0.5 0.11,0.45 0.12,0.47 0.69,0.48 0.05,0 0.16,0.01 0.16,0.2 0,0.07 -0.05,0.11 -0.13,0.11 -0.23,0 -0.82,-0.03 -1.05,-0.03 -0.31,0 -1.08,0.03 -1.39,0.03 -0.09,0 -0.21,0 -0.21,-0.2 0,-0.11 0.08,-0.11 0.3,-0.11 0.01,0 0.3,0 0.53,-0.02 0.26,-0.03 0.31,-0.06 0.31,-0.19 0,-0.09 -0.11,-0.54 -0.21,-0.9 -0.28,-1.1 -1.58,-1.21 -1.92,-1.21 -0.96,0 -2,0.57 -2,2.09 0,0.31 0.1,1.95 1.14,3.24 0.54,0.67 1.5,1.28 2.49,1.28 1.01,0 1.6,-0.77 1.6,-1.92 0,-0.39 -0.03,-0.4 -0.03,-0.5 0,-0.1 0.11,-0.1 0.15,-0.1 0.13,0 0.13,0.02 0.18,0.2 z"
         id="path4561"
         inkscape:connector-curvature="0"
         style="fill:#000000;stroke-width:0" /><path
         d="m 268.57,659.52 h 0.03 0.03 0.03 0.02 0.01 0.02 l 0.01,0.01 h 0.02 0.01 0.02 l 0.01,0.01 h 0.01 0.02 l 0.01,0.01 0.01,0.01 h 0.01 l 0.01,0.01 0.01,0.01 h 0.01 l 0.01,0.01 0.01,0.01 v 0.01 0 l 0.01,0.01 v 0.01 0 0.01 l 0.01,0.01 v 0 0.01 0.01 0.01 0 0.01 l 0.01,0.01 v 0.01 0.01 c 0,0.2 -0.18,0.2 -0.35,0.2 h -5.39 c -0.16,0 -0.34,0 -0.34,-0.2 0,-0.2 0.18,-0.2 0.34,-0.2 z"
         id="path4563"
         inkscape:connector-curvature="0"
         style="fill:#000000;stroke-width:0" /><path
         d="m 274.9,663.59 v 0.01 0.01 0.02 0.01 0 0.01 0.01 0.01 0.01 0.01 0.01 0.01 0 0.01 0.01 0 l -0.01,0.01 v 0.01 0.01 0.01 0.01 l -0.01,0.01 v 0.01 0 l -0.01,0.01 -0.01,0.01 v 0 l -0.01,0.01 h -0.01 l -0.01,0.01 v 0 h -0.01 v 0 h -0.01 v 0 h -0.01 v 0.01 h -0.01 -0.01 v 0 h -0.01 -0.01 -0.01 v 0 h -0.01 -0.01 -0.01 -0.01 -0.01 -0.01 -0.01 -0.01 c -0.62,-0.63 -1.49,-0.63 -1.81,-0.63 v -0.31 c 0.2,0 0.78,0 1.3,0.25 v -5.14 c 0,-0.36 -0.03,-0.48 -0.92,-0.48 h -0.32 v -0.31 c 0.35,0.04 1.21,0.04 1.61,0.04 0.4,0 1.27,0 1.61,-0.04 v 0.31 h -0.32 c -0.89,0 -0.92,0.11 -0.92,0.48 z"
         id="path4565"
         inkscape:connector-curvature="0"
         style="fill:#000000;stroke-width:0" /></g>
    <g
       style="font-style:normal;font-variant:normal;font-weight:normal;font-stretch:normal;letter-spacing:normal;word-spacing:normal;text-anchor:start;fill:none;stroke:#000000;stroke-linecap:butt;stroke-linejoin:miter;stroke-miterlimit:10.433;stroke-dasharray:none;stroke-dashoffset:0;stroke-opacity:1"
       ns0:preamble="/home/jeremy/papers/2011-enief/inkscape.tex"
       ns0:text="grupo~$G$"
       word-spacing="normal"
       letter-spacing="normal"
       font-size-adjust="none"
       font-stretch="normal"
       font-weight="normal"
       font-variant="normal"
       font-style="normal"
       stroke-miterlimit="10.433"
       xml:space="preserve"
       transform="matrix(1,0,0,-1,-114.115,798.70935)"
       id="g4789"><path
         id="path4791"
         d="m 224.49,658.56 v 0 0.01 0 0.01 0.01 0.01 0.01 0.01 0.01 0.01 0.02 l 0.01,0.01 v 0.01 0.02 0.01 l 0.01,0.02 v 0.02 l 0.01,0.01 v 0.02 l 0.01,0.02 v 0.02 l 0.01,0.01 0.01,0.02 0.01,0.02 0.01,0.02 0.01,0.02 0.01,0.02 0.01,0.02 0.01,0.02 0.02,0.02 0.01,0.01 0.02,0.02 c 0.38,-0.28 0.79,-0.3 0.98,-0.3 v 0.22 c -0.87,0 -0.87,1 -0.87,1.22 0,0.27 0.02,0.59 0.16,0.84 0.08,0.12 0.31,0.4 0.71,0.4 0.87,0 0.87,-1 0.87,-1.23 0,-0.26 -0.01,-0.58 -0.16,-0.83 -0.08,-0.12 -0.31,-0.4 -0.71,-0.4 v 0 -0.22 c 0.93,0 1.61,0.68 1.61,1.44 0,0.37 -0.16,0.74 -0.4,0.97 0.35,0.34 0.71,0.39 0.89,0.39 0.02,0 0.07,0 0.1,-0.01 -0.11,-0.04 -0.16,-0.15 -0.16,-0.27 0,-0.17 0.13,-0.29 0.29,-0.29 0.1,0 0.29,0.07 0.29,0.3 0,0.17 -0.12,0.48 -0.51,0.48 -0.2,0 -0.64,-0.06 -1.05,-0.46 -0.42,0.33 -0.84,0.36 -1.06,0.36 -0.93,0 -1.61,-0.69 -1.61,-1.46 0,-0.43 0.22,-0.81 0.47,-1.02 -0.13,-0.15 -0.31,-0.48 -0.31,-0.82 0,-0.31 0.13,-0.69 0.44,-0.89 -0.6,-0.16 -0.92,-0.59 -0.92,-0.99 0,-0.72 0.99,-1.26 2.2,-1.26 l 0.01,0.23 c -1.01,0 -1.69,0.5 -1.69,1.03 0,0.46 0.38,0.83 0.81,0.85 h 0.59 c 0.86,0 1.97,0 1.97,-0.85 0,-0.54 -0.71,-1.03 -1.68,-1.03 v 0 l -0.01,-0.23 c 1.17,0 2.21,0.51 2.21,1.28 0,0.35 -0.14,0.85 -0.65,1.13 -0.53,0.28 -1.1,0.28 -1.71,0.28 -0.25,0 -0.68,0 -0.75,0.01 -0.31,0.04 -0.52,0.35 -0.52,0.67 z"
         inkscape:connector-curvature="0"
         style="fill:#000000;stroke-width:0" /><path
         id="path4793"
         d="m 230.07,660.53 v 1.1 l -1.38,-0.11 v -0.31 c 0.7,0 0.78,-0.07 0.78,-0.56 v -2.66 c 0,-0.45 -0.11,-0.45 -0.78,-0.45 v -0.31 c 0.39,0.01 0.86,0.04 1.14,0.04 0.39,0 0.86,0 1.26,-0.04 v 0.31 h -0.21 c -0.73,0 -0.76,0.11 -0.76,0.47 v 1.53 c 0,0.98 0.42,1.87 1.18,1.87 0.07,0 0.09,0 0.11,-0.01 -0.03,-0.01 -0.23,-0.13 -0.23,-0.39 0,-0.28 0.21,-0.43 0.43,-0.43 0.18,0 0.43,0.12 0.43,0.44 0,0.32 -0.31,0.61 -0.74,0.61 -0.73,0 -1.09,-0.67 -1.23,-1.1 z"
         inkscape:connector-curvature="0"
         style="fill:#000000;stroke-width:0" /><path
         id="path4795"
         d="m 236.21,658.02 v -0.89 l 1.43,0.1 v 0.31 c -0.7,0 -0.78,0.07 -0.78,0.56 v 3.53 l -1.46,-0.11 v -0.31 c 0.7,0 0.78,-0.07 0.78,-0.56 v -1.77 c 0,-0.86 -0.48,-1.54 -1.21,-1.54 -0.83,0 -0.87,0.47 -0.87,0.99 v 3.3 l -1.47,-0.11 v -0.31 c 0.78,0 0.78,-0.03 0.78,-0.92 v -1.49 c 0,-0.77 0,-1.67 1.51,-1.67 0.56,0 1,0.27 1.29,0.89 z"
         inkscape:connector-curvature="0"
         style="fill:#000000;stroke-width:0" /><path
         id="path4797"
         d="m 239.56,660.97 v 0.66 l -1.43,-0.11 v -0.31 c 0.71,0 0.77,-0.06 0.77,-0.5 v -4.65 c 0,-0.44 -0.1,-0.44 -0.77,-0.44 v -0.31 c 0.34,0.01 0.86,0.03 1.11,0.03 0.27,0 0.78,-0.02 1.13,-0.03 v 0.31 c -0.67,0 -0.78,0 -0.78,0.44 v 1.67 0.09 l 0.14,0.13 c -0.14,0.21 -0.14,0.22 -0.14,0.42 v 0 2.21 c 0.29,0.51 0.78,0.8 1.29,0.8 0.72,0 1.33,-0.88 1.33,-2 0,-1.2 -0.7,-2.04 -1.43,-2.04 -0.4,0 -0.78,0.2 -1.05,0.61 l -0.14,-0.13 c 0.05,-0.16 0.47,-0.69 1.23,-0.69 1.18,0 2.21,0.97 2.21,2.25 0,1.26 -0.96,2.25 -2.07,2.25 -0.78,0 -1.2,-0.44 -1.4,-0.66 z"
         inkscape:connector-curvature="0"
         style="fill:#000000;stroke-width:0" /><path
         id="path4799"
         d="m 248.35,659.36 v 0.12 l -0.01,0.12 -0.01,0.11 -0.02,0.12 -0.03,0.11 -0.03,0.11 -0.03,0.11 -0.04,0.1 -0.05,0.1 -0.05,0.1 -0.05,0.1 -0.06,0.09 -0.06,0.1 -0.06,0.08 -0.07,0.09 -0.08,0.08 -0.07,0.08 -0.08,0.07 -0.09,0.07 -0.08,0.06 -0.09,0.07 -0.09,0.05 -0.1,0.05 -0.1,0.05 -0.1,0.04 -0.1,0.04 -0.1,0.03 -0.11,0.03 -0.11,0.02 -0.1,0.01 -0.12,0.01 h -0.11 l -0.01,-0.21 c 0.44,0 0.87,-0.22 1.13,-0.65 0.25,-0.43 0.25,-1 0.25,-1.38 0,-0.36 0,-0.89 -0.21,-1.33 -0.22,-0.45 -0.66,-0.74 -1.16,-0.74 v 0 c -0.43,0 -0.86,0.21 -1.13,0.67 -0.25,0.44 -0.25,1.04 -0.25,1.4 0,0.39 0,0.92 0.24,1.36 0.27,0.46 0.73,0.67 1.13,0.67 l 0.01,0.21 c -1.24,0 -2.21,-1.08 -2.21,-2.32 0,-1.28 1.04,-2.23 2.2,-2.23 1.21,0 2.21,0.97 2.21,2.23 z"
         inkscape:connector-curvature="0"
         style="fill:#000000;stroke-width:0" /><path
         id="path4801"
         d="m 259.52,664.14 v 0 0.01 0 0 0.01 0 0 0.01 0 0.01 0 h -0.01 v 0.01 0 0.01 h -0.01 v 0 0.01 h -0.01 v 0 0.01 h -0.01 v 0 l -0.01,0.01 v 0 h -0.01 v 0 0 h -0.01 v 0 0 l -0.01,0.01 v 0 0 h -0.01 v 0 h -0.01 v 0 0 c -0.03,0 -0.04,-0.01 -0.15,-0.12 l -0.7,-0.77 c -0.09,0.14 -0.55,0.89 -1.65,0.89 -2.22,0 -4.46,-2.2 -4.46,-4.5 0,-1.58 1.11,-2.72 2.72,-2.72 0.44,0 0.88,0.09 1.24,0.24 0.5,0.19 0.69,0.4 0.87,0.6 0.09,-0.25 0.35,-0.62 0.44,-0.62 0.05,0 0.07,0.04 0.07,0.04 0.02,0.02 0.12,0.4 0.17,0.61 l 0.19,0.77 c 0.04,0.16 0.09,0.33 0.13,0.5 0.11,0.45 0.12,0.47 0.69,0.48 0.05,0 0.16,0.01 0.16,0.2 0,0.07 -0.05,0.11 -0.13,0.11 -0.23,0 -0.82,-0.03 -1.05,-0.03 -0.31,0 -1.08,0.03 -1.39,0.03 -0.09,0 -0.21,0 -0.21,-0.2 0,-0.11 0.08,-0.11 0.3,-0.11 0.01,0 0.3,0 0.53,-0.02 0.26,-0.03 0.31,-0.06 0.31,-0.19 0,-0.09 -0.11,-0.54 -0.21,-0.9 -0.28,-1.1 -1.58,-1.21 -1.92,-1.21 -0.96,0 -2,0.57 -2,2.09 0,0.31 0.1,1.95 1.14,3.24 0.54,0.67 1.5,1.28 2.49,1.28 1.01,0 1.6,-0.77 1.6,-1.92 0,-0.39 -0.03,-0.4 -0.03,-0.5 0,-0.1 0.11,-0.1 0.15,-0.1 0.13,0 0.13,0.02 0.18,0.2 z"
         inkscape:connector-curvature="0"
         style="fill:#000000;stroke-width:0" /></g>
  </g>
</svg>
