<?xml version="1.0" encoding="UTF-8" standalone="no"?>
<svg
   width="789.16199pt"
   height="93.584084pt"
   viewBox="0 0 789.16199 93.584084"
   version="1.1"
   id="svg58"
   sodipodi:docname="slab.svg"
   inkscape:version="1.2.2 (b0a8486541, 2022-12-01)"
   xmlns:inkscape="http://www.inkscape.org/namespaces/inkscape"
   xmlns:sodipodi="http://sodipodi.sourceforge.net/DTD/sodipodi-0.dtd"
   xmlns="http://www.w3.org/2000/svg"
   xmlns:svg="http://www.w3.org/2000/svg"
   xmlns:rdf="http://www.w3.org/1999/02/22-rdf-syntax-ns#"
   xmlns:cc="http://creativecommons.org/ns#"
   xmlns:dc="http://purl.org/dc/elements/1.1/"
   xmlns:ns3="http://www.iki.fi/pav/software/textext/">
  <sodipodi:namedview
     id="namedview60"
     pagecolor="#ffffff"
     bordercolor="#666666"
     borderopacity="1.0"
     inkscape:showpageshadow="2"
     inkscape:pageopacity="0.0"
     inkscape:pagecheckerboard="0"
     inkscape:deskcolor="#d1d1d1"
     inkscape:document-units="pt"
     showgrid="false"
     inkscape:zoom="0.6047941"
     inkscape:cx="710.98577"
     inkscape:cy="84.32622"
     inkscape:window-width="1920"
     inkscape:window-height="1015"
     inkscape:window-x="0"
     inkscape:window-y="0"
     inkscape:window-maximized="1"
     inkscape:current-layer="svg58" />
  <title
     id="title2">slab</title>
  <desc
     id="desc4">
Creator: GL2PS 1.4.3, (C) 1999-2020 C. Geuzaine
For: Gmsh
CreationDate: Thu May 30 08:14:08 2024
</desc>
  <defs
     id="defs6" />
  <circle
     fill="#5a5a5a"
     cx="44.721786"
     cy="42.430328"
     r="8.5416641"
     id="circle8"
     style="fill:#e32dac;fill-opacity:1;stroke-width:4.27083" />
  <polyline
     fill="none"
     stroke="#0000ff"
     stroke-width="2"
     stroke-linecap="butt"
     stroke-linejoin="miter"
     points="283.285,487.381 983.76,487.381"
     id="polyline34"
     style="stroke:#3f48dd;stroke-width:1;stroke-dasharray:none;stroke-opacity:0.791901"
     transform="translate(-238.56322,-444.95068)" />
  <circle
     fill="#0000ff"
     cx="745.2218"
     cy="42.430328"
     r="8.5416641"
     id="circle369"
     style="fill:#00e32b;fill-opacity:0.809444;stroke-width:4.27083" />
  <circle
     fill="#0000ff"
     cx="114.76878"
     cy="42.430328"
     r="2"
     id="circle16"
     style="fill:#8b827f;fill-opacity:0.813286" />
  <circle
     fill="#0000ff"
     cx="184.81679"
     cy="42.430328"
     r="2"
     id="circle18"
     style="fill:#8b827f;fill-opacity:0.813286" />
  <circle
     fill="#0000ff"
     cx="254.86378"
     cy="42.430328"
     r="2"
     id="circle20"
     style="fill:#8b827f;fill-opacity:0.813286" />
  <circle
     fill="#0000ff"
     cx="324.91174"
     cy="42.430328"
     r="2"
     id="circle22"
     style="fill:#8b827f;fill-opacity:0.813286" />
  <circle
     fill="#0000ff"
     cx="394.95874"
     cy="42.430328"
     r="2"
     id="circle24"
     style="fill:#8b827f;fill-opacity:0.813286" />
  <circle
     fill="#0000ff"
     cx="465.00677"
     cy="42.430328"
     r="2"
     id="circle26"
     style="fill:#8b827f;fill-opacity:0.813286" />
  <circle
     fill="#0000ff"
     cx="535.05377"
     cy="42.430328"
     r="2"
     id="circle28"
     style="fill:#8b827f;fill-opacity:0.813286" />
  <circle
     fill="#0000ff"
     cx="605.10175"
     cy="42.430328"
     r="2"
     id="circle30"
     style="fill:#8b827f;fill-opacity:0.813286" />
  <circle
     fill="#0000ff"
     cx="675.14874"
     cy="42.430328"
     r="2"
     id="circle32"
     style="fill:#8b827f;fill-opacity:0.813286" />
  <circle
     fill="#0000ff"
     cx="44.721786"
     cy="42.430328"
     r="8.5416641"
     id="circle12"
     style="fill:#e32dac;fill-opacity:0.808175;stroke-width:4.27083" />
  <text
     xml:space="preserve"
     style="font-size:28px;line-height:4.03464px;font-family:'DejaVu Sans Mono';-inkscape-font-specification:'DejaVu Sans Mono';text-align:center;letter-spacing:0px;word-spacing:0px;writing-mode:lr-tb;text-anchor:middle;stroke-width:0.75"
     x="45.00206"
     y="21.423828"
     id="text979"><tspan
       sodipodi:role="line"
       id="tspan977"
       style="font-size:28px;text-align:center;text-anchor:middle;stroke-width:0.75"
       x="45.00206"
       y="21.423828">left</tspan></text>
  <text
     xml:space="preserve"
     style="font-size:28px;line-height:4.03464px;font-family:'DejaVu Sans Mono';-inkscape-font-specification:'DejaVu Sans Mono';text-align:center;letter-spacing:0px;word-spacing:0px;writing-mode:lr-tb;text-anchor:middle;stroke-width:0.75"
     x="744.12122"
     y="21.423828"
     id="text1033"><tspan
       sodipodi:role="line"
       id="tspan1031"
       style="font-size:28px;text-align:center;text-anchor:middle;stroke-width:0.75"
       x="744.12122"
       y="21.423828">right</tspan></text>
  <g
     ns3:version="1.8.2"
     ns3:texconverter="xelatex"
     ns3:pdfconverter="inkscape"
     ns3:text="$x = 0$"
     ns3:preamble="/usr/share/inkscape/extensions/textext/default_packages.tex"
     ns3:scale="0.75"
     ns3:alignment="middle center"
     ns3:stroke-to-path="0"
     transform="matrix(3.8479868,0,0,3.8479868,4.8099835e-4,67.187856)"
     ns3:jacobian_sqrt="0.75"
     id="g1103">
    <defs
       id="id-5578915f-dd93-44d8-ad51-1078bf208341">
      <g
         id="id-0e3957ad-4b22-4f6f-9c93-c9cb19bd8890">
        <symbol
           overflow="visible"
           id="id-ef25bde5-68f7-4360-8f60-44ff3b673e5e">
          <path
             style="stroke:none;stroke-width:0"
             d=""
             id="id-ad472906-de96-4a9b-8156-fbec21d7c3ae" />
        </symbol>
        <symbol
           overflow="visible"
           id="id-7ed4f1bc-c623-40f7-8f0d-2fa574e46b4b">
          <path
             style="stroke:none;stroke-width:0"
             d="M 3.328125,-3.015625 C 3.390625,-3.265625 3.625,-4.1875 4.3125,-4.1875 c 0.046875,0 0.296875,0 0.5,0.125 C 4.53125,-4 4.34375,-3.765625 4.34375,-3.515625 c 0,0.15625 0.109375,0.34375 0.375,0.34375 0.21875,0 0.53125,-0.171875 0.53125,-0.578125 0,-0.515625 -0.578125,-0.65625 -0.921875,-0.65625 -0.578125,0 -0.921875,0.53125 -1.046875,0.75 -0.25,-0.65625 -0.78125,-0.75 -1.078125,-0.75 -1.03125,0 -1.609375,1.28125 -1.609375,1.53125 0,0.109375 0.109375,0.109375 0.125,0.109375 0.078125,0 0.109375,-0.03125 0.125,-0.109375 0.34375,-1.0625 1,-1.3125 1.34375,-1.3125 0.1875,0 0.53125,0.09375 0.53125,0.671875 0,0.3125 -0.171875,0.96875 -0.53125,2.375 -0.15625,0.609375 -0.515625,1.03125 -0.953125,1.03125 -0.0625,0 -0.28125,0 -0.5,-0.125 0.25,-0.0625 0.46875,-0.265625 0.46875,-0.546875 0,-0.265625 -0.21875,-0.34375 -0.359375,-0.34375 -0.3125,0 -0.546875,0.25 -0.546875,0.578125 0,0.453125 0.484375,0.65625 0.921875,0.65625 0.671875,0 1.03125,-0.703125 1.046875,-0.75 0.125,0.359375 0.484375,0.75 1.078125,0.75 1.03125,0 1.59375,-1.28125 1.59375,-1.53125 0,-0.109375 -0.078125,-0.109375 -0.109375,-0.109375 -0.09375,0 -0.109375,0.046875 -0.140625,0.109375 -0.328125,1.078125 -1,1.3125 -1.3125,1.3125 -0.390625,0 -0.546875,-0.3125 -0.546875,-0.65625 0,-0.21875 0.046875,-0.4375 0.15625,-0.875 z m 0,0"
             id="id-1ab52919-b794-4144-98fd-50c80bff0339" />
        </symbol>
        <symbol
           overflow="visible"
           id="id-069a9183-3dcf-4c70-b2d4-033fbd52d556">
          <path
             style="stroke:none;stroke-width:0"
             d=""
             id="id-220cbf72-4aba-4dc9-926d-c87eefdca893" />
        </symbol>
        <symbol
           overflow="visible"
           id="id-338be462-59d5-45d9-a028-c64f1c06ed8a">
          <path
             style="stroke:none;stroke-width:0"
             d="m 6.84375,-3.265625 c 0.15625,0 0.34375,0 0.34375,-0.1875 C 7.1875,-3.65625 7,-3.65625 6.859375,-3.65625 h -5.96875 c -0.140625,0 -0.328125,0 -0.328125,0.203125 0,0.1875 0.1875,0.1875 0.328125,0.1875 z m 0.015625,1.9375 c 0.140625,0 0.328125,0 0.328125,-0.203125 0,-0.1875 -0.1875,-0.1875 -0.34375,-0.1875 H 0.890625 c -0.140625,0 -0.328125,0 -0.328125,0.1875 0,0.203125 0.1875,0.203125 0.328125,0.203125 z m 0,0"
             id="id-9feb646c-df72-4903-8c00-ff6d89648c17" />
        </symbol>
        <symbol
           overflow="visible"
           id="id-d6c1199f-1d81-485a-9097-a19cb33618bc">
          <path
             style="stroke:none;stroke-width:0"
             d="m 4.578125,-3.1875 c 0,-0.796875 -0.046875,-1.59375 -0.390625,-2.328125 -0.453125,-0.96875 -1.28125,-1.125 -1.6875,-1.125 -0.609375,0 -1.328125,0.265625 -1.75,1.1875 -0.3125,0.6875 -0.359375,1.46875 -0.359375,2.265625 0,0.75 0.03125,1.640625 0.453125,2.40625 0.421875,0.796875 1.15625,1 1.640625,1 0.53125,0 1.296875,-0.203125 1.734375,-1.15625 0.3125,-0.6875 0.359375,-1.46875 0.359375,-2.25 z M 2.484375,0 C 2.09375,0 1.5,-0.25 1.328125,-1.203125 1.21875,-1.796875 1.21875,-2.71875 1.21875,-3.3125 c 0,-0.640625 0,-1.296875 0.078125,-1.828125 0.1875,-1.1875 0.9375,-1.28125 1.1875,-1.28125 0.328125,0 0.984375,0.1875 1.171875,1.171875 0.109375,0.5625 0.109375,1.3125 0.109375,1.9375 0,0.75 0,1.421875 -0.109375,2.0625 C 3.5,-0.296875 2.9375,0 2.484375,0 Z m 0,0"
             id="id-d79b8c97-6901-4ca1-a102-e0b4918e726d" />
        </symbol>
      </g>
    </defs>
    <g
       id="id-e9485d5f-6e2c-4a7e-ab75-5fc3bd1f2526"
       transform="translate(-149.009,-128.124)">
      <g
         style="fill:#000000;fill-opacity:1"
         id="id-6767786f-c2af-415d-b7f8-1e83f2e2af9e">
        <g
           transform="translate(148.712,134.765)"
           id="g1091">
          <path
             style="stroke:none;stroke-width:0"
             d="M 3.328125,-3.015625 C 3.390625,-3.265625 3.625,-4.1875 4.3125,-4.1875 c 0.046875,0 0.296875,0 0.5,0.125 C 4.53125,-4 4.34375,-3.765625 4.34375,-3.515625 c 0,0.15625 0.109375,0.34375 0.375,0.34375 0.21875,0 0.53125,-0.171875 0.53125,-0.578125 0,-0.515625 -0.578125,-0.65625 -0.921875,-0.65625 -0.578125,0 -0.921875,0.53125 -1.046875,0.75 -0.25,-0.65625 -0.78125,-0.75 -1.078125,-0.75 -1.03125,0 -1.609375,1.28125 -1.609375,1.53125 0,0.109375 0.109375,0.109375 0.125,0.109375 0.078125,0 0.109375,-0.03125 0.125,-0.109375 0.34375,-1.0625 1,-1.3125 1.34375,-1.3125 0.1875,0 0.53125,0.09375 0.53125,0.671875 0,0.3125 -0.171875,0.96875 -0.53125,2.375 -0.15625,0.609375 -0.515625,1.03125 -0.953125,1.03125 -0.0625,0 -0.28125,0 -0.5,-0.125 0.25,-0.0625 0.46875,-0.265625 0.46875,-0.546875 0,-0.265625 -0.21875,-0.34375 -0.359375,-0.34375 -0.3125,0 -0.546875,0.25 -0.546875,0.578125 0,0.453125 0.484375,0.65625 0.921875,0.65625 0.671875,0 1.03125,-0.703125 1.046875,-0.75 0.125,0.359375 0.484375,0.75 1.078125,0.75 1.03125,0 1.59375,-1.28125 1.59375,-1.53125 0,-0.109375 -0.078125,-0.109375 -0.109375,-0.109375 -0.09375,0 -0.109375,0.046875 -0.140625,0.109375 -0.328125,1.078125 -1,1.3125 -1.3125,1.3125 -0.390625,0 -0.546875,-0.3125 -0.546875,-0.65625 0,-0.21875 0.046875,-0.4375 0.15625,-0.875 z m 0,0"
             id="id-47817757-5885-4485-a562-5034e4ff5440" />
        </g>
      </g>
      <g
         style="fill:#000000;fill-opacity:1"
         id="id-7da389c8-9054-4da1-b8db-a8de96004b67">
        <g
           transform="translate(157.174,134.765)"
           id="g1095">
          <path
             style="stroke:none;stroke-width:0"
             d="m 6.84375,-3.265625 c 0.15625,0 0.34375,0 0.34375,-0.1875 C 7.1875,-3.65625 7,-3.65625 6.859375,-3.65625 h -5.96875 c -0.140625,0 -0.328125,0 -0.328125,0.203125 0,0.1875 0.1875,0.1875 0.328125,0.1875 z m 0.015625,1.9375 c 0.140625,0 0.328125,0 0.328125,-0.203125 0,-0.1875 -0.1875,-0.1875 -0.34375,-0.1875 H 0.890625 c -0.140625,0 -0.328125,0 -0.328125,0.1875 0,0.203125 0.1875,0.203125 0.328125,0.203125 z m 0,0"
             id="id-33f4e4dc-f70f-4a8f-a992-a5b8714fedc4" />
        </g>
      </g>
      <g
         style="fill:#000000;fill-opacity:1"
         id="id-65d0d451-d4a8-4b08-afb3-c4cc1097bd02">
        <g
           transform="translate(167.675,134.765)"
           id="g1099">
          <path
             style="stroke:none;stroke-width:0"
             d="m 4.578125,-3.1875 c 0,-0.796875 -0.046875,-1.59375 -0.390625,-2.328125 -0.453125,-0.96875 -1.28125,-1.125 -1.6875,-1.125 -0.609375,0 -1.328125,0.265625 -1.75,1.1875 -0.3125,0.6875 -0.359375,1.46875 -0.359375,2.265625 0,0.75 0.03125,1.640625 0.453125,2.40625 0.421875,0.796875 1.15625,1 1.640625,1 0.53125,0 1.296875,-0.203125 1.734375,-1.15625 0.3125,-0.6875 0.359375,-1.46875 0.359375,-2.25 z M 2.484375,0 C 2.09375,0 1.5,-0.25 1.328125,-1.203125 1.21875,-1.796875 1.21875,-2.71875 1.21875,-3.3125 c 0,-0.640625 0,-1.296875 0.078125,-1.828125 0.1875,-1.1875 0.9375,-1.28125 1.1875,-1.28125 0.328125,0 0.984375,0.1875 1.171875,1.171875 0.109375,0.5625 0.109375,1.3125 0.109375,1.9375 0,0.75 0,1.421875 -0.109375,2.0625 C 3.5,-0.296875 2.9375,0 2.484375,0 Z m 0,0"
             id="id-15627629-d0c1-42f0-91f4-43168443a58c" />
        </g>
      </g>
    </g>
  </g>
  <g
     ns3:version="1.8.2"
     ns3:texconverter="xelatex"
     ns3:pdfconverter="inkscape"
     ns3:text="$x = 1$"
     ns3:preamble="/usr/share/inkscape/extensions/textext/default_packages.tex"
     ns3:scale="3.8479868"
     ns3:alignment="middle center"
     ns3:stroke-to-path="0"
     transform="matrix(3.84799,0,0,3.84799,701.2821,67.400316)"
     ns3:jacobian_sqrt="3.84799"
     id="g1173">
    <defs
       id="id-15e460bd-f12e-4100-a53b-31c35855c3c0">
      <g
         id="id-8ab3b38a-9f90-4da8-847c-431dbf7c925e">
        <symbol
           overflow="visible"
           id="id-ae741d01-9f3d-443e-bebf-0ce6fdda945a">
          <path
             style="stroke:none"
             d=""
             id="id-f3a3ee8c-7d2a-4150-81c4-c37830406e8c" />
        </symbol>
        <symbol
           overflow="visible"
           id="id-583382e5-c39a-4e6f-bb55-0a699a04582e">
          <path
             style="stroke:none"
             d="M 3.328125,-3.015625 C 3.390625,-3.265625 3.625,-4.1875 4.3125,-4.1875 c 0.046875,0 0.296875,0 0.5,0.125 C 4.53125,-4 4.34375,-3.765625 4.34375,-3.515625 c 0,0.15625 0.109375,0.34375 0.375,0.34375 0.21875,0 0.53125,-0.171875 0.53125,-0.578125 0,-0.515625 -0.578125,-0.65625 -0.921875,-0.65625 -0.578125,0 -0.921875,0.53125 -1.046875,0.75 -0.25,-0.65625 -0.78125,-0.75 -1.078125,-0.75 -1.03125,0 -1.609375,1.28125 -1.609375,1.53125 0,0.109375 0.109375,0.109375 0.125,0.109375 0.078125,0 0.109375,-0.03125 0.125,-0.109375 0.34375,-1.0625 1,-1.3125 1.34375,-1.3125 0.1875,0 0.53125,0.09375 0.53125,0.671875 0,0.3125 -0.171875,0.96875 -0.53125,2.375 -0.15625,0.609375 -0.515625,1.03125 -0.953125,1.03125 -0.0625,0 -0.28125,0 -0.5,-0.125 0.25,-0.0625 0.46875,-0.265625 0.46875,-0.546875 0,-0.265625 -0.21875,-0.34375 -0.359375,-0.34375 -0.3125,0 -0.546875,0.25 -0.546875,0.578125 0,0.453125 0.484375,0.65625 0.921875,0.65625 0.671875,0 1.03125,-0.703125 1.046875,-0.75 0.125,0.359375 0.484375,0.75 1.078125,0.75 1.03125,0 1.59375,-1.28125 1.59375,-1.53125 0,-0.109375 -0.078125,-0.109375 -0.109375,-0.109375 -0.09375,0 -0.109375,0.046875 -0.140625,0.109375 -0.328125,1.078125 -1,1.3125 -1.3125,1.3125 -0.390625,0 -0.546875,-0.3125 -0.546875,-0.65625 0,-0.21875 0.046875,-0.4375 0.15625,-0.875 z m 0,0"
             id="id-4985b064-f551-4ed6-b9a0-2d297e87a83d" />
        </symbol>
        <symbol
           overflow="visible"
           id="id-3fab6cc3-c867-4773-b332-bfe62ec1ae15">
          <path
             style="stroke:none"
             d=""
             id="id-0498d690-6630-4188-b145-f8f9b9454746" />
        </symbol>
        <symbol
           overflow="visible"
           id="id-4d327dc3-9320-4b90-adcd-209e84133e69">
          <path
             style="stroke:none"
             d="m 6.84375,-3.265625 c 0.15625,0 0.34375,0 0.34375,-0.1875 C 7.1875,-3.65625 7,-3.65625 6.859375,-3.65625 h -5.96875 c -0.140625,0 -0.328125,0 -0.328125,0.203125 0,0.1875 0.1875,0.1875 0.328125,0.1875 z m 0.015625,1.9375 c 0.140625,0 0.328125,0 0.328125,-0.203125 0,-0.1875 -0.1875,-0.1875 -0.34375,-0.1875 H 0.890625 c -0.140625,0 -0.328125,0 -0.328125,0.1875 0,0.203125 0.1875,0.203125 0.328125,0.203125 z m 0,0"
             id="id-ed12098c-51e0-415f-9f76-c5887bc8416a" />
        </symbol>
        <symbol
           overflow="visible"
           id="id-a601ccf8-10f0-458b-b0c0-fa23730f139f">
          <path
             style="stroke:none"
             d="m 2.9375,-6.375 c 0,-0.25 0,-0.265625 -0.234375,-0.265625 C 2.078125,-6 1.203125,-6 0.890625,-6 v 0.3125 c 0.203125,0 0.78125,0 1.296875,-0.265625 v 5.171875 c 0,0.359375 -0.03125,0.46875 -0.921875,0.46875 h -0.3125 V 0 c 0.34375,-0.03125 1.203125,-0.03125 1.609375,-0.03125 0.390625,0 1.265625,0 1.609375,0.03125 v -0.3125 h -0.3125 c -0.90625,0 -0.921875,-0.109375 -0.921875,-0.46875 z m 0,0"
             id="id-2c83d36b-2318-4e51-88cb-ff631bf0ec85" />
        </symbol>
      </g>
    </defs>
    <g
       id="id-c6c87716-c924-4ff7-b205-8761262557fb"
       transform="translate(-149.009,-128.124)">
      <g
         style="fill:#000000;fill-opacity:1"
         id="id-53c9fe24-b849-4459-9858-38c898356734">
        <g
           transform="translate(148.712,134.765)"
           id="g1300">
          <path
             style="stroke:none"
             d="M 3.328125,-3.015625 C 3.390625,-3.265625 3.625,-4.1875 4.3125,-4.1875 c 0.046875,0 0.296875,0 0.5,0.125 C 4.53125,-4 4.34375,-3.765625 4.34375,-3.515625 c 0,0.15625 0.109375,0.34375 0.375,0.34375 0.21875,0 0.53125,-0.171875 0.53125,-0.578125 0,-0.515625 -0.578125,-0.65625 -0.921875,-0.65625 -0.578125,0 -0.921875,0.53125 -1.046875,0.75 -0.25,-0.65625 -0.78125,-0.75 -1.078125,-0.75 -1.03125,0 -1.609375,1.28125 -1.609375,1.53125 0,0.109375 0.109375,0.109375 0.125,0.109375 0.078125,0 0.109375,-0.03125 0.125,-0.109375 0.34375,-1.0625 1,-1.3125 1.34375,-1.3125 0.1875,0 0.53125,0.09375 0.53125,0.671875 0,0.3125 -0.171875,0.96875 -0.53125,2.375 -0.15625,0.609375 -0.515625,1.03125 -0.953125,1.03125 -0.0625,0 -0.28125,0 -0.5,-0.125 0.25,-0.0625 0.46875,-0.265625 0.46875,-0.546875 0,-0.265625 -0.21875,-0.34375 -0.359375,-0.34375 -0.3125,0 -0.546875,0.25 -0.546875,0.578125 0,0.453125 0.484375,0.65625 0.921875,0.65625 0.671875,0 1.03125,-0.703125 1.046875,-0.75 0.125,0.359375 0.484375,0.75 1.078125,0.75 1.03125,0 1.59375,-1.28125 1.59375,-1.53125 0,-0.109375 -0.078125,-0.109375 -0.109375,-0.109375 -0.09375,0 -0.109375,0.046875 -0.140625,0.109375 -0.328125,1.078125 -1,1.3125 -1.3125,1.3125 -0.390625,0 -0.546875,-0.3125 -0.546875,-0.65625 0,-0.21875 0.046875,-0.4375 0.15625,-0.875 z m 0,0"
             id="id-a25a6b8e-8b1e-4d44-a0bb-de77ddf0c1d0" />
        </g>
      </g>
      <g
         style="fill:#000000;fill-opacity:1"
         id="id-eeeaa785-c058-403c-9844-cf85dbc1b2e0">
        <g
           transform="translate(157.174,134.765)"
           id="g1304">
          <path
             style="stroke:none"
             d="m 6.84375,-3.265625 c 0.15625,0 0.34375,0 0.34375,-0.1875 C 7.1875,-3.65625 7,-3.65625 6.859375,-3.65625 h -5.96875 c -0.140625,0 -0.328125,0 -0.328125,0.203125 0,0.1875 0.1875,0.1875 0.328125,0.1875 z m 0.015625,1.9375 c 0.140625,0 0.328125,0 0.328125,-0.203125 0,-0.1875 -0.1875,-0.1875 -0.34375,-0.1875 H 0.890625 c -0.140625,0 -0.328125,0 -0.328125,0.1875 0,0.203125 0.1875,0.203125 0.328125,0.203125 z m 0,0"
             id="id-91e5f23d-0994-4ae3-b4ff-8d6d9c9ba2a2" />
        </g>
      </g>
      <g
         style="fill:#000000;fill-opacity:1"
         id="id-11b6dff2-5ef3-4ee8-85c0-e2b84fba69b7">
        <g
           transform="translate(167.675,134.765)"
           id="g1308">
          <path
             style="stroke:none"
             d="m 2.9375,-6.375 c 0,-0.25 0,-0.265625 -0.234375,-0.265625 C 2.078125,-6 1.203125,-6 0.890625,-6 v 0.3125 c 0.203125,0 0.78125,0 1.296875,-0.265625 v 5.171875 c 0,0.359375 -0.03125,0.46875 -0.921875,0.46875 h -0.3125 V 0 c 0.34375,-0.03125 1.203125,-0.03125 1.609375,-0.03125 0.390625,0 1.265625,0 1.609375,0.03125 v -0.3125 h -0.3125 c -0.90625,0 -0.921875,-0.109375 -0.921875,-0.46875 z m 0,0"
             id="id-82ec744b-dae2-43c0-9b72-38c338a8b278" />
        </g>
      </g>
    </g>
  </g>
  <metadata
     id="metadata1337">
    <rdf:RDF>
      <cc:Work
         rdf:about="">
        <dc:title>slab</dc:title>
      </cc:Work>
    </rdf:RDF>
  </metadata>
</svg>
