<?xml version="1.0" encoding="UTF-8" standalone="no"?>
<svg
   width="179.99783mm"
   height="184.0616mm"
   viewBox="0 0 179.99783 184.0616"
   version="1.1"
   id="svg8"
   inkscape:version="1.2.2 (b0a8486541, 2022-12-01)"
   sodipodi:docname="why.svg"
   xmlns:inkscape="http://www.inkscape.org/namespaces/inkscape"
   xmlns:sodipodi="http://sodipodi.sourceforge.net/DTD/sodipodi-0.dtd"
   xmlns="http://www.w3.org/2000/svg"
   xmlns:svg="http://www.w3.org/2000/svg"
   xmlns:rdf="http://www.w3.org/1999/02/22-rdf-syntax-ns#"
   xmlns:cc="http://creativecommons.org/ns#"
   xmlns:dc="http://purl.org/dc/elements/1.1/">
  <defs
     id="defs2" />
  <sodipodi:namedview
     id="base"
     pagecolor="#ffffff"
     bordercolor="#666666"
     borderopacity="1.0"
     inkscape:pageopacity="0.0"
     inkscape:pageshadow="2"
     inkscape:zoom="0.7"
     inkscape:cx="76.428571"
     inkscape:cy="350"
     inkscape:document-units="mm"
     inkscape:current-layer="layer1"
     inkscape:document-rotation="0"
     showgrid="false"
     fit-margin-top="0"
     fit-margin-left="0"
     fit-margin-right="0"
     fit-margin-bottom="0"
     inkscape:window-width="1920"
     inkscape:window-height="1015"
     inkscape:window-x="0"
     inkscape:window-y="0"
     inkscape:window-maximized="1"
     inkscape:showpageshadow="2"
     inkscape:pagecheckerboard="0"
     inkscape:deskcolor="#d1d1d1" />
  <metadata
     id="metadata5">
    <rdf:RDF>
      <cc:Work
         rdf:about="">
        <dc:format>image/svg+xml</dc:format>
        <dc:type
           rdf:resource="http://purl.org/dc/dcmitype/StillImage" />
        <dc:title />
      </cc:Work>
    </rdf:RDF>
  </metadata>
  <g
     inkscape:label="Layer 1"
     inkscape:groupmode="layer"
     id="layer1"
     transform="translate(-14.525731,-66.443941)">
    <ellipse
       style="fill:#ffffff;fill-opacity:1;stroke:#e50000;stroke-width:0.113411;stroke-linecap:round;stroke-linejoin:round;stroke-opacity:0.673521"
       id="ellipse853"
       cx="103.48392"
       cy="159.04736"
       rx="88.364365"
       ry="90.517982" />
    <ellipse
       style="opacity:1;fill:#f30025;fill-opacity:1;stroke:#e50000;stroke-width:0.0352777;stroke-linecap:round;stroke-linejoin:round;stroke-opacity:0.673521"
       id="path849"
       cx="103.97139"
       cy="153.27544"
       rx="27.285795"
       ry="28.364511" />
    <path
       style="fill:#000000;stroke-width:0.264583"
       d="m 92.207122,250.30006 c -8.992652,-0.86837 -16.310922,-2.219 -20.778382,-3.83478 -5.52439,-1.99805 -11.115,-4.65861 -14.8803,-7.0815 -1.4202,-0.91387 -3.11798,-1.97259 -3.77282,-2.35271 -1.61038,-0.93477 -8.42236,-6.44515 -10.73061,-8.68026 -1.02688,-0.99435 -2.45563,-2.50253 -3.175,-3.35153 -0.71936,-0.84899 -1.96278,-2.26761 -2.76314,-3.15249 -1.97995,-2.18902 -2.03499,-2.26217 -4.28196,-5.69105 -6.66222,-10.16654 -10.67316,-18.38858 -12.92053,-26.48584 -0.45663,-1.64523 -1.0558,-3.76523 -1.33149,-4.71111 -0.27569,-0.94589 -0.63353,-2.31511 -0.7952,-3.04271 -0.16166,-0.72761 -0.35043,-1.56104 -0.41947,-1.85209 -0.38384,-1.61809 -1.14553,-6.75391 -1.39302,-9.3927 -0.41772,-4.45373 -0.58058,-12.53049 -0.29877,-14.81667 0.13454,-1.09141 0.49007,-4.04465 0.79009,-6.56276 0.85509,-7.17703 3.77403,-19.16252 6.23074,-25.58412 0.3897,-1.01865 0.73915,-1.97115 0.77655,-2.11667 0.0374,-0.14552 0.19174,-0.56224 0.34299,-0.92604 0.15124,-0.3638 0.66331,-1.67349 1.13793,-2.91041 1.11133,-2.8963 4.00885,-7.89667 6.24299,-10.7738 0.62822,-0.80901 1.06753,-1.59177 0.97626,-1.73945 -0.0913,-0.14768 -0.0583,-0.20385 0.0734,-0.12482 0.13163,0.079 1.11168,-0.95516 2.17789,-2.29819 2.19117,-2.76007 8.92962,-9.505676 11.21498,-11.226906 0.83155,-0.62627 2.20076,-1.78312 3.04271,-2.57076 0.84195,-0.78765 3.25723,-2.57853 5.36728,-3.97973 2.11005,-1.4012 4.31271,-2.87012 4.89479,-3.26427 3.25884,-2.20666 7.78416,-4.54736 15.34584,-7.93755 0.7276,-0.32622 2.04355,-0.92334 2.92432,-1.32695 4.9067,-2.24845 13.08542,-4.58749 19.392352,-5.54605 4.898678,-0.74453 11.615388,-0.69306 20.265198,0.15527 3.62919,0.35594 7.14154,0.76626 7.80521,0.91184 3.41611,0.7493 17.03759,5.82062 19.33062,7.19685 0.80037,0.48036 2.26195,1.28543 3.248,1.78905 1.67413,0.85507 2.92002,1.67353 9.23573,6.06725 1.35348,0.9416 3.35484,2.54997 4.44744,3.57417 1.0926,1.0242 2.878,2.63504 3.96758,3.57967 2.69791,2.33902 3.90753,3.56726 7.16349,7.27374 5.94683,6.769696 6.50896,7.615876 9.84319,14.816676 3.52089,7.6039 5.1236,11.53993 6.80791,16.71943 4.00601,12.31884 6.4107,24.91819 6.75712,35.40348 0.19973,6.04595 -0.0812,8.38531 -1.99591,16.62329 -1.30866,5.63017 -1.41121,5.9557 -3.51497,11.15797 -2.60066,6.43098 -5.35736,11.86354 -6.84725,13.49373 -0.69599,0.76151 -1.49694,1.92465 -1.77988,2.58475 -0.46898,1.09406 -1.59081,2.75949 -5.63147,8.36018 -1.34348,1.86216 -7.91438,8.36924 -12.12181,12.00406 -5.21898,4.50871 -11.07376,8.27528 -19.05,12.2555 -9.76979,4.87522 -13.40877,6.11437 -22.88646,7.79332 -7.81874,1.38508 -22.164918,2.17906 -28.434118,1.57369 z m 14.278908,-3.42414 c 1.96454,-0.1494 3.9886,-0.33222 4.49792,-0.40628 0.50932,-0.0741 1.87854,-0.19517 3.04271,-0.26915 1.965,-0.12487 2.95421,-0.22374 5.46967,-0.54668 0.53447,-0.0686 1.60603,-0.30097 2.38125,-0.51635 0.77522,-0.21537 1.70715,-0.4526 2.07095,-0.52716 0.36381,-0.0746 0.84006,-0.20228 1.05834,-0.28383 0.21828,-0.0815 0.69453,-0.20299 1.05833,-0.26988 0.3638,-0.0669 1.4949,-0.37456 2.51354,-0.68372 1.01865,-0.30916 2.09021,-0.60312 2.38125,-0.65324 1.0343,-0.17813 3.19614,-0.9673 4.63021,-1.69025 0.80037,-0.40347 2.11005,-0.98955 2.91042,-1.30239 1.48078,-0.57878 4.4738,-2.13386 11.1125,-5.7737 2.40699,-1.3197 9.78958,-6.98145 9.78958,-7.50769 0,-0.1165 0.12779,-0.21181 0.28398,-0.21181 0.70765,0 9.63644,-8.63062 12.31932,-11.90792 0.8927,-1.09049 1.88759,-2.51849 2.21085,-3.17333 0.3233,-0.65485 0.97991,-1.60735 1.45918,-2.11667 0.47927,-0.50932 1.3761,-1.75948 1.99295,-2.77813 0.61685,-1.01864 1.62425,-2.50692 2.23869,-3.30729 1.17674,-1.53282 2.05991,-3.14632 3.04131,-5.55625 0.32594,-0.80036 0.80798,-1.93145 1.07124,-2.51354 0.72771,-1.60912 2.84864,-6.80174 3.29549,-8.06832 0.21781,-0.61729 0.63326,-2.26912 0.92327,-3.67076 0.28998,-1.40163 0.7765,-3.56045 1.08114,-4.79738 1.76802,-7.17874 2.07925,-11.80043 1.20266,-17.85938 -0.27368,-1.89177 -0.53443,-3.79677 -0.57944,-4.23333 -0.045,-0.43656 -0.26098,-2.57969 -0.47995,-4.7625 -0.219,-2.18281 -0.58333,-4.41141 -0.80963,-4.95244 -0.22632,-0.54103 -0.41148,-1.45601 -0.41148,-2.0333 0,-0.57728 -0.11729,-1.35812 -0.26066,-1.7352 -0.14335,-0.37707 -0.31428,-0.95037 -0.37984,-1.27399 -0.3238,-1.5987 -2.37302,-9.31003 -2.96881,-11.17174 -2.61596,-8.17435 -8.48738,-20.79409 -11.44823,-24.60625 -0.90419,-1.16416 -2.07378,-2.77152 -2.59908,-3.57188 -0.5253,-0.80037 -1.67878,-2.248756 -2.56331,-3.218646 -2.72815,-2.99152 -12.60356,-11.85727 -14.83736,-13.32038 -8.46148,-5.54222 -10.24114,-6.6364 -12.43541,-7.64559 -2.4039,-1.10561 -8.23064,-3.26204 -15.875,-5.87523 l -6.87917,-2.35161 -9.11248,-0.085 c -5.42518,-0.0506 -10.188598,0.032 -11.771908,0.20428 -4.69719,0.511 -8.898142,1.6978 -21.052072,5.94738 -7.25019,2.53501 -18.74703,9.15919 -25.00312,14.40615 -3.042,2.55132 -3.81798,3.19546 -6.21771,5.16127 -1.40197,1.14847 -7.2251,6.987576 -8.86973,8.894076 -3.97685,4.61006 -6.98597,9.50417 -8.94729,14.55209 -0.65021,1.67349 -1.47689,3.69815 -1.83705,4.49925 -0.81699,1.81719 -3.31632,10.92459 -4.8399,17.63633 -0.88977,3.9196 -1.30322,6.58258 -1.82222,11.7365 -0.76912,7.63787 -0.82981,11.52921 -0.27746,17.79058 0.45984,5.2126 0.41288,4.97054 1.77357,9.14227 0.69367,2.12673 1.01899,3.55078 0.93687,4.10105 -0.0692,0.46364 -0.0247,1.11171 0.0989,1.44016 0.1236,0.32845 0.59483,1.99533 1.04719,3.70417 1.69484,6.40242 3.84312,11.21819 8.1392,18.24556 1.14885,1.87923 2.4709,4.21737 2.93789,5.19586 0.74937,1.57018 2.62748,4.31663 4.00678,5.85931 0.26022,0.29105 1.11626,1.26604 1.90231,2.16665 0.78605,0.90062 2.04165,2.12161 2.7902,2.71331 0.74856,0.59169 1.53872,1.41945 1.75591,1.83945 0.56672,1.09592 4.11603,4.27096 6.89337,6.16648 1.30969,0.89385 3.09563,2.18157 3.96875,2.8616 0.87313,0.68003 2.18039,1.58223 2.90503,2.00488 0.72465,0.42266 1.51928,0.88753 1.76586,1.03305 4.78667,2.82491 6.91338,3.93912 9.21974,4.83031 2.29718,0.88764 5.87508,2.06179 7.01145,2.30092 0.14552,0.0306 0.80037,0.20743 1.45521,0.39291 0.65485,0.18548 1.60735,0.38394 2.11667,0.44103 0.50932,0.0571 1.2237,0.17832 1.5875,0.26941 0.79112,0.19809 1.06655,0.24274 3.96875,0.6433 1.23693,0.17072 2.78474,0.34573 3.43958,0.38891 0.65485,0.0432 1.905,0.14983 2.77813,0.23702 3.895542,0.38899 11.29119,0.87686 11.77396,0.77669 0.21828,-0.0453 2.00421,-0.20459 3.96874,-0.35399 z m -25.3149,-8.38 c 0.0725,-0.0725 -0.10046,-0.6569 -0.38434,-1.29866 -0.29836,-0.6745 -0.61769,-2.25683 -0.7568,-3.75006 -0.13235,-1.42076 -0.47467,-4.36914 -0.7607,-6.55195 -0.90329,-6.89337 -0.93216,-7.62992 -0.32078,-8.18322 1.16529,-1.05456 1.44177,-0.38083 1.87633,4.57223 0.22531,2.56805 0.87767,7.49246 1.1969,9.03494 0.0452,0.21828 0.0913,0.92671 0.10239,1.57427 0.0121,0.70311 0.11545,1.07615 0.25659,0.92605 0.12999,-0.13825 0.76018,-1.8587 1.40042,-3.82323 1.43325,-4.39782 1.83589,-5.07542 2.90406,-4.88723 1.58983,0.28008 1.7321,0.47196 3.82001,5.15181 l 0.76728,1.71979 0.165582,-1.85208 c 0.0911,-1.01865 0.18102,-2.92365 0.19991,-4.23333 0.0189,-1.30969 0.15644,-2.82089 0.30568,-3.35823 0.30792,-1.10866 1.14094,-1.55765 1.75348,-0.9451 0.33197,0.33196 0.31075,1.19934 -0.1641,6.70792 -0.59685,6.92377 -0.63187,7.15475 -1.19609,7.88761 -0.37725,0.49001 -0.41017,0.48672 -1.311812,-0.1311 -0.6468,-0.44319 -1.04726,-1.00797 -1.33202,-1.87856 -0.22394,-0.68467 -0.86504,-2.23302 -1.42466,-3.44078 -0.55961,-1.20776 -1.13168,-2.48231 -1.27127,-2.83234 -0.22004,-0.55176 -0.44057,-0.0943 -1.65819,3.43958 -1.68487,4.88996 -2.04153,5.69848 -2.61976,5.93881 -0.5525,0.22963 -1.72628,0.39102 -1.54811,0.21286 z m 22.05171,-0.53227 c -0.097,-0.097 -0.17639,-1.76389 -0.17639,-3.70417 0,-1.94028 -0.0893,-3.52065 -0.19844,-3.51195 -0.10914,0.009 -1.27,0.22016 -2.57968,0.4699 l -2.381248,0.45406 0.0973,2.70661 c 0.068,1.89162 -0.002,2.82565 -0.23083,3.10198 -0.36357,0.43807 -1.20787,0.52898 -1.43903,0.15495 -0.21676,-0.35073 -0.44592,-13.01192 -0.2484,-13.72473 0.092,-0.33203 0.40331,-0.73001 0.6918,-0.8844 0.92537,-0.49525 1.12917,0.0982 1.12917,3.28828 0,2.47481 0.0653,2.95564 0.39687,2.92174 0.21828,-0.0223 1.32346,-0.19553 2.455948,-0.38491 2.35286,-0.39345 2.26577,-0.26841 2.3719,-3.40549 0.0645,-1.90606 0.0943,-1.98848 0.81013,-2.23937 0.57387,-0.20113 0.8039,-0.17224 1.00971,0.12681 0.27033,0.39279 0.0738,13.69155 -0.21343,14.43996 -0.14423,0.37587 -1.17833,0.50777 -1.49537,0.19073 z m 3.32972,-1.06433 c -0.35011,-0.71723 -0.30723,-0.8539 1.41313,-4.50464 2.06254,-4.37686 2.54001,-5.55657 2.92185,-7.21923 0.40179,-1.74949 1.24541,-3.3128 1.93084,-3.57803 0.20857,-0.0807 0.57614,0.0662 0.81681,0.32658 0.73319,0.79306 4.36061,14.05826 4.08325,14.93213 -0.31638,0.99685 -2.22709,0.32767 -2.24287,-0.78551 -0.003,-0.24427 -0.28708,-1.39663 -0.63028,-2.56079 l -0.62398,-2.11667 -1.28795,0.0626 c -2.2392,0.10891 -2.25178,0.11931 -3.6692,3.03599 -1.01353,2.08557 -1.45795,2.74143 -1.90033,2.80441 -0.35396,0.0504 -0.66791,-0.10319 -0.81127,-0.39688 z m 7.07722,-7.60992 c 0,-0.27028 -0.79429,-3.14435 -0.89751,-3.24757 -0.0615,-0.0615 -0.30858,0.52204 -0.54901,1.29682 -0.24042,0.77477 -0.49949,1.55751 -0.57569,1.73941 -0.0977,0.2332 0.18002,0.33073 0.94183,0.33073 0.59421,0 1.08038,-0.0537 1.08038,-0.11939 z m 9.93333,6.93241 c -0.32551,-1.03278 -0.83744,-9.57929 -0.72111,-12.03854 0.061,-1.29032 0.24322,-1.24188 -2.89499,-0.76985 -2.35746,0.35458 -3.30251,0.22502 -3.57705,-0.49042 -0.2481,-0.64654 0.66658,-1.45171 1.64916,-1.45171 0.47725,0 1.67919,-0.16976 2.67097,-0.37724 4.75697,-0.99516 9.96126,-1.49245 10.45472,-0.99899 0.39088,0.39088 0.0405,1.57671 -0.51616,1.74695 -0.25433,0.0778 -1.5935,0.27628 -2.97595,0.44111 -1.38245,0.16484 -2.60284,0.35429 -2.71198,0.42101 -0.27014,0.16514 -0.24205,3.15121 0.0568,6.0432 0.20983,2.03016 0.3848,6.39186 0.29984,7.47448 -0.0146,0.18614 -0.3766,0.33073 -0.82801,0.33073 -0.44113,0 -0.84896,-0.14883 -0.90629,-0.33073 z M 95.342042,216.69037 c -0.81768,-0.12016 -2.36549,-0.53373 -3.43958,-0.91903 -1.074092,-0.38531 -3.143512,-1.09497 -4.598722,-1.57703 -1.4552,-0.48206 -3.90398,-1.34942 -5.44173,-1.92748 -1.53774,-0.57805 -3.20461,-1.13967 -3.70416,-1.24805 -1.60431,-0.34806 -5.59433,-2.19877 -6.43929,-2.98677 -0.45044,-0.42007 -1.89055,-1.51973 -3.20023,-2.44367 -1.99734,-1.40907 -6.38917,-5.58016 -9.60286,-9.12018 -2.2596,-2.48905 -4.12807,-5.07109 -5.36097,-7.40833 -0.76762,-1.45521 -1.96946,-3.53718 -2.67075,-4.62661 -1.34576,-2.09059 -1.89433,-3.48414 -3.64678,-9.26402 -1.59032,-5.24514 -1.85621,-7.57533 -1.86987,-16.38679 -0.009,-5.64293 0.0929,-8.19489 0.40097,-10.07154 0.22697,-1.38245 0.46166,-2.8112 0.52154,-3.175 0.0599,-0.36381 0.24311,-1.4949 0.40719,-2.51355 0.56332,-3.49715 3.68645,-12.11844 6.07336,-16.76526 2.06299,-4.01621 3.4001,-5.734 8.73671,-11.22405 5.26679,-5.41822 10.37868,-8.81865 19.18229,-12.76008 4.41975,-1.97874 9.67315,-3.430476 16.404172,-4.533156 3.918648,-0.64197 11.849648,-0.7689 15.879618,-0.25416 8.48618,1.08393 11.9467,1.85375 18.28109,4.066806 4.518,1.57847 7.04358,3.04151 9.95019,5.76401 0.76926,0.72053 2.35087,2.13466 3.5147,3.14251 3.61871,3.13371 5.40348,5.24414 8.51932,10.0738 2.76665,4.2884 3.237,5.17069 4.49935,8.43986 0.51141,1.32443 1.20018,2.94384 1.53061,3.59868 1.39864,2.77175 2.99001,7.14065 3.27671,8.99584 0.16864,1.0914 0.63757,3.9489 1.04201,6.35 0.70736,4.19938 0.72821,4.58693 0.54758,10.17725 -0.12319,3.81334 -0.37296,6.90649 -0.72639,8.99583 -0.29625,1.75132 -0.70871,4.55343 -0.91662,6.22692 -0.21958,1.76773 -0.60643,3.54161 -0.92321,4.23333 -0.29988,0.65485 -1.38793,3.09406 -2.4179,5.42048 -1.02994,2.32642 -2.30785,4.88626 -2.83974,5.68854 -2.78572,4.20177 -9.66431,12.52065 -12.56363,15.19432 -1.68792,1.55654 -7.01575,5.56434 -7.98278,6.00495 -0.37764,0.17206 -0.61242,0.43289 -0.52174,0.57962 0.0907,0.14672 0.0469,0.19389 -0.0972,0.10481 -0.27059,-0.16724 -3.05008,0.82435 -7.58199,2.70487 -4.36628,1.81181 -8.20001,2.57327 -16.7457,3.32609 -4.7876,0.42176 -12.977928,0.48328 -15.475588,0.11624 z M 110.32249,213.182 c 0.58209,-0.0786 2.48709,-0.33297 4.23334,-0.56522 7.29294,-0.96998 9.90345,-1.75405 15.34583,-4.60912 5.02968,-2.63857 12.66388,-8.18512 16.33572,-11.86857 0.68995,-0.69213 1.2555,-1.39733 1.25677,-1.56711 0,-0.16977 0.0995,-0.34837 0.21839,-0.39687 0.11887,-0.0485 0.92191,-1.0407 1.78456,-2.20487 0.86262,-1.16416 1.62928,-2.17619 1.70362,-2.24895 0.80447,-0.78721 2.59318,-3.61263 3.54264,-5.59594 1.57927,-3.29892 1.85447,-3.98075 2.5468,-6.31031 0.32435,-1.09141 0.76743,-2.57969 0.98465,-3.3073 0.2172,-0.7276 0.4464,-1.6801 0.50932,-2.11666 0.063,-0.43656 0.17767,-0.97235 0.25493,-1.19063 0.13068,-0.36915 0.80348,-3.79053 1.0406,-5.29167 0.0575,-0.3638 0.21797,-3.2497 0.35664,-6.4131 0.21992,-5.01601 0.18954,-6.26808 -0.23752,-9.78958 -0.65101,-5.36839 -1.50024,-8.14044 -4.23609,-13.82753 -0.91006,-1.89177 -1.93714,-4.14686 -2.2824,-5.01131 -0.94173,-2.35784 -4.01947,-7.42455 -9.05044,-14.89921 -0.88732,-1.31833 -3.2179,-3.57515 -6.2625,-6.06432 -1.45467,-1.1893 -3.18064,-2.6415 -3.83548,-3.22712 -1.42021,-1.27008 -4.80147,-2.64706 -9.24764,-3.76598 -3.82844,-0.96346 -5.23239,-1.20599 -9.00861,-1.55618 -1.67349,-0.15519 -3.34037,-0.33017 -3.70417,-0.38884 -0.3638,-0.0587 -1.74833,-0.23918 -3.07674,-0.40115 -4.56534,-0.55661 -13.569928,0.4463 -18.75138,2.08851 -0.87313,0.27673 -2.27327,0.6266 -3.11143,0.7775 -3.0751,0.55363 -11.85584,4.74578 -15.34243,7.32488 -0.97455,0.7209 -2.34081,1.66582 -3.03611,2.09982 -1.77003,1.10483 -7.38086,6.62702 -9.85264,9.69698 -1.13837,1.41386 -2.39681,3.26198 -2.79653,4.10691 -0.39972,0.84494 -1.00208,1.9553 -1.33858,2.46747 -1.06522,1.62132 -4.80665,11.97575 -5.35566,14.82184 -0.69508,3.60325 -0.95385,7.69004 -0.95495,15.08125 -10e-4,8.79907 0.20299,10.56065 1.60459,13.83526 0.49121,1.14765 0.89311,2.25467 0.89311,2.46006 0,0.20539 0.0893,0.3744 0.19844,0.37557 0.10914,0.001 0.21489,0.7138 0.235,1.5836 0.041,1.77179 0.0311,1.74946 3.38807,7.67468 3.128,5.5211 3.8162,6.4146 10.13177,13.15443 1.89545,2.02278 4.87882,4.45682 6.41964,5.23757 0.50932,0.25809 2.11667,1.18724 3.57187,2.06478 2.61612,1.57762 9.12884,4.3533 13.22917,5.63818 1.16417,0.36481 2.4868,0.83153 2.939182,1.03717 0.45238,0.20564 1.39808,0.44297 2.10154,0.52742 0.70347,0.0844 1.36136,0.20441 1.46198,0.2666 0.10062,0.0622 1.05992,0.18476 2.13179,0.27238 1.07186,0.0876 2.00837,0.21857 2.08114,0.29101 0.161,0.16029 9.498398,-0.0662 10.980198,-0.26633 z M 85.99583,203.14889 c -0.0554,-0.1819 -0.23024,-0.73545 -0.38858,-1.23011 -0.34175,-1.06765 -0.3544,-5.69381 -0.0207,-7.56729 0.1296,-0.7276 0.31518,-2.93026 0.4124,-4.89479 0.19265,-3.89289 0.50367,-4.85722 1.51995,-4.71256 0.66082,0.0941 0.65515,0.01 0.34851,5.17558 l -0.1924,3.24115 h 1.56149 c 0.85882,0 2.293332,-0.0765 3.187802,-0.16998 l 1.62633,-0.16999 v -2.06175 c 0,-2.56881 0.30655,-3.48755 1.1249,-3.37131 0.5944,0.0844 0.59496,0.0895 0.67542,6.16991 0.0935,7.06424 -0.0674,9.35352 -0.6738,9.5862 -0.25253,0.0969 -0.6051,-0.0752 -0.89993,-0.43929 -0.43744,-0.54022 -0.46796,-0.94833 -0.31282,-4.18307 l 0.1719,-3.58444 -2.22565,0.17913 c -1.224102,0.0985 -2.749342,0.25082 -3.389422,0.33842 l -1.16378,0.15929 0.17146,3.57513 c 0.17993,3.75164 0.0635,4.2905 -0.92732,4.2905 -0.27779,0 -0.55038,-0.14883 -0.60575,-0.33073 z m 25.30269,-0.68755 c -0.2509,-0.16169 -0.38078,-1.31468 -0.46936,-4.1667 -0.0674,-2.16873 -0.29821,-5.47252 -0.51301,-7.34175 -0.21479,-1.86923 -0.39053,-3.50929 -0.39053,-3.64457 0,-0.46482 1.38356,-0.81623 1.74092,-0.44218 0.19457,0.20366 0.50353,2.26481 0.76509,5.1041 0.24131,2.61938 0.52214,5.35782 0.62407,6.08542 l 0.18533,1.32292 0.76906,-2.38125 c 1.49713,-4.6356 1.97966,-5.31632 3.2011,-4.516 0.33876,0.22196 0.89579,1.16757 1.28935,2.18881 0.3811,0.98891 1.03069,2.37109 1.44352,3.0715 l 0.7506,1.27347 0.20914,-1.67035 c 0.11502,-0.91869 0.23678,-2.21343 0.27058,-2.87721 0.40509,-7.95632 0.51724,-8.45043 1.91804,-8.45043 h 0.64937 l -0.17694,2.97656 c -0.21074,3.54529 -0.87738,10.67094 -1.10461,11.80709 -0.12455,0.62277 -0.36807,0.87446 -1.07031,1.10622 -1.66817,0.55055 -1.98147,0.28004 -3.37935,-2.91777 -0.70155,-1.60486 -1.35302,-2.91793 -1.44771,-2.91793 -0.0947,0 -0.62195,1.36662 -1.17169,3.03695 -0.54975,1.67032 -1.08166,3.0839 -1.18203,3.14128 -0.44965,0.25709 -2.59781,0.41342 -2.91063,0.21182 z m -10.45279,-0.83024 c -1.736748,-1.10141 -2.826358,-2.88635 -2.826358,-4.62998 0,-0.7413 0.1744,-2.01738 0.38755,-2.83572 0.21315,-0.81834 0.44316,-1.79461 0.51114,-2.16948 0.27049,-1.49169 2.145848,-4.28425 3.287388,-4.89518 1.17323,-0.62789 4.32151,0.38078 5.15397,1.65127 1.99658,3.04717 1.97101,8.96346 -0.0498,11.51491 -1.85156,2.33778 -4.16037,2.82505 -6.46391,1.36418 z m 3.64348,-1.22602 c 0.63247,-0.24271 1.90376,-2.21185 2.24419,-3.47609 0.60276,-2.23848 0.37586,-3.94721 -0.82276,-6.19605 -0.78853,-1.47943 -1.07464,-1.70785 -2.4521,-1.95763 -0.89697,-0.16265 -1.54271,0.60401 -2.55948,3.03878 -1.142498,2.73582 -1.331088,5.1589 -0.5055,6.49473 1.03055,1.66747 2.8227,2.58474 4.09565,2.09626 z m -2.3688,-18.80895 c -2.422328,-0.3307 -7.221748,-1.57976 -9.549318,-2.48521 -3.729222,-1.45071 -5.533892,-2.62958 -8.464352,-5.52922 -4.30287,-4.25759 -4.95981,-5.33642 -6.68632,-10.98021 -1.28903,-4.21373 -1.67,-6.16541 -1.76699,-9.05206 -0.0978,-2.91241 0.30156,-4.89533 2.01385,-9.99794 1.9362,-5.76988 5.45943,-10.36426 10.44242,-13.61719 5.105722,-3.33305 9.966782,-4.90831 16.37609,-5.30678 l 3.95288,-0.24575 1.86795,0.89883 c 1.02738,0.49435 2.70139,1.2242 3.72004,1.62187 4.69755,1.83391 9.96749,6.62133 14.10393,12.81256 1.84797,2.76596 2.52901,4.1932 3.50938,7.35452 1.34112,4.32463 1.64775,6.59969 1.48711,11.03402 -0.16212,4.47566 -0.56678,6.33425 -1.90099,8.73125 -1.36099,2.44512 -3.95052,5.76453 -4.93575,6.32696 -0.48763,0.27836 -1.60097,1.06809 -2.4741,1.75496 -1.97208,1.55138 -5.89675,3.66008 -8.86354,4.7623 -3.96375,1.47263 -9.75293,2.3375 -12.83229,1.91709 z m 6.74687,-4.03881 c 1.09141,-0.28983 2.44589,-0.52901 3.00995,-0.5315 1.3093,-0.006 8.56181,-3.54212 10.08693,-4.9184 0.58208,-0.52527 1.35599,-1.22296 1.71979,-1.55043 2.34679,-2.11237 4.28418,-6.24845 5.46154,-11.65967 0.82604,-3.79656 -0.18067,-9.48691 -2.66796,-15.08039 -1.28617,-2.89237 -4.26433,-7.14247 -6.43702,-9.18619 -1.75206,-1.64806 -5.18693,-4.10807 -6.67531,-4.78077 -1.1636,-0.5259 -3.11716,-0.67057 -10.58333,-0.78371 -1.56059,-0.0236 -4.575658,0.42049 -6.085418,0.89642 -1.99576,0.62915 -7.902262,3.82322 -9.861472,5.33283 -1.06951,0.82407 -2.72804,3.02156 -4.26119,5.6459 -1.19472,2.04504 -2.32856,5.41376 -3.18697,9.46874 -0.64578,3.05056 -0.65449,3.22056 -0.26424,5.15938 0.82176,4.08264 2.0321,8.14251 2.96404,9.94238 1.26836,2.44959 4.5435,5.75283 7.06921,7.12984 1.01864,0.55537 3.102242,1.75975 4.630212,2.67641 1.52796,0.91666 3.37343,1.85393 4.10104,2.08281 3.251408,1.02281 7.490168,1.08317 10.980198,0.15635 z m 4.16719,-14.58015 c -0.69951,-0.40743 -0.585,-0.85077 0.92604,-3.58515 0.76399,-1.38251 1.56253,-2.8333 1.77454,-3.22397 0.73025,-1.34563 0.50571,-3.39613 -0.62825,-5.73739 -1.94873,-4.0235 -2.28018,-4.89746 -2.1118,-5.56834 0.18783,-0.74835 0.13204,-0.72682 1.01422,-0.39142 0.52893,0.2011 1.04307,1.02459 2.33264,3.73611 l 1.65418,3.47816 1.27129,-2.61163 c 0.69921,-1.4364 1.36607,-2.79023 1.48191,-3.00851 0.29994,-0.56516 1.19744,-0.63156 1.622,-0.11999 0.47798,0.57593 -0.11055,2.25988 -1.93284,5.53044 -0.73387,1.31712 -1.83476,3.34726 -2.44641,4.51143 -4.04009,7.68959 -3.95729,7.57284 -4.95752,6.99026 z m -15.858728,-0.56649 c -0.24004,-0.1861 -1.06255,-1.79687 -1.82778,-3.5795 -0.76523,-1.78263 -1.47397,-3.24115 -1.57498,-3.24115 -0.10101,0 -0.69299,1.10133 -1.31551,2.4474 -1.291152,2.79184 -3.100442,4.77334 -3.816142,4.17936 -0.60623,-0.50312 -0.90494,-1.74001 -1.31282,-5.43613 -0.20877,-1.89177 -0.58984,-5.2586 -0.84683,-7.48183 -0.41094,-3.555 -0.42041,-4.08909 -0.0786,-4.43087 0.34179,-0.34179 0.45809,-0.33999 0.96483,0.0149 0.69155,0.48437 0.72254,0.65114 1.39964,7.53212 0.29355,2.98318 0.60599,5.77972 0.69431,6.21453 0.1584,0.77984 0.16948,0.77085 0.81558,-0.66145 0.36025,-0.79862 1.00361,-2.28227 1.429692,-3.29701 0.79753,-1.89937 1.64675,-3.04982 2.25125,-3.04982 0.50035,0 1.06336,0.96925 2.50309,4.30919 l 1.27891,2.96685 0.0409,-3.70416 c 0.0225,-2.0373 0.11504,-5.01386 0.20566,-6.61459 0.15919,-2.81176 0.18619,-2.91344 0.79632,-2.99971 0.34734,-0.0491 0.73754,0.07 0.86711,0.26458 0.26041,0.3912 -0.002,16.12261 -0.27302,16.39945 -0.37856,0.38595 -1.78214,0.49292 -2.20155,0.16779 z m 12.619828,0.0622 c -0.0887,-0.14353 -0.22175,-2.13782 -0.29565,-4.43177 -0.0739,-2.29395 -0.18601,-4.32694 -0.24913,-4.51776 -0.0723,-0.2186 -0.38469,-0.30074 -0.84444,-0.22205 -0.40133,0.0687 -1.23346,0.20991 -1.84917,0.31382 -0.61572,0.1039 -1.24803,0.3438 -1.40514,0.5331 -0.1571,0.1893 -0.36771,1.99015 -0.46801,4.00188 l -0.18237,3.65769 h -0.92604 -0.92604 l 0.12486,-1.98437 c 0.19033,-3.0249 0.16268,-7.14365 -0.0756,-11.2645 -0.18328,-3.16926 -0.15625,-3.77294 0.18152,-4.05326 0.5498,-0.4563 1.48678,0.0705 1.49621,0.84113 0.0204,1.66998 0.52047,5.58511 0.74158,5.80621 0.15122,0.15123 1.05539,0.17901 2.23335,0.0686 l 1.97925,-0.18548 -0.0152,-2.35324 c -0.008,-1.29428 -0.10006,-2.35324 -0.20379,-2.35324 -0.10373,0 -0.0398,-0.50602 0.14199,-1.12448 0.37675,-1.2815 1.22959,-1.66308 1.71014,-0.76517 0.16902,0.31583 0.35092,3.90814 0.45824,9.0498 0.16934,8.11288 0.15417,8.54348 -0.31295,8.88505 -0.57912,0.42346 -1.08892,0.4615 -1.31357,0.098 z"
       id="path847" />
  </g>
</svg>
